<?xml version="1.0" encoding="utf-8"?>
<!DOCTYPE svg PUBLIC "-//W3C//DTD SVG 20010904//EN" "http://www.w3.org/TR/2001/REC-SVG-20010904/DTD/svg10.dtd">
<svg version="1.0" xmlns="http://www.w3.org/2000/svg" width="272pt" height="272pt" viewBox="0 0 272 272" style="" preserveAspectRatio="xMidYMid meet">
<g fill="#CDE8E5FD" stroke="#CDE8E5FD">
<path d="M 1.000 136.000 L 1.000 271.000 136.000 271.000 L 271.000 271.000 271.000 136.000 L 271.000 1.000 136.000 1.000 L 1.000 1.000 1.000 136.000 M 170.236 65.435 C 186.881 73.925 200.948 81.575 201.495 82.435 C 203.081 84.929 200.802 87.457 196.649 87.810 C 193.096 88.113 191.977 89.249 194.000 90.500 C 194.550 90.840 195.000 92.216 195.000 93.559 C 195.000 95.785 194.604 96.000 190.500 96.000 C 185.638 96.000 184.881 94.862 187.468 91.441 C 189.761 88.409 189.348 88.000 184.000 88.000 L 179.000 88.000 179.000 94.402 C 179.000 100.684 179.059 100.825 182.149 101.902 C 186.252 103.332 186.317 103.319 185.751 101.157 C 184.870 97.785 192.449 95.333 194.734 98.250 C 195.273 98.938 196.256 102.341 196.919 105.814 C 197.583 109.286 199.012 114.194 200.095 116.721 C 201.177 119.247 202.337 123.930 202.671 127.128 C 203.069 130.936 203.921 133.523 205.139 134.626 C 206.163 135.552 207.000 136.015 207.000 135.655 C 207.000 135.295 207.061 135.338 207.136 135.750 C 207.211 136.163 208.729 138.202 210.509 140.282 C 215.142 145.694 217.363 153.520 216.772 162.351 C 216.145 171.709 213.138 177.986 205.822 185.205 C 199.726 191.221 193.489 193.998 186.068 194.002 C 183.205 194.003 181.762 194.787 178.764 197.974 C 169.919 207.374 154.959 209.854 145.563 203.478 L 142.000 201.060 142.000 210.096 C 142.000 219.849 141.023 223.000 138.000 223.000 C 134.845 223.000 133.837 219.550 134.181 209.934 C 134.481 201.525 134.034 199.518 132.436 202.104 C 132.060 202.711 129.896 204.052 127.627 205.082 C 122.599 207.365 114.038 207.500 108.500 205.383 C 106.300 204.542 103.938 203.812 103.250 203.760 C 102.563 203.709 102.000 203.282 102.000 202.812 C 102.000 202.342 100.982 201.493 99.739 200.927 C 98.495 200.360 96.716 198.570 95.785 196.948 C 94.381 194.501 93.448 193.999 90.297 193.994 C 84.694 193.986 80.163 192.467 74.000 188.531 C 68.218 184.839 66.693 182.951 62.265 174.000 C 58.635 166.663 58.388 154.105 61.729 146.750 C 62.916 144.138 63.714 142.000 63.502 142.000 C 63.290 142.000 65.152 140.077 67.639 137.727 C 71.688 133.901 72.200 132.913 72.518 128.308 C 73.308 116.879 81.553 105.970 92.030 102.490 L 97.000 100.839 97.000 94.420 L 97.000 88.000 86.535 88.000 C 77.264 88.000 75.954 87.783 75.050 86.093 C 74.278 84.651 74.452 83.675 75.765 82.092 C 77.711 79.743 135.525 50.069 138.236 50.027 C 139.191 50.012 153.591 56.946 170.236 65.435 M 184.808 231.664 C 185.008 233.069 184.483 234.008 183.308 234.341 C 181.071 234.976 93.979 234.886 92.250 234.248 C 90.919 233.756 90.548 230.785 91.677 229.657 C 92.049 229.285 113.086 229.097 138.427 229.240 L 184.500 229.500 184.808 231.664 M 69.000 196.132 C 69.000 197.257 70.033 198.442 71.500 199.000 C 74.508 200.143 74.731 201.576 72.012 202.287 C 70.919 202.573 69.580 203.975 69.037 205.403 C 67.780 208.708 67.395 208.664 65.500 205.000 C 64.647 203.350 63.285 202.000 62.474 202.000 C 60.282 202.000 60.690 199.894 63.000 199.290 C 64.100 199.002 65.069 198.257 65.152 197.633 C 65.236 197.010 65.409 196.050 65.537 195.500 C 65.665 194.950 65.821 194.177 65.885 193.781 C 66.140 192.190 69.000 194.348 69.000 196.132 M 223.381 117.381 C 223.709 118.690 224.883 119.998 225.989 120.287 C 228.567 120.961 228.579 122.615 226.012 123.287 C 224.919 123.573 223.571 124.999 223.017 126.456 C 221.962 129.230 219.500 128.911 219.500 126.000 C 219.500 125.175 218.488 124.056 217.250 123.513 C 214.461 122.289 214.364 120.979 217.011 120.287 C 218.117 119.998 219.291 118.690 219.619 117.381 C 219.948 116.071 220.794 115.000 221.500 115.000 C 222.206 115.000 223.052 116.071 223.381 117.381 M 62.564 101.500 C 63.369 103.425 64.696 105.000 65.513 105.000 C 67.672 105.000 67.338 107.099 65.085 107.688 C 64.031 107.964 62.898 109.271 62.566 110.594 C 61.785 113.706 60.203 113.664 59.000 110.500 C 58.477 109.125 57.390 108.000 56.584 108.000 C 53.973 108.000 53.820 106.039 56.341 104.890 C 57.825 104.214 59.024 102.631 59.373 100.886 C 60.126 97.119 60.787 97.246 62.564 101.500 M 101.381 34.381 C 101.709 35.690 102.883 36.998 103.989 37.287 C 106.567 37.961 106.579 39.615 104.012 40.287 C 102.919 40.573 101.580 41.975 101.037 43.403 C 100.494 44.831 99.802 46.000 99.500 46.000 C 99.198 46.000 98.506 44.831 97.963 43.403 C 97.420 41.975 96.081 40.573 94.988 40.287 C 92.269 39.576 92.492 38.143 95.500 37.000 C 97.031 36.418 98.000 35.264 98.000 34.025 C 98.000 31.203 100.653 31.483 101.381 34.381 M 200.580 52.464 C 200.921 53.819 202.054 55.200 203.099 55.532 C 205.551 56.310 205.543 58.045 203.085 58.688 C 202.031 58.964 200.898 60.271 200.566 61.594 C 199.831 64.521 198.361 64.714 197.499 61.996 C 197.149 60.894 195.657 59.360 194.183 58.588 L 191.503 57.184 194.175 55.966 C 195.644 55.297 197.114 53.681 197.442 52.375 C 198.216 49.292 199.795 49.337 200.580 52.464 M 214.960 94.452 C 217.042 96.961 215.805 99.500 212.500 99.500 C 210.434 99.500 209.422 98.952 209.181 97.702 C 208.784 95.640 210.648 93.000 212.500 93.000 C 213.190 93.000 214.297 93.653 214.960 94.452 M 197.418 215.607 C 199.364 216.354 199.483 219.355 197.627 220.895 C 195.665 222.523 193.000 221.178 193.000 218.560 C 193.000 215.192 194.217 214.379 197.418 215.607 M 225.070 184.584 C 225.999 185.704 226.087 186.638 225.371 187.774 C 223.905 190.098 222.455 190.312 220.618 188.475 C 219.394 187.251 219.254 186.395 220.037 184.931 C 221.291 182.588 223.298 182.450 225.070 184.584 M 140.800 33.200 C 142.381 34.781 142.315 35.543 140.431 37.427 C 139.246 38.611 138.388 38.743 136.931 37.963 C 135.869 37.395 135.000 36.360 135.000 35.665 C 135.000 34.108 137.013 32.000 138.500 32.000 C 139.105 32.000 140.140 32.540 140.800 33.200 M 57.798 128.412 C 57.587 129.889 56.773 130.500 55.014 130.500 C 51.927 130.500 51.000 127.205 53.559 125.333 C 55.833 123.670 58.227 125.409 57.798 128.412 M 57.000 86.335 C 57.000 87.963 54.963 90.000 53.335 90.000 C 52.640 90.000 51.605 89.131 51.037 88.069 C 49.568 85.325 52.325 82.568 55.069 84.037 C 56.131 84.605 57.000 85.640 57.000 86.335 M 231.362 145.500 C 232.216 147.726 231.030 150.000 229.015 150.000 C 228.042 150.000 226.685 149.325 226.000 148.500 C 224.468 146.654 226.246 144.000 229.015 144.000 C 229.989 144.000 231.045 144.675 231.362 145.500 M 211.500 209.000 C 211.500 212.281 207.496 213.139 206.521 210.067 C 205.646 207.309 206.731 205.820 209.344 206.193 C 210.895 206.414 211.500 207.202 211.500 209.000 M 172.821 35.310 C 173.362 38.119 171.161 40.156 168.895 38.944 C 166.715 37.777 166.459 35.941 168.229 34.171 C 169.897 32.503 172.400 33.124 172.821 35.310 M 72.895 59.373 C 74.441 61.237 73.227 64.000 70.862 64.000 C 68.713 64.000 67.484 61.787 68.362 59.500 C 69.081 57.625 71.390 57.560 72.895 59.373 M 47.500 168.000 C 47.500 169.625 46.855 170.597 45.620 170.835 C 43.186 171.303 41.864 169.124 43.137 166.744 C 44.550 164.104 47.500 164.954 47.500 168.000 M 88.444 215.910 C 89.405 217.465 87.876 220.000 85.976 220.000 C 84.032 220.000 83.010 218.275 83.754 216.250 C 84.285 214.806 87.613 214.564 88.444 215.910 M 124.315 31.378 C 124.909 32.928 123.232 35.000 121.383 35.000 C 119.955 35.000 119.099 33.031 119.754 31.250 C 120.374 29.566 123.655 29.658 124.315 31.378 M 225.559 64.096 C 226.441 65.522 223.522 68.441 222.096 67.559 C 221.493 67.187 221.000 66.009 221.000 64.941 C 221.000 62.817 224.382 62.190 225.559 64.096 M 42.824 119.336 C 43.217 121.363 40.292 122.692 38.775 121.175 C 37.988 120.388 38.048 119.647 38.992 118.509 C 40.554 116.627 42.375 117.020 42.824 119.336 M 110.664 218.567 C 111.574 220.939 109.441 222.611 107.530 221.025 C 106.346 220.042 106.246 219.409 107.110 218.367 C 108.608 216.563 109.923 216.637 110.664 218.567 M 49.000 209.000 C 49.000 210.333 48.333 211.000 47.000 211.000 C 45.667 211.000 45.000 210.333 45.000 209.000 C 45.000 207.667 45.667 207.000 47.000 207.000 C 48.333 207.000 49.000 207.667 49.000 209.000 M 168.755 214.250 C 168.132 216.141 164.333 216.397 164.333 214.548 C 164.333 213.578 165.235 213.000 166.750 213.000 C 168.236 213.000 169.008 213.481 168.755 214.250 M 215.823 80.333 C 216.010 81.297 215.508 82.000 214.632 82.000 C 212.775 82.000 211.653 80.370 212.533 78.947 C 213.437 77.484 215.434 78.324 215.823 80.333 M 89.554 204.087 C 90.584 205.755 88.267 207.667 86.887 206.287 C 85.733 205.133 86.455 203.000 88.000 203.000 C 88.485 203.000 89.184 203.489 89.554 204.087 M 48.554 152.087 C 49.584 153.755 47.267 155.667 45.887 154.287 C 44.733 153.133 45.455 151.000 47.000 151.000 C 47.485 151.000 48.184 151.489 48.554 152.087 M 190.200 46.200 C 189.267 47.133 188.724 47.124 187.758 46.158 C 186.770 45.170 186.819 44.730 188.000 44.000 C 190.005 42.761 191.822 44.578 190.200 46.200 M 199.000 201.559 C 199.000 202.352 198.325 203.000 197.500 203.000 C 195.994 203.000 195.444 200.889 196.639 199.694 C 197.573 198.761 199.000 199.888 199.000 201.559 M 82.000 68.559 C 82.000 69.352 81.325 70.000 80.500 70.000 C 78.994 70.000 78.444 67.889 79.639 66.694 C 80.573 65.761 82.000 66.888 82.000 68.559 M 175.000 51.500 C 175.000 52.325 174.352 53.000 173.559 53.000 C 171.888 53.000 170.761 51.573 171.694 50.639 C 172.889 49.444 175.000 49.994 175.000 51.500 M 229.000 161.500 C 229.000 162.325 228.325 163.000 227.500 163.000 C 226.675 163.000 226.000 162.325 226.000 161.500 C 226.000 160.675 226.675 160.000 227.500 160.000 C 228.325 160.000 229.000 160.675 229.000 161.500 M 80.217 53.183 C 78.689 54.711 77.562 53.584 78.409 51.376 C 78.909 50.072 79.343 49.943 80.233 50.833 C 81.122 51.722 81.119 52.281 80.217 53.183 M 72.771 229.188 C 72.153 231.042 70.000 231.349 70.000 229.583 C 70.000 228.713 70.713 228.000 71.583 228.000 C 72.454 228.000 72.989 228.534 72.771 229.188 M 219.771 224.813 C 219.989 225.466 219.454 226.000 218.583 226.000 C 217.713 226.000 217.000 225.288 217.000 224.417 C 217.000 222.651 219.153 222.958 219.771 224.813 M 227.000 86.500 C 227.000 87.325 226.577 88.000 226.059 88.000 C 224.798 88.000 223.895 86.438 224.694 85.639 C 225.820 84.513 227.000 84.954 227.000 86.500 M 54.000 57.500 C 54.000 58.325 53.577 59.000 53.059 59.000 C 51.798 59.000 50.895 57.438 51.694 56.639 C 52.820 55.513 54.000 55.954 54.000 57.500 M 111.000 51.059 C 111.000 51.577 110.325 52.000 109.500 52.000 C 107.954 52.000 107.513 50.820 108.639 49.694 C 109.438 48.895 111.000 49.798 111.000 51.059 M 66.000 72.500 C 66.000 73.325 65.550 74.000 65.000 74.000 C 64.450 74.000 64.000 73.325 64.000 72.500 C 64.000 71.675 64.450 71.000 65.000 71.000 C 65.550 71.000 66.000 71.675 66.000 72.500 M 155.000 32.000 C 155.000 32.550 154.325 33.000 153.500 33.000 C 152.675 33.000 152.000 32.550 152.000 32.000 C 152.000 31.450 152.675 31.000 153.500 31.000 C 154.325 31.000 155.000 31.450 155.000 32.000 M 212.447 195.085 C 212.125 195.606 211.436 195.769 210.915 195.447 C 210.394 195.125 210.231 194.436 210.553 193.915 C 210.875 193.394 211.564 193.231 212.085 193.553 C 212.606 193.875 212.769 194.564 212.447 195.085 M 54.000 189.000 C 54.000 189.550 53.298 190.000 52.441 190.000 C 51.584 190.000 51.160 189.550 51.500 189.000 C 51.840 188.450 52.541 188.000 53.059 188.000 C 53.577 188.000 54.000 188.450 54.000 189.000 M 73.073 98.000 C 71.833 98.000 71.657 96.679 72.750 95.577 C 73.163 95.161 73.645 95.536 73.823 96.410 C 74.001 97.285 73.664 98.000 73.073 98.000 M 121.000 42.941 C 121.000 43.459 120.550 44.160 120.000 44.500 C 119.450 44.840 119.000 44.416 119.000 43.559 C 119.000 42.702 119.450 42.000 120.000 42.000 C 120.550 42.000 121.000 42.423 121.000 42.941 M 48.000 140.000 C 48.000 140.550 47.550 141.000 47.000 141.000 C 46.450 141.000 46.000 140.550 46.000 140.000 C 46.000 139.450 46.450 139.000 47.000 139.000 C 47.550 139.000 48.000 139.450 48.000 140.000 M 222.000 136.000 C 222.000 136.550 221.550 137.000 221.000 137.000 C 220.450 137.000 220.000 136.550 220.000 136.000 C 220.000 135.450 220.450 135.000 221.000 135.000 C 221.550 135.000 222.000 135.450 222.000 136.000 M 95.087 57.446 C 94.462 57.833 94.000 57.371 94.000 56.359 C 94.000 55.092 94.304 54.904 95.087 55.687 C 95.870 56.470 95.870 56.962 95.087 57.446 "/></g>
<g fill="#093041FD" stroke="#093041FD">
<path d="M 125.803 55.663 C 120.136 58.542 115.725 60.974 116.000 61.067 C 116.275 61.160 116.154 61.181 115.732 61.112 C 115.310 61.044 110.585 63.358 105.232 66.255 C 99.879 69.152 92.350 73.053 88.500 74.924 C 84.650 76.795 81.275 78.590 81.000 78.913 C 80.725 79.236 79.827 79.649 79.003 79.832 C 75.300 80.654 73.181 86.000 76.559 86.000 C 77.540 86.000 77.840 86.463 77.367 87.250 C 76.929 87.979 77.402 87.874 78.500 87.000 C 79.598 86.126 80.071 86.021 79.633 86.750 C 79.054 87.713 80.943 88.000 87.858 88.000 C 92.869 88.000 96.981 88.436 97.167 88.987 C 97.350 89.529 97.344 92.484 97.154 95.552 C 96.783 101.522 97.237 101.041 89.082 104.100 C 80.738 107.230 73.038 118.856 72.972 128.428 C 72.948 131.848 72.226 133.272 68.460 137.326 C 65.994 139.980 64.204 142.521 64.482 142.971 C 64.761 143.422 64.295 144.057 63.447 144.382 C 62.600 144.707 62.022 145.542 62.163 146.237 C 62.304 146.931 61.781 148.625 61.000 150.000 C 60.110 151.567 59.592 155.315 59.612 160.047 C 59.638 166.332 60.133 168.591 62.571 173.547 C 64.182 176.821 66.317 180.253 67.316 181.174 C 68.314 182.095 69.078 183.138 69.012 183.491 C 68.808 184.595 76.191 190.000 77.119 189.426 C 77.604 189.127 78.000 189.385 78.000 190.000 C 78.000 190.615 78.399 190.871 78.887 190.570 C 79.374 190.269 80.299 190.655 80.941 191.429 C 81.699 192.342 83.404 192.686 85.804 192.410 C 88.372 192.114 89.054 192.273 88.040 192.931 C 86.964 193.629 87.421 193.854 89.774 193.787 C 92.250 193.717 94.054 194.712 97.796 198.212 C 103.269 203.332 106.591 205.371 108.021 204.487 C 108.559 204.154 109.000 204.411 109.000 205.058 C 109.000 205.741 109.838 206.014 111.000 205.710 C 112.100 205.423 113.000 205.552 113.000 205.997 C 113.000 206.442 115.138 206.684 117.750 206.536 C 120.363 206.387 122.275 206.155 122.000 206.022 C 121.725 205.888 122.513 205.861 123.750 205.961 C 124.988 206.061 126.000 205.634 126.000 205.013 C 126.000 204.391 126.438 204.153 126.973 204.484 C 127.509 204.814 128.746 204.151 129.723 203.010 C 130.767 201.791 131.506 201.464 131.515 202.218 C 131.527 203.234 131.695 203.240 132.324 202.250 C 132.761 201.563 133.654 201.000 134.309 200.999 C 135.163 200.999 135.448 203.812 135.317 210.933 C 135.178 218.507 135.475 221.149 136.567 222.056 C 139.011 224.084 140.635 221.555 140.887 215.329 C 141.014 212.188 141.319 209.292 141.565 208.894 C 141.811 208.496 141.447 207.942 140.756 207.662 C 139.806 207.276 139.865 206.894 141.000 206.091 C 142.017 205.372 142.097 205.026 141.250 205.015 C 140.563 205.007 140.000 204.523 140.000 203.941 C 140.000 203.359 140.450 203.160 141.000 203.500 C 141.550 203.840 142.000 203.641 142.000 203.059 C 142.000 202.477 141.475 202.000 140.833 202.000 C 140.192 202.000 139.972 201.695 140.345 201.322 C 140.717 200.949 142.751 201.616 144.864 202.803 C 146.976 203.991 148.996 204.671 149.352 204.314 C 149.709 203.958 150.000 204.240 150.000 204.940 C 150.000 205.641 150.631 205.972 151.402 205.676 C 152.173 205.380 153.111 205.444 153.485 205.819 C 154.527 206.861 163.040 206.874 162.396 205.832 C 162.072 205.307 162.993 205.211 164.565 205.606 C 166.373 206.060 167.078 205.935 166.648 205.239 C 166.235 204.571 166.786 204.393 168.155 204.751 C 169.525 205.109 170.075 204.931 169.662 204.262 C 169.304 203.683 169.679 202.954 170.494 202.641 C 171.309 202.328 171.869 202.547 171.738 203.128 C 171.607 203.709 172.323 202.979 173.330 201.505 C 174.336 200.032 175.422 199.089 175.743 199.410 C 176.064 199.730 177.093 198.732 178.031 197.190 C 179.477 194.811 180.473 194.350 184.617 194.140 C 187.303 194.004 189.634 193.515 189.798 193.053 C 189.962 192.590 191.045 192.460 192.204 192.764 C 193.548 193.115 194.074 192.929 193.655 192.251 C 193.234 191.569 193.772 191.389 195.155 191.751 C 196.525 192.109 197.075 191.931 196.662 191.262 C 196.304 190.683 196.679 189.954 197.494 189.641 C 198.338 189.317 198.873 189.584 198.738 190.261 C 198.607 190.914 200.075 189.834 202.000 187.861 C 203.925 185.887 206.400 183.912 207.500 183.472 C 208.845 182.935 209.009 182.636 208.000 182.560 C 206.841 182.473 206.918 182.206 208.340 181.384 C 209.351 180.799 210.251 179.911 210.340 179.410 C 210.428 178.910 210.789 178.596 211.142 178.714 C 212.470 179.157 216.154 168.751 215.539 166.298 C 215.141 164.713 215.291 164.062 215.960 164.475 C 216.628 164.888 217.000 163.289 217.000 160.000 C 217.000 156.599 216.639 155.105 215.923 155.547 C 215.207 155.990 215.011 155.168 215.338 153.093 C 215.638 151.192 215.296 149.439 214.463 148.605 C 213.711 147.853 213.343 146.991 213.645 146.688 C 214.397 145.936 210.809 140.000 209.930 140.543 C 209.544 140.782 208.985 140.049 208.688 138.915 C 208.391 137.780 207.220 136.609 206.085 136.312 C 204.951 136.015 204.240 135.421 204.506 134.991 C 204.771 134.561 204.388 133.979 203.654 133.697 C 202.773 133.359 202.481 132.085 202.794 129.951 C 203.099 127.874 202.898 126.945 202.234 127.355 C 201.576 127.762 201.318 126.722 201.525 124.497 C 201.703 122.574 201.448 121.000 200.956 121.000 C 200.465 121.000 200.350 120.251 200.701 119.336 C 201.131 118.217 200.957 117.909 200.170 118.395 C 199.130 119.038 198.490 117.227 198.882 114.750 C 198.947 114.338 198.564 114.000 198.031 114.000 C 197.499 114.000 197.304 113.371 197.600 112.601 C 197.895 111.832 197.716 110.943 197.202 110.625 C 196.689 110.308 196.485 108.912 196.751 107.524 C 197.016 106.136 196.773 105.000 196.210 105.000 C 195.648 105.000 195.441 104.030 195.751 102.844 C 196.162 101.274 195.971 100.900 195.050 101.469 C 194.101 102.055 193.968 101.657 194.517 99.875 C 194.919 98.569 194.896 97.834 194.466 98.241 C 194.036 98.649 193.080 98.481 192.342 97.869 C 191.349 97.045 190.610 97.079 189.500 98.000 C 188.675 98.685 187.947 99.077 187.882 98.872 C 187.816 98.668 187.816 98.838 187.882 99.250 C 187.947 99.663 187.550 100.000 187.000 100.000 C 186.450 100.000 186.113 100.563 186.250 101.250 C 186.396 101.978 185.665 102.393 184.500 102.243 C 183.400 102.102 181.713 101.894 180.750 101.781 C 179.275 101.607 179.000 100.506 179.000 94.787 L 179.000 88.000 183.994 88.000 C 188.438 88.000 188.954 88.222 188.679 90.019 C 188.510 91.129 188.063 91.729 187.686 91.352 C 187.309 90.975 187.000 91.769 187.000 93.115 C 187.000 95.069 187.555 95.606 189.750 95.772 C 191.901 95.935 192.173 95.758 191.000 94.960 C 189.866 94.188 190.130 94.085 192.083 94.536 C 193.992 94.977 194.667 94.735 194.667 93.610 C 194.667 92.772 194.074 91.859 193.350 91.581 C 191.140 90.733 193.044 88.001 195.857 87.985 C 197.311 87.976 199.175 87.513 200.000 86.954 C 201.114 86.200 200.729 86.081 198.500 86.493 C 195.875 86.977 195.781 86.922 197.750 86.055 C 198.988 85.510 200.007 84.487 200.015 83.782 C 200.026 82.885 200.321 82.950 201.000 84.000 C 201.533 84.825 201.969 85.050 201.969 84.500 C 201.969 83.950 201.639 82.981 201.235 82.346 C 199.943 80.317 171.099 65.821 169.868 66.582 C 169.192 67.000 168.956 66.880 169.314 66.301 C 170.088 65.048 165.250 62.728 163.771 63.642 C 163.171 64.012 162.977 63.847 163.333 63.271 C 163.897 62.358 159.027 59.566 157.507 59.932 C 157.189 60.009 156.238 59.380 155.393 58.536 C 154.548 57.691 153.205 57.000 152.409 57.000 C 151.612 57.000 149.178 55.875 147.000 54.500 C 144.822 53.125 142.356 52.000 141.520 52.000 C 140.684 52.000 140.000 51.646 140.000 51.214 C 140.000 49.343 135.417 50.779 125.803 55.663 M 127.361 95.306 C 126.731 95.936 127.241 96.079 131.250 96.400 C 134.859 96.689 135.063 99.060 134.271 131.586 C 133.459 164.969 133.664 167.000 137.857 167.000 C 139.767 167.000 142.000 165.172 142.000 163.609 C 142.000 163.064 141.408 163.428 140.684 164.418 C 139.021 166.692 135.618 166.113 135.225 163.489 C 134.952 161.668 135.018 161.648 136.013 163.250 C 137.387 165.463 138.545 165.459 140.750 163.234 C 142.131 161.839 142.473 159.891 142.371 153.984 C 142.300 149.868 142.188 136.911 142.121 125.191 C 142.050 112.639 141.625 104.114 141.088 104.446 C 140.586 104.756 140.276 104.323 140.400 103.483 C 140.523 102.644 140.976 102.304 141.407 102.728 C 141.838 103.153 142.071 102.150 141.925 100.500 C 141.753 98.560 142.161 97.385 143.079 97.175 C 143.861 96.996 144.634 96.482 144.798 96.031 C 144.962 95.581 146.087 95.429 147.298 95.693 C 148.849 96.031 149.113 95.898 148.190 95.241 C 147.333 94.631 149.159 94.360 153.468 94.460 C 157.091 94.543 159.743 94.924 159.361 95.306 C 158.722 95.945 160.712 96.381 163.750 96.269 C 164.438 96.243 165.000 96.539 165.000 96.925 C 165.000 97.312 167.008 99.133 169.462 100.971 C 171.916 102.810 173.689 104.694 173.403 105.157 C 173.116 105.621 173.385 106.000 174.000 106.000 C 174.615 106.000 174.801 106.512 174.414 107.138 C 173.909 107.956 174.766 108.079 177.454 107.575 C 179.743 107.145 180.969 107.241 180.610 107.823 C 180.287 108.345 180.950 109.015 182.083 109.311 C 183.724 109.741 184.050 110.448 183.681 112.787 C 183.426 114.403 182.690 116.711 182.044 117.918 C 181.399 119.124 181.089 120.648 181.356 121.305 C 181.623 121.962 181.878 121.643 181.921 120.595 C 181.993 118.850 182.147 118.822 183.750 120.259 C 184.846 121.243 187.104 121.767 189.794 121.664 C 194.497 121.484 194.273 121.156 195.501 130.000 C 195.844 132.475 196.239 135.295 196.378 136.268 C 196.518 137.240 196.839 137.827 197.093 137.573 C 197.347 137.319 199.793 139.190 202.528 141.730 C 205.262 144.270 206.825 145.971 206.000 145.510 C 205.175 145.050 205.738 145.850 207.250 147.289 C 208.763 148.727 209.984 150.488 209.965 151.202 C 209.945 151.916 209.286 151.375 208.500 150.000 C 206.789 147.007 206.494 148.188 208.171 151.316 C 209.531 153.852 209.918 167.000 208.633 167.000 C 208.157 167.000 208.019 167.966 208.328 169.148 C 209.132 172.221 205.452 179.000 202.980 179.000 C 201.891 179.000 201.000 179.450 201.000 180.000 C 201.000 180.550 201.502 180.887 202.115 180.750 C 202.729 180.613 201.224 181.865 198.771 183.533 C 194.980 186.112 193.486 186.535 188.803 186.356 C 185.774 186.241 181.706 185.848 179.762 185.483 C 177.819 185.119 175.966 185.246 175.645 185.766 C 175.314 186.301 176.239 186.548 177.780 186.334 C 180.342 185.979 180.369 186.015 178.250 186.946 C 176.795 187.586 176.000 188.804 176.000 190.395 C 176.000 192.038 174.756 193.848 172.250 195.847 C 170.052 197.602 168.842 198.149 169.327 197.170 C 169.782 196.252 169.849 195.868 169.476 196.318 C 169.103 196.768 168.145 196.886 167.347 196.580 C 166.537 196.269 166.166 196.459 166.507 197.011 C 166.843 197.555 166.529 198.007 165.809 198.015 C 164.859 198.026 164.912 198.294 166.000 198.990 C 167.015 199.639 165.723 199.790 162.000 199.457 C 158.097 199.107 157.081 199.239 158.500 199.912 C 160.297 200.763 160.216 200.867 157.691 200.930 C 155.806 200.977 155.117 200.619 155.597 199.842 C 156.093 199.040 155.610 198.869 154.021 199.284 C 152.327 199.727 150.963 199.117 148.788 196.942 C 147.170 195.324 145.993 193.948 146.173 193.885 C 146.353 193.822 145.741 193.845 144.813 193.937 C 143.885 194.029 142.623 193.068 142.008 191.802 C 140.939 189.601 140.958 189.586 142.445 191.441 C 144.375 193.851 144.520 192.093 142.606 189.476 C 141.667 188.192 141.490 186.841 142.063 185.333 C 142.754 183.517 142.617 183.210 141.335 183.702 C 140.051 184.194 140.096 183.910 141.574 182.184 C 142.877 180.663 144.117 180.217 145.946 180.611 C 147.942 181.041 148.172 180.929 147.000 180.096 C 145.440 178.988 145.344 179.025 150.826 178.590 C 151.555 178.532 151.780 178.079 151.326 177.583 C 150.848 177.061 151.224 176.941 152.218 177.297 C 153.163 177.636 154.245 177.413 154.622 176.802 C 155.073 176.072 154.827 175.969 153.905 176.500 C 153.132 176.945 153.806 175.906 155.403 174.190 C 157.000 172.475 158.656 171.287 159.084 171.552 C 159.512 171.816 160.187 171.506 160.585 170.862 C 161.037 170.131 160.876 169.959 160.155 170.405 C 159.520 170.797 159.000 170.668 159.000 170.118 C 159.000 169.568 159.472 168.826 160.049 168.470 C 161.294 167.700 159.396 164.991 157.628 165.015 C 156.980 165.024 157.089 165.404 157.885 165.908 C 158.996 166.611 158.861 167.004 157.201 167.893 C 154.250 169.472 153.558 169.265 155.055 167.250 C 155.770 166.288 155.203 166.661 153.794 168.080 C 152.386 169.499 149.831 171.241 148.117 171.952 C 146.403 172.662 144.998 173.526 144.996 173.871 C 144.994 174.217 141.507 174.462 137.246 174.415 C 130.011 174.335 126.558 173.958 130.000 173.624 C 130.825 173.543 130.375 173.056 129.000 172.541 C 127.625 172.025 126.163 171.693 125.750 171.802 C 125.338 171.911 125.000 171.523 125.000 170.941 C 125.000 170.359 124.480 170.203 123.845 170.595 C 123.190 171.001 122.960 170.873 123.315 170.300 C 124.166 168.922 119.466 164.656 117.821 165.314 C 116.894 165.685 116.985 165.866 118.128 165.921 C 119.023 165.964 120.373 166.788 121.128 167.750 C 122.347 169.305 122.320 169.359 120.881 168.236 C 119.991 167.541 118.227 167.130 116.963 167.323 C 115.233 167.587 114.993 167.900 115.992 168.587 C 116.752 169.109 116.824 169.393 116.160 169.250 C 114.244 168.837 114.852 170.851 116.990 171.995 C 118.085 172.580 118.931 173.384 118.872 173.780 C 118.812 174.176 118.816 174.351 118.882 174.168 C 119.107 173.539 126.502 178.394 127.300 179.695 C 127.740 180.413 128.865 180.968 129.800 180.930 C 131.197 180.872 131.143 180.706 129.500 180.000 C 127.173 179.000 128.511 178.762 131.681 179.612 C 133.495 180.099 133.906 181.022 134.122 185.089 C 134.323 188.873 134.112 189.712 133.191 188.791 C 132.328 187.928 132.000 187.914 132.000 188.741 C 132.000 189.369 132.522 190.246 133.160 190.691 C 134.000 191.276 133.966 191.420 133.038 191.209 C 132.232 191.026 131.982 191.511 132.366 192.511 C 132.720 193.433 132.561 193.847 131.989 193.493 C 131.445 193.157 131.000 193.436 131.000 194.112 C 131.000 195.589 128.059 199.000 126.786 199.000 C 126.289 199.000 126.220 198.438 126.633 197.750 C 127.106 196.962 126.733 197.028 125.624 197.929 C 123.589 199.581 112.909 199.471 111.869 197.788 C 111.514 197.214 110.814 196.997 110.314 197.306 C 109.814 197.615 108.751 197.455 107.952 196.949 C 106.694 196.153 106.700 196.020 108.000 195.952 C 108.884 195.906 108.589 195.506 107.282 194.981 C 105.825 194.395 104.828 194.469 104.377 195.199 C 103.933 195.918 104.152 196.024 105.000 195.500 C 105.891 194.949 106.068 195.080 105.555 195.911 C 104.993 196.820 104.319 196.668 102.905 195.315 C 101.559 194.027 101.449 193.645 102.528 194.000 C 104.298 194.582 97.327 188.829 95.040 187.820 C 93.694 187.226 93.705 187.132 95.128 187.070 C 96.023 187.032 97.342 187.707 98.059 188.571 C 99.224 189.975 99.386 189.978 99.588 188.599 C 99.884 186.584 94.531 185.562 87.487 186.289 C 84.563 186.591 81.882 186.549 81.528 186.195 C 81.175 185.841 81.699 185.505 82.693 185.447 C 84.396 185.348 83.271 184.902 80.500 184.579 C 79.950 184.514 79.275 184.020 79.000 183.481 C 78.725 182.941 77.967 182.494 77.316 182.487 C 75.006 182.463 71.017 178.118 71.692 176.361 C 72.126 175.228 71.959 174.908 71.181 175.388 C 70.425 175.856 70.229 175.566 70.618 174.552 C 70.995 173.571 70.657 173.000 69.701 173.000 C 68.674 173.000 68.322 172.276 68.605 170.750 C 68.869 169.327 68.755 169.051 68.296 170.000 C 67.801 171.024 67.545 170.618 67.488 168.718 C 67.426 166.599 67.965 165.796 69.750 165.348 C 71.039 165.024 72.368 165.035 72.705 165.371 C 73.484 166.150 76.000 164.100 76.000 162.686 C 76.000 162.099 75.339 162.491 74.532 163.559 C 72.860 165.769 72.508 164.789 73.983 162.032 C 74.821 160.466 74.651 160.278 72.826 160.756 C 71.458 161.113 70.924 160.931 71.345 160.251 C 71.760 159.580 71.261 159.381 69.996 159.711 C 67.262 160.426 64.598 158.190 66.070 156.415 C 66.673 155.690 66.855 154.118 66.475 152.923 C 66.047 151.572 66.164 150.983 66.786 151.368 C 67.752 151.965 69.497 147.609 69.162 145.438 C 69.072 144.854 70.461 143.054 72.249 141.438 L 75.500 138.500 73.000 141.546 C 71.063 143.907 71.285 143.795 73.989 141.050 C 75.908 139.102 78.045 137.639 78.739 137.798 C 79.432 137.957 80.000 137.588 80.000 136.976 C 80.000 136.347 80.809 136.122 81.865 136.457 C 83.347 136.928 83.681 136.583 83.492 134.774 C 83.109 131.094 83.057 130.989 81.750 131.250 C 80.882 131.424 80.486 129.898 80.453 126.250 C 80.427 123.363 80.751 121.000 81.172 121.000 C 81.593 121.000 81.691 120.358 81.390 119.574 C 81.064 118.724 81.966 117.413 83.628 116.324 C 85.159 115.321 85.800 114.500 85.052 114.500 C 83.979 114.500 84.008 114.238 85.188 113.259 C 86.011 112.576 86.970 112.303 87.318 112.652 C 87.667 113.001 88.236 112.549 88.581 111.649 C 88.927 110.748 89.612 110.260 90.105 110.565 C 90.597 110.869 91.000 110.615 91.000 110.000 C 91.000 109.385 91.450 109.160 92.000 109.500 C 92.550 109.840 93.000 109.656 93.000 109.090 C 93.000 108.525 93.749 108.350 94.664 108.701 C 95.823 109.146 96.096 108.965 95.566 108.106 C 94.988 107.172 95.737 107.027 98.652 107.511 C 101.505 107.985 102.112 107.876 101.000 107.090 C 100.013 106.393 99.921 106.025 100.731 106.015 C 101.408 106.007 102.244 104.875 102.589 103.500 C 102.934 102.125 103.645 101.000 104.167 101.000 C 104.690 101.000 104.814 101.563 104.443 102.250 C 104.072 102.938 105.368 101.816 107.325 99.759 C 109.596 97.371 111.443 96.233 112.433 96.613 C 113.312 96.950 114.223 96.581 114.539 95.760 C 114.953 94.680 116.739 94.351 121.575 94.462 C 125.139 94.544 127.743 94.924 127.361 95.306 M 145.500 68.489 C 148.800 70.271 154.425 73.314 158.000 75.251 C 165.008 79.047 166.502 81.683 163.515 84.983 C 162.196 86.441 162.130 86.962 163.180 87.611 C 163.918 88.067 160.124 88.543 154.495 88.700 C 145.277 88.958 137.624 89.578 140.000 89.875 C 140.550 89.944 141.000 90.477 141.000 91.059 C 141.000 91.641 140.550 91.840 140.000 91.500 C 139.450 91.160 139.000 91.333 139.000 91.885 C 139.000 92.436 136.878 91.949 134.283 90.801 C 129.786 88.812 118.968 87.919 115.000 89.210 C 108.157 91.436 105.000 93.160 105.000 94.669 C 105.000 95.401 104.586 96.000 104.080 96.000 C 103.059 96.000 101.612 84.746 102.155 81.031 C 102.442 79.067 105.457 77.197 119.979 69.976 C 136.532 61.746 137.512 61.391 138.479 63.267 C 139.041 64.357 142.200 66.707 145.500 68.489 M 199.014 144.333 C 199.006 143.692 199.563 142.998 200.250 142.793 C 201.244 142.495 201.247 142.733 200.264 143.959 C 199.530 144.874 199.022 145.026 199.014 144.333 M 147.045 71.848 C 146.264 71.588 145.412 70.736 145.152 69.955 C 144.854 69.063 145.381 69.238 146.571 70.429 C 147.762 71.619 147.938 72.146 147.045 71.848 M 146.200 197.000 C 145.540 197.000 145.000 196.460 145.000 195.800 C 145.000 194.867 145.267 194.867 146.200 195.800 C 147.133 196.733 147.133 197.000 146.200 197.000 M 147.613 174.157 C 146.224 174.963 145.910 174.955 146.422 174.126 C 146.805 173.507 147.654 173.014 148.309 173.030 C 148.964 173.047 148.651 173.554 147.613 174.157 "/></g>
<g fill="#FDB494FD" stroke="#FDB494FD">
<path d="M 115.762 103.873 C 113.326 104.609 109.719 108.537 107.987 112.341 C 106.284 116.084 106.096 116.187 100.724 116.341 C 93.056 116.562 89.145 120.380 87.476 129.276 C 87.094 131.314 86.386 132.739 85.904 132.441 C 85.406 132.133 85.392 132.884 85.870 134.177 C 86.333 135.430 88.015 137.174 89.606 138.053 C 93.478 140.191 93.839 143.515 90.570 146.927 C 89.141 148.419 88.278 149.945 88.653 150.319 C 89.027 150.694 88.843 151.000 88.244 151.000 C 86.505 151.000 84.743 157.791 85.438 161.815 C 85.898 164.482 85.792 165.086 85.052 164.000 C 83.396 161.569 83.852 153.713 85.880 149.735 C 87.464 146.628 87.543 145.866 86.381 144.901 C 84.433 143.285 79.506 145.481 76.913 149.123 C 74.370 152.693 73.436 158.077 74.888 160.790 C 76.402 163.619 75.270 166.000 72.412 166.000 C 68.700 166.000 68.285 169.907 71.462 174.939 C 72.905 177.225 74.854 179.382 75.793 179.732 C 76.732 180.082 78.093 181.193 78.818 182.201 C 79.544 183.209 80.556 183.774 81.068 183.458 C 81.581 183.141 82.000 183.411 82.000 184.058 C 82.000 184.741 82.838 185.014 84.001 184.710 C 85.102 184.422 85.751 184.595 85.442 185.093 C 85.130 185.598 87.676 186.007 91.191 186.015 C 98.370 186.033 99.153 186.381 101.096 190.421 C 101.976 192.253 103.806 193.794 106.000 194.552 C 107.925 195.217 109.393 196.248 109.262 196.844 C 109.131 197.440 109.694 197.671 110.512 197.357 C 111.330 197.043 112.000 197.284 112.000 197.893 C 112.000 198.576 114.204 198.994 117.750 198.985 C 122.094 198.973 123.133 198.709 122.000 197.904 C 120.829 197.072 121.063 196.960 123.066 197.392 C 124.655 197.735 126.560 197.292 128.066 196.230 C 129.470 195.241 129.906 194.512 129.096 194.507 C 128.011 194.502 128.068 194.188 129.346 193.128 C 130.256 192.373 131.014 192.148 131.030 192.628 C 131.047 193.107 131.554 192.651 132.157 191.613 C 132.959 190.232 132.954 189.910 132.138 190.415 C 131.431 190.852 131.240 190.539 131.616 189.558 C 131.943 188.707 132.612 188.260 133.105 188.565 C 133.597 188.869 134.000 187.727 134.000 186.028 C 134.000 183.957 133.422 182.758 132.250 182.396 C 131.288 182.098 129.719 181.437 128.764 180.927 C 127.809 180.417 126.326 180.000 125.468 180.000 C 124.611 180.000 122.849 178.940 121.554 177.645 C 120.259 176.350 118.498 175.021 117.641 174.692 C 115.206 173.758 113.988 167.783 115.927 166.282 C 118.495 164.293 120.665 164.814 123.411 168.077 C 124.835 169.769 126.000 170.824 126.000 170.422 C 126.000 170.019 126.933 170.534 128.073 171.566 C 129.554 172.907 132.102 173.553 136.986 173.829 C 143.314 174.187 144.164 173.983 148.338 171.111 C 150.820 169.404 153.559 167.298 154.425 166.432 C 155.291 165.566 156.007 165.227 156.015 165.679 C 156.024 166.130 156.439 165.854 156.939 165.064 C 158.278 162.948 161.000 165.507 161.000 168.883 C 161.000 171.351 156.903 177.000 155.113 177.000 C 154.669 177.000 153.268 177.900 152.000 179.000 C 150.732 180.100 148.429 181.000 146.882 181.000 C 143.873 181.000 142.000 183.300 142.000 186.993 C 142.000 188.361 142.417 188.860 143.170 188.395 C 143.939 187.920 144.136 188.202 143.745 189.221 C 142.996 191.174 145.792 195.294 147.438 194.662 C 148.114 194.403 149.481 195.272 150.474 196.595 C 152.015 198.647 153.125 199.000 158.033 199.000 C 162.224 199.000 163.942 198.593 164.362 197.500 C 164.678 196.675 165.514 196.007 166.219 196.015 C 167.115 196.026 167.049 196.322 166.000 197.000 C 165.175 197.533 164.897 197.976 165.382 197.985 C 166.583 198.006 172.981 194.001 173.077 193.168 C 173.881 186.138 174.815 185.534 184.908 185.516 C 193.505 185.501 194.108 185.357 196.528 182.750 C 197.932 181.238 199.495 180.000 200.002 180.000 C 201.758 180.000 205.103 175.501 204.646 173.754 C 204.393 172.788 204.604 172.255 205.114 172.571 C 206.821 173.625 209.000 166.144 209.000 159.232 C 209.000 152.229 208.009 150.000 204.895 150.000 C 203.483 150.000 203.283 150.688 203.727 154.000 C 204.411 159.104 202.690 159.245 201.181 154.208 C 200.556 152.123 198.683 149.113 197.019 147.519 C 194.433 145.041 193.173 144.612 188.331 144.560 C 181.732 144.490 180.715 143.194 184.381 139.528 C 186.122 137.787 187.999 137.000 190.409 137.000 C 193.632 137.000 193.963 136.716 194.580 133.423 C 195.424 128.928 193.686 124.758 191.147 125.188 C 190.135 125.360 188.676 124.998 187.904 124.384 C 187.132 123.771 185.150 122.832 183.500 122.298 C 181.850 121.764 180.488 120.692 180.474 119.914 C 180.427 117.444 178.919 115.942 176.675 116.129 C 170.877 116.614 169.519 115.968 167.500 111.766 C 166.400 109.477 164.326 106.753 162.892 105.713 C 160.108 103.694 150.000 102.468 150.000 104.149 C 150.000 104.682 149.573 104.854 149.050 104.531 C 148.528 104.208 147.624 104.835 147.041 105.923 C 146.170 107.551 146.459 108.345 148.671 110.395 L 151.359 112.888 149.279 114.694 C 146.716 116.919 143.227 136.842 142.569 153.000 C 142.070 165.276 141.571 167.000 138.515 167.000 C 134.748 167.000 133.900 164.732 133.404 153.329 C 133.145 147.382 132.297 140.371 131.518 137.750 C 130.740 135.128 129.791 129.144 129.411 124.450 C 128.838 117.392 128.357 115.663 126.627 114.451 L 124.535 112.986 127.277 110.444 C 129.518 108.366 129.828 107.547 128.974 105.951 C 128.400 104.878 127.608 103.952 127.215 103.893 C 125.002 103.563 116.836 103.549 115.762 103.873 M 112.828 141.983 C 113.016 142.549 113.582 142.758 114.085 142.447 C 114.588 142.136 115.000 142.584 115.000 143.441 C 115.000 144.298 115.430 145.000 115.955 145.000 C 117.271 145.000 118.395 151.587 117.446 153.742 C 117.021 154.709 116.634 155.757 116.586 156.071 C 116.110 159.222 107.879 161.958 102.810 160.652 C 100.067 159.944 96.994 154.918 97.014 151.169 C 97.033 147.428 98.080 143.931 99.009 144.506 C 99.439 144.771 100.053 144.305 100.373 143.470 C 100.693 142.635 101.978 141.520 103.228 140.993 C 105.924 139.855 112.339 140.516 112.828 141.983 M 173.500 141.242 C 178.687 145.368 179.269 146.207 179.714 150.221 C 180.105 153.750 179.752 155.006 177.695 157.387 C 174.372 161.233 166.803 162.115 163.000 159.098 C 160.810 157.361 160.500 156.338 160.500 150.850 C 160.500 144.853 160.644 144.487 163.867 142.313 C 167.138 140.106 171.467 139.625 173.500 141.242 M 151.896 195.436 C 151.385 195.120 151.274 194.365 151.650 193.758 C 152.077 193.066 152.424 193.281 152.578 194.332 C 152.714 195.255 152.407 195.751 151.896 195.436 "/></g>
<g fill="#91A9B4FD" stroke="#91A9B4FD">
<path d="M 121.250 71.291 L 107.000 78.468 107.015 85.484 C 107.025 89.871 107.358 91.984 107.904 91.122 C 108.412 90.319 109.305 90.070 110.043 90.526 C 110.925 91.072 111.061 90.908 110.490 89.985 C 109.896 89.023 110.128 88.835 111.336 89.299 C 112.251 89.650 113.000 89.471 113.000 88.901 C 113.000 88.331 113.862 88.139 114.916 88.473 C 115.970 88.808 117.121 88.613 117.475 88.041 C 118.306 86.695 125.686 86.684 126.516 88.027 C 126.865 88.591 127.679 88.969 128.325 88.866 C 128.971 88.763 130.850 89.241 132.500 89.928 C 136.805 91.721 138.481 91.941 140.085 90.926 C 141.112 90.276 141.158 89.992 140.250 89.890 C 137.658 89.599 145.854 88.924 154.992 88.675 C 160.334 88.530 163.912 88.064 163.177 87.609 C 162.131 86.963 162.199 86.438 163.515 84.983 C 166.296 81.911 164.990 79.008 159.500 76.055 C 143.259 67.319 140.409 65.727 139.550 64.907 C 137.838 63.273 135.672 64.029 121.250 71.291 M 142.872 69.960 C 141.977 69.982 140.627 69.253 139.872 68.340 C 138.596 66.797 138.710 66.794 141.500 68.300 C 143.300 69.272 143.849 69.936 142.872 69.960 "/></g>
<g fill="#093041FD" stroke="#093041FD">
<path d="M 91.744 229.750 C 91.539 230.163 91.399 231.175 91.435 232.000 C 91.492 233.306 97.309 233.536 136.364 233.778 C 170.078 233.987 181.586 233.758 182.670 232.859 C 183.816 231.908 184.051 231.953 183.813 233.081 C 183.648 233.861 183.888 233.734 184.345 232.798 C 184.803 231.862 184.886 230.624 184.530 230.048 C 183.774 228.826 92.351 228.533 91.744 229.750 "/></g>
<g fill="#093041FD" stroke="#093041FD">
<path d="M 170.000 140.797 C 168.625 140.960 166.150 141.635 164.500 142.297 C 162.163 143.234 161.942 143.530 163.500 143.635 C 165.369 143.762 165.358 143.817 163.319 144.484 C 161.871 144.957 161.340 145.723 161.739 146.763 C 162.079 147.649 161.918 148.067 161.367 147.727 C 160.794 147.372 160.435 148.757 160.494 151.099 C 160.549 153.285 160.982 154.719 161.456 154.286 C 161.931 153.854 162.048 154.257 161.717 155.181 C 161.262 156.453 161.596 156.770 163.084 156.484 C 164.167 156.275 164.788 156.534 164.463 157.059 C 164.139 157.584 164.574 158.283 165.431 158.612 C 166.288 158.941 166.797 159.519 166.563 159.897 C 166.330 160.276 167.490 160.688 169.141 160.814 C 170.793 160.940 171.911 160.666 171.627 160.205 C 171.342 159.744 172.434 158.584 174.054 157.627 C 175.674 156.670 177.052 156.025 177.115 156.193 C 177.332 156.769 177.695 154.503 177.947 151.000 C 178.183 147.729 178.252 147.663 179.000 150.000 C 179.571 151.783 179.829 151.979 179.900 150.684 C 179.955 149.686 179.453 147.886 178.785 146.684 C 177.983 145.241 177.554 145.009 177.520 146.000 C 177.482 147.127 177.272 147.189 176.676 146.250 C 176.239 145.563 176.131 144.597 176.435 144.105 C 176.740 143.612 176.293 142.943 175.442 142.616 C 174.461 142.240 174.148 142.431 174.585 143.138 C 175.048 143.886 174.818 143.965 173.887 143.376 C 173.124 142.894 172.500 142.050 172.500 141.500 C 172.500 140.950 171.375 140.633 170.000 140.797 M 174.352 146.314 C 173.975 146.691 174.223 147.000 174.903 147.000 C 175.613 147.000 176.003 147.958 175.820 149.250 C 175.379 152.353 169.512 152.585 169.486 149.500 C 169.461 146.647 170.902 144.998 173.123 145.337 C 174.176 145.497 174.729 145.937 174.352 146.314 "/></g>
<g fill="#E9FDFDFD" stroke="#E9FDFDFD">
<path d="M 112.148 98.322 C 111.236 99.420 111.310 100.012 112.477 100.981 C 114.393 102.571 113.358 104.327 110.886 103.680 C 109.847 103.409 109.218 103.544 109.488 103.980 C 109.757 104.416 109.298 105.338 108.466 106.028 C 107.191 107.086 107.047 106.986 107.546 105.391 C 107.928 104.172 107.632 104.347 106.712 105.885 C 105.740 107.509 105.052 107.893 104.553 107.087 C 103.480 105.350 100.807 107.817 101.477 109.927 C 101.842 111.079 101.400 111.571 99.999 111.571 C 98.900 111.571 98.000 111.293 98.000 110.952 C 98.000 109.882 94.535 110.250 93.765 111.401 C 92.668 113.043 92.850 114.031 94.197 113.750 C 94.856 113.613 94.158 114.354 92.646 115.399 C 90.576 116.828 89.614 117.014 88.749 116.149 C 88.117 115.517 87.128 115.014 86.550 115.030 C 85.973 115.047 86.288 115.519 87.250 116.080 C 88.213 116.641 89.000 117.554 89.000 118.109 C 89.000 118.664 88.438 118.780 87.750 118.367 C 87.021 117.929 87.126 118.402 88.000 119.500 C 88.874 120.598 88.979 121.071 88.250 120.633 C 87.551 120.213 87.000 120.369 87.000 120.989 C 87.000 121.597 85.809 123.199 84.354 124.548 C 82.453 126.309 82.148 127.000 83.271 127.000 C 84.130 127.000 85.060 126.438 85.338 125.750 C 85.694 124.868 85.865 124.925 85.921 125.946 C 85.964 126.741 87.356 125.253 89.014 122.639 C 92.490 117.158 97.507 114.496 102.755 115.348 C 105.158 115.738 106.231 115.483 106.552 114.446 C 107.529 111.293 107.748 110.468 107.819 109.683 C 107.974 107.976 115.358 103.023 118.676 102.401 C 123.189 101.554 127.893 102.953 129.703 105.680 C 131.002 107.636 130.939 108.061 129.073 109.927 C 126.713 112.287 126.462 113.111 128.214 112.750 C 130.074 112.367 131.615 108.864 131.520 105.232 C 131.451 102.573 131.194 102.201 130.141 103.232 C 129.083 104.269 129.072 103.999 130.084 101.750 C 130.764 100.238 131.699 98.933 132.161 98.850 C 132.622 98.768 132.550 98.700 132.000 98.700 C 129.621 98.700 128.921 99.064 129.500 100.000 C 129.840 100.550 129.228 101.000 128.141 101.000 C 125.259 101.000 122.927 99.927 123.565 98.895 C 123.869 98.403 122.328 98.000 120.141 98.000 C 117.953 98.000 115.524 97.755 114.742 97.454 C 113.960 97.154 112.793 97.545 112.148 98.322 M 104.901 110.561 C 104.116 111.046 104.187 111.536 105.143 112.219 C 106.184 112.963 106.100 113.060 104.782 112.638 C 103.837 112.335 102.798 112.518 102.473 113.044 C 101.739 114.232 97.000 114.317 97.000 113.142 C 97.000 112.670 98.238 112.333 99.750 112.392 C 101.839 112.474 102.525 112.019 102.602 110.500 C 102.779 107.028 102.964 106.821 104.508 108.365 C 105.560 109.418 105.679 110.080 104.901 110.561 M 116.500 101.000 C 116.840 101.550 116.668 102.000 116.118 102.000 C 115.568 102.000 114.840 101.550 114.500 101.000 C 114.160 100.450 114.332 100.000 114.882 100.000 C 115.432 100.000 116.160 100.450 116.500 101.000 "/></g>
<g fill="#093041FD" stroke="#093041FD">
<path d="M 104.391 141.424 C 104.061 142.285 103.429 142.765 102.986 142.492 C 102.544 142.218 101.002 143.397 99.560 145.111 C 97.697 147.326 97.133 148.846 97.613 150.364 C 98.570 153.390 100.982 156.883 102.880 157.993 C 103.771 158.513 103.970 158.953 103.323 158.970 C 102.675 158.986 101.212 157.814 100.073 156.365 C 98.933 154.916 98.000 154.099 98.000 154.551 C 98.000 155.002 98.957 156.390 100.127 157.635 C 102.252 159.898 103.076 159.959 110.732 158.420 C 113.295 157.905 116.435 152.577 115.545 150.256 C 115.019 148.887 114.781 148.917 113.628 150.494 C 112.664 151.812 111.599 152.116 109.656 151.628 C 108.195 151.262 107.014 150.408 107.032 149.731 C 107.080 147.874 109.306 145.500 111.000 145.500 C 111.825 145.500 113.064 146.175 113.752 147.000 C 114.825 148.284 114.908 148.225 114.333 146.586 C 113.816 145.115 113.988 144.865 115.080 145.508 C 115.897 145.989 115.732 145.467 114.693 144.280 C 113.561 142.987 112.145 142.411 110.901 142.736 C 109.572 143.084 109.012 142.807 109.207 141.902 C 109.630 139.944 105.130 139.498 104.391 141.424 M 99.306 148.144 C 98.014 149.203 98.073 148.865 99.575 146.605 C 100.634 145.013 101.379 144.402 101.231 145.249 C 101.082 146.095 100.216 147.398 99.306 148.144 "/></g>
<g fill="#CDE8E5FD" stroke="#CDE8E5FD">
<path d="M 147.250 96.077 C 145.234 96.685 143.994 97.711 143.985 98.779 C 143.972 100.254 143.832 100.286 143.011 99.000 C 142.383 98.017 142.052 105.052 142.051 119.392 C 142.049 142.655 142.688 148.315 143.109 128.776 C 143.294 120.196 143.714 116.940 144.681 116.569 C 146.279 115.956 146.459 111.000 144.884 111.000 C 143.712 111.000 144.394 100.221 145.639 99.081 C 145.988 98.762 146.053 99.718 145.784 101.207 L 145.294 103.914 147.782 101.957 C 149.642 100.494 149.857 100.000 148.635 100.000 C 147.736 100.000 147.000 99.598 147.000 99.107 C 147.000 97.520 149.903 97.046 151.268 98.411 C 152.910 100.053 155.225 100.788 160.971 101.490 C 163.429 101.791 165.820 102.713 166.282 103.540 C 166.745 104.366 167.498 104.810 167.957 104.527 C 169.089 103.827 170.178 106.894 169.311 108.340 C 168.929 108.978 169.377 108.882 170.308 108.128 C 172.748 106.149 172.389 107.933 169.750 110.905 C 168.513 112.299 168.288 112.835 169.250 112.097 C 170.491 111.145 171.000 111.096 171.000 111.927 C 171.000 112.625 171.506 112.776 172.250 112.300 C 173.712 111.364 174.174 107.000 172.811 107.000 C 172.300 107.000 172.207 106.474 172.605 105.830 C 173.082 105.058 172.795 104.865 171.763 105.261 C 170.684 105.675 170.274 105.339 170.444 104.181 C 170.580 103.256 170.873 102.543 171.095 102.595 C 171.318 102.647 170.375 101.858 169.000 100.842 C 166.580 99.053 164.241 98.724 164.748 100.243 C 164.884 100.652 163.984 100.798 162.748 100.568 C 161.512 100.337 159.911 100.115 159.191 100.074 C 158.471 100.033 158.183 99.514 158.550 98.919 C 158.918 98.324 160.294 98.108 161.609 98.438 C 162.959 98.777 164.000 98.594 164.000 98.019 C 164.000 97.459 163.663 96.966 163.250 96.923 C 162.838 96.881 161.600 96.608 160.500 96.317 C 156.420 95.236 150.404 95.127 147.250 96.077 M 157.457 96.931 C 157.774 97.443 157.506 98.187 156.862 98.585 C 156.158 99.020 155.958 98.877 156.360 98.226 C 156.746 97.601 156.071 96.959 154.765 96.708 C 152.517 96.276 152.516 96.271 154.691 96.136 C 155.896 96.061 157.141 96.419 157.457 96.931 M 168.200 103.200 C 167.267 104.133 167.000 104.133 167.000 103.200 C 167.000 102.540 167.540 102.000 168.200 102.000 C 169.133 102.000 169.133 102.267 168.200 103.200 "/></g>
<g fill="#E9FDFDFD" stroke="#E9FDFDFD">
<path d="M 148.250 97.731 C 146.438 98.363 146.716 100.000 148.635 100.000 C 149.833 100.000 149.576 100.546 147.670 102.045 C 146.240 103.169 144.921 104.182 144.739 104.295 C 143.821 104.862 143.990 111.000 144.923 111.000 C 145.516 111.000 146.000 111.916 146.000 113.035 C 146.000 114.812 146.275 114.923 148.163 113.913 L 150.327 112.755 148.071 111.053 C 145.167 108.863 145.625 105.011 149.000 103.234 C 152.419 101.433 159.158 102.264 162.931 104.951 C 166.060 107.179 170.419 114.248 169.333 115.333 C 169.014 115.653 170.354 115.655 172.311 115.337 C 174.269 115.019 177.219 115.229 178.868 115.804 C 181.564 116.744 181.849 116.648 181.713 114.842 C 181.630 113.739 180.648 112.326 179.531 111.703 C 178.111 110.912 177.951 110.556 179.000 110.520 C 179.891 110.490 180.074 110.198 179.452 109.801 C 178.876 109.433 177.755 109.534 176.961 110.024 C 175.279 111.063 176.437 112.550 179.500 113.287 C 180.600 113.552 179.588 113.820 177.250 113.884 C 174.852 113.949 173.000 113.538 173.000 112.941 C 173.000 112.359 172.550 112.160 172.000 112.500 C 171.450 112.840 171.000 112.615 171.000 112.000 C 171.000 111.385 170.503 111.189 169.896 111.564 C 169.289 111.939 169.619 110.953 170.629 109.373 C 172.426 106.561 172.425 106.532 170.569 108.000 C 168.771 109.422 168.738 109.376 169.936 107.129 C 170.631 105.825 170.752 105.035 170.205 105.374 C 169.657 105.712 168.828 105.204 168.361 104.244 C 167.895 103.285 167.617 103.046 167.745 103.714 C 167.878 104.413 167.347 104.687 166.494 104.359 C 165.679 104.046 165.260 103.388 165.565 102.895 C 165.869 102.403 165.529 101.963 164.809 101.917 C 158.881 101.539 152.000 100.006 152.000 99.062 C 152.000 97.949 149.831 97.179 148.250 97.731 "/></g>
<g fill="#CDE8E5FD" stroke="#CDE8E5FD">
<path d="M 83.235 136.770 C 81.990 136.975 81.203 137.519 81.487 137.978 C 81.770 138.438 81.215 138.613 80.251 138.368 C 77.998 137.796 70.698 143.771 71.404 145.610 C 71.692 146.361 71.382 146.869 70.714 146.738 C 70.031 146.604 69.639 147.309 69.817 148.350 C 70.007 149.461 69.707 149.937 69.067 149.541 C 67.987 148.874 67.842 149.308 67.493 154.249 C 67.337 156.454 67.565 156.776 68.649 155.876 C 69.567 155.114 70.000 155.096 70.000 155.819 C 70.000 156.403 69.438 157.246 68.750 157.691 C 67.750 158.338 67.750 158.480 68.750 158.400 C 69.438 158.345 70.927 158.233 72.059 158.150 C 73.191 158.068 73.835 157.543 73.490 156.984 C 73.144 156.425 72.555 156.157 72.181 156.388 C 70.256 157.579 72.032 151.069 74.300 148.621 C 75.750 147.057 77.198 144.950 77.519 143.940 C 77.874 142.821 78.686 142.326 79.592 142.674 C 80.521 143.030 80.972 142.729 80.791 141.873 C 80.594 140.945 81.636 140.428 84.000 140.277 C 86.792 140.100 87.095 140.237 85.500 140.957 C 84.400 141.453 84.026 141.891 84.668 141.930 C 85.311 141.968 86.547 142.273 87.416 142.606 C 88.621 143.069 88.946 142.622 88.789 140.718 C 88.646 138.989 88.135 138.395 87.127 138.781 C 86.233 139.125 85.934 138.916 86.352 138.239 C 87.224 136.829 86.100 136.299 83.235 136.770 "/></g>
<g fill="#CDE8E5FD" stroke="#CDE8E5FD">
<path d="M 93.000 110.084 C 88.258 112.234 84.000 115.669 84.000 117.346 C 84.000 117.894 83.213 119.231 82.250 120.317 C 81.030 121.694 80.862 122.419 81.694 122.711 C 82.350 122.941 82.640 123.775 82.337 124.565 C 81.548 126.619 82.663 126.337 85.148 123.852 C 86.854 122.146 87.070 121.342 86.200 119.948 C 85.306 118.518 85.418 118.238 86.802 118.441 C 87.736 118.578 88.388 118.985 88.250 119.345 C 88.113 119.705 88.034 120.338 88.077 120.750 C 88.119 121.163 88.310 120.671 88.501 119.658 C 88.693 118.645 88.996 117.722 89.175 117.606 C 93.775 114.619 95.172 113.546 94.197 113.750 C 93.539 113.888 93.007 113.663 93.015 113.250 C 93.064 110.883 97.472 108.336 98.537 110.060 C 98.868 110.595 99.510 110.803 99.964 110.522 C 100.419 110.241 101.051 110.691 101.370 111.521 C 101.813 112.677 101.370 112.925 99.474 112.581 C 98.113 112.334 97.000 112.553 97.000 113.066 C 97.000 114.090 101.304 114.363 102.266 113.400 C 103.315 112.352 100.744 107.999 99.089 108.022 C 98.215 108.034 95.475 108.962 93.000 110.084 "/></g>
<g fill="#E9FDFDFD" stroke="#E9FDFDFD">
<path d="M 87.862 139.616 C 90.604 141.536 89.474 143.198 86.036 142.299 C 83.773 141.707 83.740 141.609 85.554 140.859 C 86.986 140.267 86.576 140.113 84.000 140.277 C 81.636 140.428 80.594 140.945 80.791 141.873 C 80.980 142.763 80.522 143.031 79.489 142.634 C 78.567 142.280 78.153 142.439 78.507 143.011 C 78.843 143.555 78.668 144.000 78.118 144.000 C 77.568 144.000 76.792 143.472 76.393 142.827 C 75.900 142.030 75.589 142.191 75.422 143.332 C 75.286 144.255 75.586 144.756 76.088 144.446 C 77.897 143.328 76.948 145.764 74.579 148.320 C 71.984 151.120 70.901 156.338 72.829 156.750 C 73.473 156.888 74.003 155.988 74.007 154.750 C 74.021 149.747 79.669 144.082 84.691 144.032 C 88.472 143.994 89.686 145.439 87.836 147.774 C 87.101 148.702 87.938 148.345 89.695 146.980 C 91.452 145.616 92.914 143.970 92.945 143.323 C 93.008 141.984 88.291 138.000 86.643 138.000 C 86.044 138.000 86.593 138.727 87.862 139.616 "/></g>
<g fill="#E9FDFDFD" stroke="#E9FDFDFD">
<path d="M 187.465 137.938 C 184.672 139.089 182.668 141.694 183.304 143.349 C 183.687 144.349 185.158 144.595 188.711 144.254 C 192.929 143.848 194.025 144.150 196.795 146.481 C 198.558 147.964 200.000 148.743 200.000 148.211 C 200.000 147.680 199.330 146.689 198.511 146.009 C 197.692 145.329 197.265 144.380 197.563 143.898 C 197.860 143.417 197.409 143.289 196.560 143.615 C 194.524 144.397 193.407 141.420 195.011 139.487 C 195.689 138.669 196.077 137.959 195.872 137.908 C 193.227 137.258 189.080 137.272 187.465 137.938 M 192.362 140.500 C 192.045 141.325 191.358 142.000 190.834 142.000 C 190.310 142.000 190.136 141.588 190.447 141.085 C 190.758 140.582 190.447 139.943 189.756 139.664 C 189.065 139.386 189.498 139.122 190.719 139.079 C 192.296 139.023 192.771 139.433 192.362 140.500 "/></g>
<g fill="#CDE8E5FD" stroke="#CDE8E5FD">
<path d="M 116.010 95.892 C 112.195 96.954 115.212 98.199 120.774 97.859 C 123.624 97.684 124.961 97.903 124.143 98.410 C 123.001 99.117 123.001 99.386 124.143 100.110 C 124.889 100.583 126.561 100.976 127.857 100.985 C 129.464 100.995 130.043 101.446 129.676 102.401 C 129.352 103.247 129.714 103.718 130.591 103.590 C 131.390 103.472 131.710 103.043 131.302 102.635 C 130.894 102.228 131.371 102.205 132.360 102.585 C 133.869 103.164 134.106 102.819 133.830 100.448 C 133.526 97.841 133.374 97.748 131.886 99.246 C 130.193 100.951 128.000 99.913 128.000 97.407 C 128.000 96.151 125.809 95.000 123.418 95.000 C 122.638 95.000 122.113 95.522 122.250 96.160 C 122.440 97.041 122.305 97.041 121.691 96.160 C 120.807 94.892 119.779 94.843 116.010 95.892 "/></g>
<g fill="#CDE8E5FD" stroke="#CDE8E5FD">
<path d="M 107.107 77.309 C 107.048 77.754 106.474 77.793 105.830 77.395 C 105.051 76.913 104.867 77.211 105.279 78.285 C 105.714 79.418 105.467 79.733 104.449 79.342 C 103.262 78.887 103.000 80.161 103.000 86.393 C 103.000 90.577 103.395 94.000 103.878 94.000 C 105.903 94.000 106.825 91.063 107.013 84.000 C 107.124 79.875 107.166 76.864 107.107 77.309 M 105.087 89.446 C 104.462 89.833 104.000 89.371 104.000 88.359 C 104.000 87.092 104.304 86.904 105.087 87.687 C 105.870 88.470 105.870 88.962 105.087 89.446 "/></g>
<g fill="#CDE8E5FD" stroke="#CDE8E5FD">
<path d="M 110.250 98.750 C 109.013 99.988 107.663 101.000 107.250 101.000 C 106.838 101.000 106.444 101.450 106.375 102.000 C 106.306 102.550 106.184 102.663 106.103 102.250 C 106.022 101.838 105.138 102.563 104.138 103.863 C 103.082 105.236 102.512 107.226 102.777 108.613 C 103.253 111.104 104.443 111.710 105.500 110.000 C 105.840 109.450 105.641 109.000 105.059 109.000 C 104.477 109.000 104.000 108.523 104.000 107.941 C 104.000 107.359 104.563 107.220 105.250 107.633 C 105.970 108.066 105.865 107.598 105.000 106.528 C 103.596 104.791 103.640 104.747 105.689 105.839 C 107.219 106.654 108.077 106.685 108.536 105.941 C 108.898 105.356 110.303 104.455 111.657 103.940 C 113.287 103.321 113.851 102.580 113.325 101.752 C 112.888 101.063 112.524 99.600 112.515 98.500 C 112.501 96.573 112.418 96.582 110.250 98.750 M 111.199 103.050 C 109.708 103.648 109.113 103.626 109.508 102.987 C 109.844 102.444 110.879 102.029 111.809 102.063 C 113.009 102.108 112.833 102.395 111.199 103.050 "/></g>
<g fill="#093041FD" stroke="#093041FD">
<path d="M 220.000 117.444 C 220.000 118.875 216.353 122.019 215.585 121.251 C 215.263 120.930 215.000 121.192 215.000 121.833 C 215.000 122.475 215.567 123.000 216.260 123.000 C 216.953 123.000 218.823 124.208 220.415 125.684 L 223.309 128.368 222.614 125.600 C 222.159 123.784 222.277 123.053 222.960 123.475 C 223.532 123.829 224.000 123.656 224.000 123.090 C 224.000 122.525 224.629 122.304 225.399 122.600 C 226.168 122.895 227.138 122.586 227.553 121.914 C 228.037 121.132 227.893 120.948 227.155 121.405 C 226.520 121.797 226.000 121.694 226.000 121.176 C 226.000 120.657 225.098 119.997 223.996 119.709 C 222.771 119.389 222.205 118.630 222.539 117.759 C 222.867 116.904 222.468 116.333 221.543 116.333 C 220.694 116.333 220.000 116.833 220.000 117.444 "/></g>
<g fill="#093041FD" stroke="#093041FD">
<path d="M 97.446 35.472 C 96.365 37.750 95.213 38.912 94.361 38.585 C 93.612 38.298 93.000 38.551 93.000 39.148 C 93.000 39.745 93.902 39.997 95.004 39.709 C 96.508 39.316 97.159 39.784 97.611 41.586 C 97.942 42.906 98.615 43.738 99.107 43.434 C 99.598 43.130 100.071 43.246 100.158 43.691 C 100.244 44.136 100.284 43.876 100.246 43.113 C 100.136 40.921 102.254 39.257 104.470 39.795 C 106.089 40.188 105.893 39.753 103.500 37.647 C 101.850 36.195 100.500 34.593 100.500 34.087 C 100.500 31.548 98.982 32.236 97.446 35.472 "/></g>
<g fill="#093041FD" stroke="#093041FD">
<path d="M 59.250 102.213 C 59.388 102.881 58.488 103.887 57.250 104.451 C 56.013 105.014 55.000 105.893 55.000 106.404 C 55.000 106.915 55.263 107.070 55.585 106.749 C 56.454 105.879 59.990 109.207 59.330 110.275 C 59.018 110.779 59.604 111.029 60.632 110.830 C 61.659 110.630 62.507 109.765 62.516 108.906 C 62.525 108.047 63.088 107.529 63.766 107.755 C 64.445 107.982 65.000 107.653 65.000 107.024 C 65.000 106.396 65.563 106.200 66.250 106.589 C 66.938 106.978 65.956 105.879 64.070 104.148 C 60.465 100.840 58.832 100.184 59.250 102.213 "/></g>
<g fill="#093041FD" stroke="#093041FD">
<path d="M 66.015 195.781 C 66.007 197.036 65.314 198.326 64.474 198.648 C 63.298 199.100 63.212 199.550 64.097 200.617 C 64.728 201.378 64.939 202.000 64.566 202.000 C 63.489 202.000 66.373 205.476 67.650 205.717 C 68.282 205.836 69.075 204.839 69.410 203.502 C 69.795 201.967 70.532 201.267 71.409 201.603 C 72.173 201.897 73.138 201.586 73.553 200.914 C 74.037 200.132 73.893 199.948 73.155 200.405 C 72.520 200.797 72.000 200.615 72.000 200.000 C 72.000 199.385 71.597 199.131 71.105 199.435 C 70.333 199.912 69.182 198.309 68.461 195.750 C 68.345 195.338 68.187 195.338 68.110 195.750 C 68.033 196.163 67.533 195.825 67.000 195.000 C 66.218 193.790 66.028 193.942 66.015 195.781 "/></g>
<g fill="#093041FD" stroke="#093041FD">
<path d="M 197.072 53.865 C 196.444 55.039 195.267 56.000 194.456 56.000 C 193.483 56.000 194.005 57.070 195.991 59.148 C 197.646 60.880 199.000 61.705 199.000 60.982 C 199.000 60.258 199.279 59.945 199.619 60.286 C 200.506 61.173 203.046 58.395 202.202 57.460 C 201.816 57.032 202.288 56.964 203.250 57.309 C 204.213 57.655 205.000 57.501 205.000 56.969 C 205.000 56.436 204.347 56.000 203.550 56.000 C 202.752 56.000 201.641 55.213 201.080 54.250 C 200.519 53.288 200.040 52.950 200.015 53.500 C 199.990 54.050 199.575 53.877 199.092 53.115 C 198.391 52.008 197.985 52.159 197.072 53.865 "/></g>
<g fill="#CDE8E5FD" stroke="#CDE8E5FD">
<path d="M 132.302 106.972 C 131.644 108.738 130.662 109.909 130.121 109.575 C 129.581 109.241 128.813 109.494 128.415 110.138 C 127.963 110.869 128.124 111.041 128.845 110.595 C 129.522 110.177 130.000 110.503 130.000 111.384 C 130.000 112.381 129.279 112.746 127.853 112.472 L 125.706 112.058 127.738 114.279 C 128.856 115.501 130.077 117.513 130.452 118.750 C 130.828 119.988 131.554 121.000 132.067 121.000 C 133.164 121.000 133.164 120.800 132.091 115.250 C 131.327 111.303 132.142 109.395 133.372 112.250 C 133.668 112.938 133.818 111.309 133.705 108.631 L 133.500 103.761 132.302 106.972 "/></g>
<g fill="#CDE8E5FD" stroke="#CDE8E5FD">
<path d="M 119.201 70.390 C 113.536 73.238 109.201 75.868 109.568 76.235 C 110.296 76.963 128.118 68.350 129.112 66.789 C 129.448 66.261 130.123 65.964 130.612 66.128 C 131.100 66.293 131.050 66.154 130.500 65.819 C 129.950 65.485 124.865 67.542 119.201 70.390 "/></g>
<g fill="#CDE8E5FD" stroke="#CDE8E5FD">
<path d="M 196.416 140.641 C 196.943 142.014 196.796 142.076 195.523 141.019 C 194.265 139.975 194.000 140.038 194.000 141.378 C 194.000 142.375 194.835 143.000 196.167 143.000 C 197.358 143.000 198.037 143.296 197.675 143.658 C 196.955 144.378 198.783 147.000 200.006 147.000 C 200.424 147.000 201.044 145.988 201.383 144.750 C 201.898 142.873 202.163 142.749 202.985 144.000 C 203.563 144.881 203.976 145.014 203.985 144.323 C 204.004 142.813 199.186 139.000 197.258 139.000 C 196.304 139.000 196.008 139.578 196.416 140.641 "/></g>
<g fill="#CDE8E5FD" stroke="#CDE8E5FD">
<path d="M 174.882 109.125 C 174.816 109.881 174.840 110.909 174.934 111.408 C 175.029 111.908 174.519 112.689 173.803 113.143 C 172.996 113.655 174.095 113.975 176.691 113.985 C 178.996 113.993 181.239 114.563 181.676 115.250 C 182.273 116.191 182.473 116.133 182.485 115.017 C 182.493 114.184 181.404 113.390 180.000 113.205 C 177.156 112.831 175.294 111.373 176.333 110.333 C 176.718 109.948 177.566 110.166 178.217 110.817 C 179.686 112.286 184.000 112.379 184.000 110.941 C 184.000 110.359 183.588 110.136 183.085 110.447 C 182.582 110.758 182.020 110.570 181.835 110.029 C 181.651 109.488 180.038 108.754 178.250 108.398 C 175.869 107.923 174.968 108.118 174.882 109.125 "/></g>
<g fill="#093041FD" stroke="#093041FD">
<path d="M 206.591 207.625 C 205.742 209.835 208.310 212.479 210.493 211.641 C 211.508 211.252 212.017 210.143 211.820 208.754 C 211.421 205.946 207.555 205.111 206.591 207.625 M 210.138 209.481 C 211.192 208.882 211.237 208.992 210.337 209.966 C 209.055 211.355 206.991 210.563 207.015 208.691 C 207.025 207.908 207.330 207.972 207.904 208.878 C 208.420 209.694 209.332 209.940 210.138 209.481 "/></g>
<g fill="#093041FD" stroke="#093041FD">
<path d="M 209.348 95.537 C 209.050 96.313 209.412 97.533 210.153 98.248 C 211.610 99.654 214.000 99.966 214.000 98.750 C 214.000 94.792 214.139 94.497 215.062 96.500 C 215.905 98.330 215.962 98.339 215.742 96.610 C 215.443 94.275 210.171 93.390 209.348 95.537 "/></g>
<g fill="#093041FD" stroke="#093041FD">
<path d="M 226.701 144.632 C 226.316 145.018 226.000 146.106 226.000 147.050 C 226.000 149.265 229.579 150.213 231.086 148.397 C 231.925 147.386 231.935 147.000 231.122 147.000 C 230.505 147.000 230.113 146.464 230.250 145.809 C 230.532 144.467 227.779 143.554 226.701 144.632 "/></g>
<g fill="#CDE8E5FD" stroke="#CDE8E5FD">
<path d="M 80.111 128.000 C 80.069 131.118 80.209 131.309 81.392 129.750 C 82.995 127.639 84.147 127.452 83.390 129.427 C 82.990 130.469 83.403 130.707 84.921 130.310 C 87.177 129.720 87.520 128.351 86.000 126.000 C 85.354 125.000 85.026 124.917 85.015 125.750 C 85.007 126.438 84.138 127.000 83.083 127.000 C 82.029 127.000 80.940 126.438 80.662 125.750 C 80.385 125.063 80.137 126.075 80.111 128.000 "/></g>
<g fill="#093041FD" stroke="#093041FD">
<path d="M 167.872 34.663 C 166.797 35.965 166.772 36.417 167.756 36.748 C 168.447 36.981 168.758 37.582 168.447 38.085 C 168.136 38.588 168.332 39.000 168.882 39.000 C 169.432 39.000 170.165 38.543 170.510 37.984 C 170.856 37.425 171.557 37.226 172.069 37.543 C 173.431 38.384 173.207 35.607 171.800 34.200 C 170.202 32.602 169.505 32.685 167.872 34.663 "/></g>
<g fill="#093041FD" stroke="#093041FD">
<path d="M 135.937 33.576 C 134.853 34.883 134.874 35.308 136.064 36.061 C 136.854 36.561 137.163 37.026 136.750 37.096 C 136.338 37.165 136.970 37.272 138.155 37.333 C 139.673 37.412 140.412 36.770 140.658 35.161 C 140.863 33.818 140.593 33.133 140.003 33.498 C 139.451 33.839 139.000 33.641 139.000 33.059 C 139.000 31.505 137.437 31.768 135.937 33.576 "/></g>
<g fill="#CDE8E5FD" stroke="#CDE8E5FD">
<path d="M 170.958 147.550 C 169.896 148.831 169.961 149.390 171.336 150.764 C 172.888 152.317 173.114 152.315 174.690 150.738 C 175.620 149.808 176.046 148.712 175.636 148.303 C 175.226 147.893 174.436 148.220 173.880 149.029 C 173.112 150.146 173.021 149.959 173.502 148.250 C 174.230 145.660 172.844 145.278 170.958 147.550 "/></g>
<g fill="#093041FD" stroke="#093041FD">
<path d="M 220.000 186.622 C 220.000 188.767 220.257 189.031 221.411 188.074 C 222.498 187.172 223.006 187.201 223.624 188.201 C 224.066 188.916 224.293 189.100 224.128 188.612 C 223.964 188.123 224.430 187.343 225.165 186.877 C 226.244 186.193 226.250 186.028 225.191 186.015 C 224.471 186.007 224.160 185.550 224.500 185.000 C 224.851 184.433 224.010 184.000 222.559 184.000 C 220.464 184.000 220.000 184.476 220.000 186.622 "/></g>
<g fill="#093041FD" stroke="#093041FD">
<path d="M 52.406 126.152 C 52.015 126.785 52.370 127.798 53.196 128.402 C 54.023 129.006 54.779 129.842 54.877 130.260 C 54.975 130.679 55.315 130.344 55.632 129.516 C 55.950 128.689 56.612 128.260 57.105 128.565 C 57.597 128.869 58.000 128.390 58.000 127.500 C 58.000 126.610 57.550 126.160 57.000 126.500 C 56.450 126.840 56.000 126.641 56.000 126.059 C 56.000 124.637 53.300 124.706 52.406 126.152 "/></g>
<g fill="#093041FD" stroke="#093041FD">
<path d="M 194.571 216.571 C 192.196 218.947 192.677 220.148 195.857 219.785 C 198.350 219.500 198.609 219.175 197.889 217.229 C 196.908 214.578 196.622 214.521 194.571 216.571 "/></g>
<g fill="#093041FD" stroke="#093041FD">
<path d="M 68.532 59.776 C 68.199 60.645 68.618 62.047 69.463 62.892 C 70.570 63.998 71.000 64.072 71.000 63.155 C 71.000 62.455 71.373 62.113 71.829 62.395 C 72.286 62.677 72.589 61.953 72.503 60.788 C 72.317 58.266 69.397 57.523 68.532 59.776 "/></g>
<g fill="#093041FD" stroke="#093041FD">
<path d="M 43.000 167.941 C 43.000 169.009 43.453 170.162 44.008 170.505 C 45.381 171.353 48.297 168.290 47.439 166.901 C 46.955 166.118 46.494 166.190 45.890 167.143 C 45.258 168.142 45.027 168.170 45.015 167.250 C 45.007 166.563 44.550 166.000 44.000 166.000 C 43.450 166.000 43.000 166.873 43.000 167.941 "/></g>
<g fill="#FDF5E5FD" stroke="#FDF5E5FD">
<path d="M 146.750 115.174 C 145.238 116.258 144.000 118.012 144.000 119.073 C 144.000 121.969 145.864 121.390 146.649 118.250 C 147.027 116.738 147.823 114.983 148.418 114.352 C 149.013 113.720 148.263 114.090 146.750 115.174 "/></g>
<g fill="#CDE8E5FD" stroke="#CDE8E5FD">
<path d="M 132.729 131.500 C 133.028 135.350 133.437 138.688 133.637 138.917 C 134.305 139.683 133.774 130.539 132.974 127.500 C 132.495 125.680 132.398 127.254 132.729 131.500 "/></g>
<g fill="#CDE8E5FD" stroke="#CDE8E5FD">
<path d="M 134.212 62.878 C 132.404 63.820 131.192 64.859 131.520 65.187 C 132.499 66.165 138.081 63.638 137.779 62.353 C 137.581 61.510 136.548 61.662 134.212 62.878 "/></g>
<g fill="#093041FD" stroke="#093041FD">
<path d="M 53.000 85.333 C 53.000 85.883 52.691 86.025 52.314 85.648 C 51.937 85.271 51.497 85.826 51.336 86.882 C 51.115 88.330 51.506 88.680 52.929 88.308 C 55.158 87.726 56.381 84.333 54.363 84.333 C 53.613 84.333 53.000 84.783 53.000 85.333 "/></g>
<g fill="#CDE8E5FD" stroke="#CDE8E5FD">
<path d="M 108.980 147.524 C 107.216 149.650 108.404 150.453 110.384 148.473 C 111.747 147.111 112.093 147.079 112.553 148.276 C 112.853 149.060 112.968 150.331 112.806 151.101 C 112.645 151.870 112.898 151.707 113.368 150.737 C 113.909 149.624 113.769 148.427 112.989 147.487 C 111.428 145.606 110.565 145.614 108.980 147.524 "/></g>
<g fill="#093041FD" stroke="#093041FD">
<path d="M 107.015 218.963 C 107.059 220.484 108.917 222.169 109.888 221.569 C 111.752 220.417 111.131 218.114 109.000 218.275 C 107.900 218.358 107.007 218.667 107.015 218.963 "/></g>
<g fill="#CDE8E5FD" stroke="#CDE8E5FD">
<path d="M 186.559 123.095 C 187.192 124.120 192.930 123.922 193.592 122.852 C 193.878 122.389 192.305 122.081 190.097 122.167 C 187.889 122.254 186.297 122.671 186.559 123.095 "/></g>
<g fill="#E9FDFDFD" stroke="#E9FDFDFD">
<path d="M 158.500 99.000 C 158.160 99.550 158.471 100.033 159.191 100.074 C 159.911 100.115 161.616 100.353 162.981 100.603 C 165.382 101.043 165.398 101.010 163.481 99.561 C 161.157 97.804 159.364 97.602 158.500 99.000 "/></g>
<g fill="#093041FD" stroke="#093041FD">
<path d="M 84.380 216.452 C 84.074 217.251 84.184 218.488 84.625 219.202 C 85.066 219.916 85.363 220.050 85.285 219.500 C 85.207 218.950 85.855 217.713 86.726 216.750 C 88.175 215.149 88.166 215.000 86.624 215.000 C 85.696 215.000 84.686 215.653 84.380 216.452 "/></g>
<g fill="#093041FD" stroke="#093041FD">
<path d="M 45.327 208.280 C 44.952 208.886 45.164 209.555 45.798 209.766 C 47.664 210.388 48.500 210.081 48.500 208.772 C 48.500 207.194 46.217 206.840 45.327 208.280 "/></g>
<g fill="#093041FD" stroke="#093041FD">
<path d="M 121.418 30.750 C 121.803 31.438 121.619 32.000 121.009 32.000 C 120.333 32.000 120.218 32.567 120.715 33.455 C 121.271 34.449 121.999 34.618 123.014 33.991 C 124.294 33.200 124.237 32.824 122.609 31.286 C 121.569 30.304 121.033 30.063 121.418 30.750 "/></g>
<g fill="#F8B598FD" stroke="#F8B598FD">
<path d="M 130.625 134.000 C 130.974 135.925 131.653 138.400 132.135 139.500 C 132.735 140.873 132.811 140.403 132.375 138.000 C 132.026 136.075 131.347 133.600 130.865 132.500 C 130.265 131.127 130.189 131.597 130.625 134.000 "/></g>
<g fill="#093041FD" stroke="#093041FD">
<path d="M 165.000 214.338 C 165.000 215.155 165.687 215.722 166.527 215.599 C 168.526 215.305 168.544 213.591 166.553 213.177 C 165.699 212.999 165.000 213.522 165.000 214.338 "/></g>
<g fill="#093041FD" stroke="#093041FD">
<path d="M 40.690 119.471 C 39.548 120.315 39.271 121.050 39.940 121.463 C 41.388 122.358 43.179 121.114 42.805 119.474 C 42.550 118.355 42.201 118.355 40.690 119.471 "/></g>
<g fill="#093041FD" stroke="#093041FD">
<path d="M 222.000 64.110 C 220.734 65.020 220.773 65.101 222.250 64.626 C 224.226 63.990 224.684 65.558 222.750 66.338 C 222.003 66.639 222.205 66.874 223.250 66.921 C 224.360 66.971 225.000 66.268 225.000 65.000 C 225.000 62.758 224.207 62.522 222.000 64.110 "/></g>
<g fill="#FDF5E5FD" stroke="#FDF5E5FD">
<path d="M 199.000 144.059 C 199.000 144.641 199.521 144.796 200.158 144.403 C 200.955 143.910 201.135 144.376 200.736 145.901 C 200.290 147.606 200.448 147.873 201.421 147.066 C 202.116 146.489 203.088 146.351 203.581 146.759 C 204.075 147.166 203.626 146.488 202.584 145.250 C 200.561 142.847 199.000 142.328 199.000 144.059 "/></g>
<g fill="#FDF5E5FD" stroke="#FDF5E5FD">
<path d="M 129.170 117.500 C 129.186 118.600 129.560 120.625 130.000 122.000 L 130.801 124.500 130.830 122.000 C 130.846 120.625 130.473 118.600 130.000 117.500 L 129.141 115.500 129.170 117.500 "/></g>
<g fill="#093041FD" stroke="#093041FD">
<path d="M 131.115 132.000 C 131.161 132.825 131.560 134.625 132.000 136.000 L 132.801 138.500 132.885 136.000 C 132.931 134.625 132.533 132.825 132.000 132.000 C 131.138 130.667 131.040 130.667 131.115 132.000 "/></g>
<g fill="#E9FDFDFD" stroke="#E9FDFDFD">
<path d="M 111.233 149.500 C 111.554 151.991 111.759 152.192 112.442 150.683 C 112.954 149.553 112.808 148.418 112.056 147.683 C 111.114 146.762 110.932 147.165 111.233 149.500 "/></g>
<g fill="#D1E5E5FD" stroke="#D1E5E5FD">
<path d="M 132.042 114.750 L 132.770 118.500 132.885 114.750 C 132.948 112.688 132.621 111.000 132.157 111.000 C 131.694 111.000 131.642 112.688 132.042 114.750 "/></g>
<g fill="#F8B598FD" stroke="#F8B598FD">
<path d="M 144.102 129.691 L 144.205 133.500 144.980 130.233 C 145.406 128.436 145.360 126.722 144.877 126.424 C 144.395 126.126 144.046 127.596 144.102 129.691 "/></g>
<g fill="#093041FD" stroke="#093041FD">
<path d="M 174.128 190.000 C 174.049 191.375 173.650 193.041 173.242 193.701 C 172.834 194.362 173.097 194.274 173.827 193.506 C 174.556 192.738 174.955 191.073 174.713 189.805 C 174.285 187.567 174.268 187.573 174.128 190.000 "/></g>
<g fill="#093041FD" stroke="#093041FD">
<path d="M 197.554 182.088 C 197.864 182.590 197.641 183.056 197.059 183.125 C 196.477 183.194 195.438 183.313 194.750 183.390 C 193.898 183.486 193.846 183.751 194.587 184.224 C 195.185 184.605 196.719 184.185 197.996 183.290 C 199.896 181.960 200.015 181.620 198.654 181.420 C 197.739 181.285 197.244 181.586 197.554 182.088 "/></g>
<g fill="#093041FD" stroke="#093041FD">
<path d="M 144.155 125.311 C 143.416 126.203 143.043 127.510 143.327 128.216 C 143.642 129.001 143.873 128.797 143.921 127.691 C 143.967 126.645 144.462 126.168 145.096 126.559 C 145.769 126.975 146.058 126.551 145.846 125.463 C 145.529 123.837 145.388 123.824 144.155 125.311 "/></g>
<g fill="#CDE8E5FD" stroke="#CDE8E5FD">
<path d="M 189.756 139.664 C 190.447 139.943 190.758 140.582 190.447 141.085 C 190.136 141.588 190.310 142.000 190.834 142.000 C 191.358 142.000 192.045 141.325 192.362 140.500 C 192.771 139.433 192.296 139.023 190.719 139.079 C 189.498 139.122 189.065 139.386 189.756 139.664 "/></g>
<g fill="#91A9B4FD" stroke="#91A9B4FD">
<path d="M 66.321 157.500 C 66.462 158.868 67.234 159.477 68.764 159.429 C 70.192 159.383 70.304 159.293 69.073 159.179 C 68.014 159.080 66.914 158.213 66.631 157.250 C 66.230 155.890 66.161 155.946 66.321 157.500 "/></g>
<g fill="#093041FD" stroke="#093041FD">
<path d="M 73.895 179.219 C 75.213 180.715 76.563 181.770 76.895 181.565 C 77.228 181.359 77.424 181.261 77.331 181.345 C 77.237 181.430 75.887 180.375 74.331 179.000 L 71.500 176.500 73.895 179.219 "/></g>
<g fill="#093041FD" stroke="#093041FD">
<path d="M 130.000 127.500 C 130.000 128.325 130.450 129.000 131.000 129.000 C 131.550 129.000 132.000 128.325 132.000 127.500 C 132.000 126.675 131.550 126.000 131.000 126.000 C 130.450 126.000 130.000 126.675 130.000 127.500 "/></g>
<g fill="#093041FD" stroke="#093041FD">
<path d="M 139.872 68.340 C 140.627 69.253 141.977 69.982 142.872 69.960 C 143.849 69.936 143.300 69.272 141.500 68.300 C 138.710 66.794 138.596 66.797 139.872 68.340 "/></g>
<g fill="#093041FD" stroke="#093041FD">
<path d="M 172.015 51.667 C 172.028 53.216 172.181 53.268 173.000 52.000 C 173.679 50.949 174.019 50.874 174.135 51.750 C 174.234 52.503 174.340 52.536 174.400 51.833 C 174.455 51.192 173.938 50.479 173.250 50.250 C 172.550 50.017 172.007 50.640 172.015 51.667 "/></g>
<g fill="#D1E5E5FD" stroke="#D1E5E5FD">
<path d="M 68.238 156.163 C 66.457 157.943 66.709 159.486 68.533 157.972 C 69.377 157.272 69.933 156.300 69.771 155.812 C 69.608 155.324 68.918 155.482 68.238 156.163 "/></g>
<g fill="#D1E5E5FD" stroke="#D1E5E5FD">
<path d="M 154.765 96.708 C 156.071 96.959 156.746 97.601 156.360 98.226 C 155.958 98.877 156.158 99.020 156.862 98.585 C 158.585 97.520 157.219 95.979 154.691 96.136 C 152.516 96.271 152.517 96.276 154.765 96.708 "/></g>
<g fill="#093041FD" stroke="#093041FD">
<path d="M 86.446 204.087 C 86.077 204.685 86.341 205.698 87.034 206.337 C 88.008 207.237 88.118 207.192 87.519 206.138 C 87.060 205.332 87.306 204.420 88.122 203.904 C 89.028 203.330 89.092 203.025 88.309 203.015 C 87.654 203.007 86.816 203.489 86.446 204.087 "/></g>
<g fill="#093041FD" stroke="#093041FD">
<path d="M 204.575 175.605 C 203.073 177.865 203.014 178.203 204.306 177.144 C 205.216 176.398 206.082 175.095 206.231 174.249 C 206.379 173.402 205.634 174.013 204.575 175.605 "/></g>
<g fill="#093041FD" stroke="#093041FD">
<path d="M 226.553 160.915 C 226.231 161.436 226.394 162.125 226.915 162.447 C 227.436 162.769 228.125 162.606 228.447 162.085 C 228.769 161.564 228.606 160.875 228.085 160.553 C 227.564 160.231 226.875 160.394 226.553 160.915 "/></g>
<g fill="#093041FD" stroke="#093041FD">
<path d="M 114.200 157.200 C 113.540 157.860 113.000 158.760 113.000 159.200 C 113.000 159.640 113.900 159.100 115.000 158.000 C 116.100 156.900 116.640 156.000 116.200 156.000 C 115.760 156.000 114.860 156.540 114.200 157.200 "/></g>
<g fill="#093041FD" stroke="#093041FD">
<path d="M 154.000 103.000 C 154.825 103.533 156.175 103.945 157.000 103.914 C 157.989 103.878 157.819 103.567 156.500 103.000 C 153.751 101.819 152.172 101.819 154.000 103.000 "/></g>
<g fill="#093041FD" stroke="#093041FD">
<path d="M 54.750 88.167 C 53.788 89.175 53.395 90.000 53.878 90.000 C 54.886 90.000 57.483 87.108 56.893 86.643 C 56.677 86.472 55.713 87.158 54.750 88.167 "/></g>
<g fill="#093041FD" stroke="#093041FD">
<path d="M 78.676 51.401 C 78.352 52.245 78.587 53.245 79.198 53.622 C 79.871 54.038 80.028 53.854 79.595 53.155 C 79.200 52.515 79.444 52.000 80.141 52.000 C 81.033 52.000 81.089 51.689 80.333 50.933 C 79.576 50.176 79.094 50.313 78.676 51.401 "/></g>
<g fill="#093041FD" stroke="#093041FD">
<path d="M 187.609 44.931 C 186.716 46.227 188.729 47.290 190.250 46.325 C 191.144 45.758 191.004 45.528 189.761 45.516 C 188.805 45.507 188.074 45.163 188.136 44.750 C 188.199 44.338 187.961 44.419 187.609 44.931 "/></g>
<g fill="#D1E5E5FD" stroke="#D1E5E5FD">
<path d="M 195.227 140.340 C 196.364 142.385 196.430 142.395 196.464 140.525 C 196.484 139.438 195.943 138.466 195.263 138.365 C 194.291 138.220 194.283 138.643 195.227 140.340 "/></g>
<g fill="#D1E5E5FD" stroke="#D1E5E5FD">
<path d="M 132.063 105.250 L 132.127 107.500 133.031 105.250 C 133.596 103.844 133.573 103.000 132.968 103.000 C 132.435 103.000 132.029 104.013 132.063 105.250 "/></g>
<g fill="#FDF5E5FD" stroke="#FDF5E5FD">
<path d="M 202.850 154.833 C 202.479 157.715 202.681 158.363 203.433 156.707 C 203.881 155.721 203.966 154.633 203.624 154.290 C 203.281 153.947 202.933 154.192 202.850 154.833 "/></g>
<g fill="#FDF1E1FD" stroke="#FDF1E1FD">
<path d="M 144.000 122.559 C 144.000 123.416 144.450 123.840 145.000 123.500 C 145.550 123.160 146.000 122.459 146.000 121.941 C 146.000 121.423 145.550 121.000 145.000 121.000 C 144.450 121.000 144.000 121.702 144.000 122.559 "/></g>
<g fill="#F9B494FD" stroke="#F9B494FD">
<path d="M 148.777 196.557 C 150.000 197.413 151.000 197.686 151.000 197.164 C 151.000 196.641 150.288 195.941 149.418 195.607 C 146.711 194.568 146.463 194.936 148.777 196.557 "/></g>
<g fill="#093041FD" stroke="#093041FD">
<path d="M 70.554 228.913 C 70.167 229.538 70.629 230.000 71.641 230.000 C 72.908 230.000 73.096 229.696 72.313 228.913 C 71.530 228.130 71.038 228.130 70.554 228.913 "/></g>
<g fill="#093041FD" stroke="#093041FD">
<path d="M 196.510 200.984 C 196.176 201.525 196.262 202.028 196.701 202.102 C 197.140 202.176 197.275 202.177 197.000 202.103 C 196.725 202.030 197.175 201.533 198.000 201.000 C 198.901 200.418 199.025 200.025 198.309 200.015 C 197.654 200.007 196.844 200.443 196.510 200.984 "/></g>
<g fill="#093041FD" stroke="#093041FD">
<path d="M 61.000 200.950 C 61.000 201.528 61.788 201.986 62.750 201.970 C 64.417 201.941 64.417 201.891 62.750 200.920 C 61.547 200.219 61.000 200.229 61.000 200.950 "/></g>
<g fill="#093041FD" stroke="#093041FD">
<path d="M 157.128 174.387 C 156.300 175.359 156.184 176.000 156.834 176.000 C 157.427 176.000 158.045 175.274 158.206 174.387 C 158.476 172.904 158.390 172.904 157.128 174.387 "/></g>
<g fill="#093041FD" stroke="#093041FD">
<path d="M 116.950 149.199 C 117.605 150.833 117.892 151.009 117.937 149.809 C 117.971 148.879 117.556 147.844 117.013 147.508 C 116.374 147.113 116.352 147.708 116.950 149.199 "/></g>
<g fill="#093041FD" stroke="#093041FD">
<path d="M 85.063 134.191 C 85.029 135.121 85.444 136.156 85.987 136.492 C 86.626 136.887 86.648 136.292 86.050 134.801 C 85.395 133.167 85.108 132.991 85.063 134.191 "/></g>
<g fill="#093041FD" stroke="#093041FD">
<path d="M 212.734 79.770 C 211.912 80.940 213.730 82.603 214.733 81.600 C 215.063 81.270 214.808 81.000 214.167 81.000 C 213.525 81.000 213.113 80.478 213.250 79.840 C 213.425 79.027 213.270 79.006 212.734 79.770 "/></g>
<g fill="#093041FD" stroke="#093041FD">
<path d="M 145.152 69.955 C 145.412 70.736 146.264 71.588 147.045 71.848 C 147.938 72.146 147.762 71.619 146.571 70.429 C 145.381 69.238 144.854 69.063 145.152 69.955 "/></g>
<g fill="#093041FD" stroke="#093041FD">
<path d="M 108.687 51.087 C 109.470 51.870 109.962 51.870 110.446 51.087 C 110.833 50.462 110.371 50.000 109.359 50.000 C 108.092 50.000 107.904 50.304 108.687 51.087 "/></g>
<g fill="#CDE8E5FD" stroke="#CDE8E5FD">
<path d="M 201.950 154.199 C 202.605 155.833 202.892 156.009 202.937 154.809 C 202.971 153.879 202.556 152.844 202.013 152.508 C 201.374 152.113 201.352 152.708 201.950 154.199 "/></g>
<g fill="#CDE8E5FD" stroke="#CDE8E5FD">
<path d="M 200.030 149.250 C 200.014 150.213 200.472 151.000 201.050 151.000 C 201.771 151.000 201.781 150.453 201.080 149.250 C 200.109 147.583 200.059 147.583 200.030 149.250 "/></g>
<g fill="#CDE8E5FD" stroke="#CDE8E5FD">
<path d="M 184.000 141.950 C 184.000 142.528 184.788 142.986 185.750 142.970 C 187.417 142.941 187.417 142.891 185.750 141.920 C 184.547 141.219 184.000 141.229 184.000 141.950 "/></g>
<g fill="#CDE8E5FD" stroke="#CDE8E5FD">
<path d="M 114.500 101.000 C 114.840 101.550 115.568 102.000 116.118 102.000 C 116.668 102.000 116.840 101.550 116.500 101.000 C 116.160 100.450 115.432 100.000 114.882 100.000 C 114.332 100.000 114.160 100.450 114.500 101.000 "/></g>
<g fill="#CDE8E5FD" stroke="#CDE8E5FD">
<path d="M 129.000 97.359 C 129.000 98.371 129.462 98.833 130.087 98.446 C 130.870 97.962 130.870 97.470 130.087 96.687 C 129.304 95.904 129.000 96.092 129.000 97.359 "/></g>
<g fill="#D1E5E5FD" stroke="#D1E5E5FD">
<path d="M 109.000 150.000 C 109.000 150.550 109.450 151.000 110.000 151.000 C 110.550 151.000 111.000 150.550 111.000 150.000 C 111.000 149.450 110.550 149.000 110.000 149.000 C 109.450 149.000 109.000 149.450 109.000 150.000 "/></g>
<g fill="#D1E5E5FD" stroke="#D1E5E5FD">
<path d="M 96.898 109.701 C 96.824 110.140 96.823 110.275 96.897 110.000 C 96.970 109.725 97.467 110.175 98.000 111.000 C 98.582 111.901 98.975 112.025 98.985 111.309 C 99.002 109.949 97.103 108.485 96.898 109.701 "/></g>
<g fill="#D1E5E5FD" stroke="#D1E5E5FD">
<path d="M 104.000 88.359 C 104.000 89.371 104.462 89.833 105.087 89.446 C 105.870 88.962 105.870 88.470 105.087 87.687 C 104.304 86.904 104.000 87.092 104.000 88.359 "/></g>
<g fill="#F8B598FD" stroke="#F8B598FD">
<path d="M 101.000 160.000 C 101.825 160.533 102.950 160.969 103.500 160.969 C 104.050 160.969 103.825 160.533 103.000 160.000 C 102.175 159.467 101.050 159.031 100.500 159.031 C 99.950 159.031 100.175 159.467 101.000 160.000 "/></g>
<g fill="#FDF5E5FD" stroke="#FDF5E5FD">
<path d="M 84.000 154.359 C 84.000 155.371 84.462 155.833 85.087 155.446 C 85.870 154.962 85.870 154.470 85.087 153.687 C 84.304 152.904 84.000 153.092 84.000 154.359 "/></g>
<g fill="#FDF5E5FD" stroke="#FDF5E5FD">
<path d="M 202.000 152.000 C 201.835 152.550 201.700 153.450 201.700 154.000 C 201.700 154.667 201.800 154.667 202.000 154.000 C 202.165 153.450 202.300 152.550 202.300 152.000 C 202.300 151.333 202.200 151.333 202.000 152.000 "/></g>
<g fill="#FDF1E1FD" stroke="#FDF1E1FD">
<path d="M 130.000 125.000 C 130.000 125.550 130.450 126.000 131.000 126.000 C 131.550 126.000 132.000 125.550 132.000 125.000 C 132.000 124.450 131.550 124.000 131.000 124.000 C 130.450 124.000 130.000 124.450 130.000 125.000 "/></g>
<g fill="#91A9B4FD" stroke="#91A9B4FD">
<path d="M 45.877 154.277 C 46.399 154.799 47.397 154.873 48.096 154.441 C 48.965 153.904 48.666 153.604 47.147 153.492 C 45.749 153.389 45.280 153.680 45.877 154.277 "/></g>
<g fill="#093041FD" stroke="#093041FD">
<path d="M 217.000 224.800 C 217.000 225.460 217.540 226.000 218.200 226.000 C 219.133 226.000 219.133 225.733 218.200 224.800 C 217.267 223.867 217.000 223.867 217.000 224.800 "/></g>
<g fill="#093041FD" stroke="#093041FD">
<path d="M 52.000 188.800 C 52.000 189.460 52.540 190.000 53.200 190.000 C 54.133 190.000 54.133 189.733 53.200 188.800 C 52.267 187.867 52.000 187.867 52.000 188.800 "/></g>
<g fill="#093041FD" stroke="#093041FD">
<path d="M 121.387 177.157 C 122.776 177.963 123.090 177.955 122.578 177.126 C 122.195 176.507 121.346 176.014 120.691 176.030 C 120.036 176.047 120.349 176.554 121.387 177.157 "/></g>
<g fill="#093041FD" stroke="#093041FD">
<path d="M 178.624 153.799 C 178.212 154.466 178.390 155.000 179.024 155.000 C 179.653 155.000 179.987 154.460 179.766 153.799 C 179.455 152.865 179.202 152.865 178.624 153.799 "/></g>
<g fill="#093041FD" stroke="#093041FD">
<path d="M 45.624 151.799 C 45.212 152.466 45.390 153.000 46.024 153.000 C 46.653 153.000 46.987 152.460 46.766 151.799 C 46.455 150.865 46.202 150.865 45.624 151.799 "/></g>
<g fill="#093041FD" stroke="#093041FD">
<path d="M 46.624 139.799 C 46.212 140.466 46.390 141.000 47.024 141.000 C 47.653 141.000 47.987 140.460 47.766 139.799 C 47.455 138.865 47.202 138.865 46.624 139.799 "/></g>
<g fill="#093041FD" stroke="#093041FD">
<path d="M 225.800 86.200 C 226.733 87.133 227.000 87.133 227.000 86.200 C 227.000 85.540 226.460 85.000 225.800 85.000 C 224.867 85.000 224.867 85.267 225.800 86.200 "/></g>
<g fill="#093041FD" stroke="#093041FD">
<path d="M 152.624 31.799 C 152.212 32.466 152.390 33.000 153.024 33.000 C 153.653 33.000 153.987 32.460 153.766 31.799 C 153.455 30.865 153.202 30.865 152.624 31.799 "/></g>
<g fill="#CDE8E5FD" stroke="#CDE8E5FD">
<path d="M 151.378 169.378 L 150.500 170.256 151.378 169.378 L 152.256 168.500 151.378 169.378 "/></g>
<g fill="#CDE8E5FD" stroke="#CDE8E5FD">
<path d="M 85.750 151.666 C 85.338 152.033 85.030 152.821 85.066 153.417 C 85.102 154.013 85.439 153.712 85.816 152.750 C 86.192 151.787 86.163 151.300 85.750 151.666 "/></g>
<g fill="#CDE8E5FD" stroke="#CDE8E5FD">
<path d="M 87.000 149.047 C 86.010 149.656 85.925 149.975 86.750 149.985 C 87.438 149.993 88.113 149.578 88.250 149.062 C 88.404 148.485 87.924 148.479 87.000 149.047 "/></g>
<g fill="#CDE8E5FD" stroke="#CDE8E5FD">
<path d="M 87.843 145.613 C 88.446 146.651 88.953 146.964 88.970 146.309 C 88.986 145.654 88.493 144.805 87.874 144.422 C 87.045 143.910 87.037 144.224 87.843 145.613 "/></g>
<g fill="#CDE8E5FD" stroke="#CDE8E5FD">
<path d="M 91.500 140.500 L 93.000 142.000 91.500 140.500 L 90.000 139.000 91.500 140.500 "/></g>
<g fill="#CDE8E5FD" stroke="#CDE8E5FD">
<path d="M 130.695 106.352 C 130.275 107.448 130.413 107.863 131.064 107.460 C 131.637 107.106 131.939 106.318 131.736 105.709 C 131.533 105.100 131.065 105.389 130.695 106.352 "/></g>
<g fill="#E9FDFDFD" stroke="#E9FDFDFD">
<path d="M 81.000 124.200 C 81.000 125.133 81.267 125.133 82.200 124.200 C 83.133 123.267 83.133 123.000 82.200 123.000 C 81.540 123.000 81.000 123.540 81.000 124.200 "/></g>
<g fill="#E9FDFDFD" stroke="#E9FDFDFD">
<path d="M 173.843 111.613 C 174.446 112.651 174.953 112.964 174.970 112.309 C 174.986 111.654 174.493 110.805 173.874 110.422 C 173.045 109.910 173.037 110.224 173.843 111.613 "/></g>
<g fill="#FDB494FD" stroke="#FDB494FD">
<path d="M 203.564 147.896 C 203.249 148.407 203.745 148.714 204.668 148.578 C 205.719 148.424 205.934 148.077 205.242 147.650 C 204.635 147.274 203.880 147.385 203.564 147.896 "/></g>
<g fill="#D1E5E5FD" stroke="#D1E5E5FD">
<path d="M 68.500 184.500 L 70.000 186.000 68.500 184.500 L 67.000 183.000 68.500 184.500 "/></g>
<g fill="#D1E5E5FD" stroke="#D1E5E5FD">
<path d="M 173.750 147.666 C 173.338 148.033 173.030 148.821 173.066 149.417 C 173.102 150.013 173.439 149.712 173.816 148.750 C 174.192 147.787 174.163 147.300 173.750 147.666 "/></g>
<g fill="#D1E5E5FD" stroke="#D1E5E5FD">
<path d="M 72.422 144.874 C 72.805 145.493 73.654 145.986 74.309 145.970 C 74.964 145.953 74.651 145.446 73.613 144.843 C 72.224 144.037 71.910 144.045 72.422 144.874 "/></g>
<g fill="#D1E5E5FD" stroke="#D1E5E5FD">
<path d="M 173.800 109.200 C 174.733 110.133 175.000 110.133 175.000 109.200 C 175.000 108.540 174.460 108.000 173.800 108.000 C 172.867 108.000 172.867 108.267 173.800 109.200 "/></g>
<g fill="#D1E5E5FD" stroke="#D1E5E5FD">
<path d="M 129.422 66.126 C 128.910 66.955 129.224 66.963 130.613 66.157 C 131.651 65.554 131.964 65.047 131.309 65.030 C 130.654 65.014 129.805 65.507 129.422 66.126 "/></g>
<g fill="#F8B598FD" stroke="#F8B598FD">
<path d="M 149.422 180.126 C 148.910 180.955 149.224 180.963 150.613 180.157 C 151.651 179.554 151.964 179.047 151.309 179.030 C 150.654 179.014 149.805 179.507 149.422 180.126 "/></g>
<g fill="#F8B598FD" stroke="#F8B598FD">
<path d="M 116.800 174.200 C 117.733 175.133 118.000 175.133 118.000 174.200 C 118.000 173.540 117.460 173.000 116.800 173.000 C 115.867 173.000 115.867 173.267 116.800 174.200 "/></g>
<g fill="#F8B598FD" stroke="#F8B598FD">
<path d="M 202.422 150.126 C 201.910 150.955 202.224 150.963 203.613 150.157 C 204.651 149.554 204.964 149.047 204.309 149.030 C 203.654 149.014 202.805 149.507 202.422 150.126 "/></g>
<g fill="#F9B494FD" stroke="#F9B494FD">
<path d="M 164.750 196.666 C 164.338 197.033 164.030 197.821 164.066 198.417 C 164.102 199.013 164.439 198.712 164.816 197.750 C 165.192 196.787 165.163 196.300 164.750 196.666 "/></g>
<g fill="#91A9B4FD" stroke="#91A9B4FD">
<path d="M 218.843 224.613 C 219.446 225.651 219.953 225.964 219.970 225.309 C 219.986 224.654 219.493 223.805 218.874 223.422 C 218.045 222.910 218.037 223.224 218.843 224.613 "/></g>
<g fill="#91A9B4FD" stroke="#91A9B4FD">
<path d="M 88.695 205.352 C 88.275 206.448 88.413 206.863 89.064 206.460 C 89.637 206.106 89.939 205.318 89.736 204.709 C 89.533 204.100 89.065 204.389 88.695 205.352 "/></g>
<g fill="#91A9B4FD" stroke="#91A9B4FD">
<path d="M 97.500 198.500 L 99.000 200.000 97.500 198.500 L 96.000 197.000 97.500 198.500 "/></g>
<g fill="#91A9B4FD" stroke="#91A9B4FD">
<path d="M 210.564 195.104 C 210.880 195.615 211.635 195.726 212.242 195.350 C 212.934 194.923 212.719 194.576 211.668 194.422 C 210.745 194.286 210.249 194.593 210.564 195.104 "/></g>
<g fill="#91A9B4FD" stroke="#91A9B4FD">
<path d="M 224.422 86.874 C 224.805 87.493 225.654 87.986 226.309 87.970 C 226.964 87.953 226.651 87.446 225.613 86.843 C 224.224 86.037 223.910 86.045 224.422 86.874 "/></g>
<g fill="#91A9B4FD" stroke="#91A9B4FD">
<path d="M 212.422 79.126 C 211.910 79.955 212.224 79.963 213.613 79.157 C 214.651 78.554 214.964 78.047 214.309 78.030 C 213.654 78.014 212.805 78.507 212.422 79.126 "/></g>
<g fill="#C9E1E1FD" stroke="#C9E1E1FD">
<path d="M 202.564 145.104 C 202.880 145.615 203.635 145.726 204.242 145.350 C 204.934 144.923 204.719 144.576 203.668 144.422 C 202.745 144.286 202.249 144.593 202.564 145.104 "/></g>
<g fill="#042939FD" stroke="#042939FD">
<path d="M 176.030 144.691 C 176.014 145.346 176.507 146.195 177.126 146.578 C 177.955 147.090 177.963 146.776 177.157 145.387 C 176.554 144.349 176.047 144.036 176.030 144.691 "/></g>
<g fill="#042939FD" stroke="#042939FD">
<path d="M 101.000 106.047 C 100.010 106.656 99.925 106.975 100.750 106.985 C 101.438 106.993 102.113 106.578 102.250 106.062 C 102.404 105.485 101.924 105.479 101.000 106.047 "/></g>
<g fill="#042939FD" stroke="#042939FD">
<path d="M 103.624 94.799 C 103.212 95.466 103.390 96.000 104.024 96.000 C 104.653 96.000 104.987 95.460 104.766 94.799 C 104.455 93.865 104.202 93.865 103.624 94.799 "/></g>
<g fill="#042939FD" stroke="#042939FD">
<path d="M 222.624 64.799 C 222.212 65.466 222.390 66.000 223.024 66.000 C 223.653 66.000 223.987 65.460 223.766 64.799 C 223.455 63.865 223.202 63.865 222.624 64.799 "/></g>
<g fill="#052530FD" stroke="#052530FD">
<path d="M 97.500 188.500 L 99.000 190.000 97.500 188.500 L 96.000 187.000 97.500 188.500 "/></g>
<g fill="#052530FD" stroke="#052530FD">
<path d="M 103.750 101.666 C 103.338 102.033 103.030 102.821 103.066 103.417 C 103.102 104.013 103.439 103.712 103.816 102.750 C 104.192 101.787 104.163 101.300 103.750 101.666 "/></g>
<g fill="#00151DFD" stroke="#00151DFD">
<path d="M 113.378 157.378 L 112.500 158.256 113.378 157.378 L 114.256 156.500 113.378 157.378 "/></g>
<g fill="#00151DFD" stroke="#00151DFD">
<path d="M 46.624 152.799 C 46.212 153.466 46.390 154.000 47.024 154.000 C 47.653 154.000 47.987 153.460 47.766 152.799 C 47.455 151.865 47.202 151.865 46.624 152.799 "/></g>
<g fill="#082D3DFD" stroke="#082D3DFD">
<path d="M 197.695 218.352 C 197.275 219.448 197.413 219.863 198.064 219.460 C 198.637 219.106 198.939 218.318 198.736 217.709 C 198.533 217.100 198.065 217.389 197.695 218.352 "/></g>
<g fill="#082D3DFD" stroke="#082D3DFD">
<path d="M 71.843 178.613 C 72.446 179.651 72.953 179.964 72.970 179.309 C 72.986 178.654 72.493 177.805 71.874 177.422 C 71.045 176.910 71.037 177.224 71.843 178.613 "/></g>
<g fill="#082D3DFD" stroke="#082D3DFD">
<path d="M 146.422 174.126 C 145.910 174.955 146.224 174.963 147.613 174.157 C 148.651 173.554 148.964 173.047 148.309 173.030 C 147.654 173.014 146.805 173.507 146.422 174.126 "/></g>
</svg>
