<?xml version="1.0" encoding="utf-8"?>
<!DOCTYPE svg PUBLIC "-//W3C//DTD SVG 20010904//EN" "http://www.w3.org/TR/2001/REC-SVG-20010904/DTD/svg10.dtd">
<svg version="1.0" xmlns="http://www.w3.org/2000/svg" width="602pt" height="322pt" viewBox="0 0 602 322" style="" preserveAspectRatio="xMidYMid meet">
<g fill="#030803FB" stroke="#030803FB">
<path d="M 1.000 161.011 L 1.000 321.000 43.519 321.000 L 86.038 321.000 85.447 318.644 C 84.701 315.671 87.741 312.062 89.211 314.176 C 89.834 315.072 89.927 314.773 89.498 313.250 C 89.126 311.927 89.305 311.000 89.933 311.000 C 91.139 311.000 91.312 311.917 91.118 317.259 L 90.982 321.019 218.035 320.985 C 318.051 320.958 344.931 320.690 344.352 319.726 C 343.774 318.764 343.943 318.764 345.136 319.730 C 346.320 320.687 374.742 320.965 473.828 320.985 L 601.000 321.010 601.000 161.002 L 601.000 0.993 330.034 1.004 C 72.843 1.013 59.096 1.102 59.610 2.757 C 60.116 4.389 60.081 4.391 59.048 2.789 C 58.049 1.241 55.227 1.075 29.472 1.050 L 1.000 1.022 1.000 161.011 M 121.223 230.067 C 121.498 231.939 121.214 233.000 120.438 233.000 C 119.769 233.000 119.285 232.438 119.361 231.750 C 119.438 231.063 119.050 230.396 118.500 230.269 C 117.950 230.143 117.500 231.003 117.500 232.181 C 117.500 233.359 116.875 234.534 116.111 234.791 C 115.267 235.076 114.996 234.816 115.420 234.130 C 115.821 233.481 115.476 233.000 114.609 233.000 C 113.779 233.000 112.635 233.788 112.067 234.750 C 111.268 236.104 111.172 235.764 111.642 233.250 C 112.128 230.655 111.919 230.000 110.606 230.000 C 109.350 230.000 109.111 230.592 109.592 232.511 C 110.082 234.464 109.894 234.897 108.749 234.457 C 107.721 234.063 107.460 233.075 107.887 231.196 C 108.509 228.460 111.325 227.099 112.484 228.973 C 112.833 229.538 113.616 230.000 114.226 230.000 C 114.835 230.000 115.036 229.703 114.673 229.339 C 113.817 228.483 118.144 226.221 119.646 226.739 C 120.277 226.957 120.986 228.454 121.223 230.067 M 68.810 89.756 C 69.151 92.064 72.000 95.071 72.000 93.122 C 72.000 92.505 72.525 92.113 73.167 92.250 C 73.808 92.388 73.375 91.504 72.203 90.286 C 70.052 88.051 70.258 87.317 73.000 87.435 C 73.825 87.471 74.644 88.513 74.820 89.750 C 74.995 90.988 75.670 92.018 76.320 92.040 C 76.969 92.062 76.213 92.777 74.640 93.630 C 72.784 94.635 71.437 94.837 70.805 94.205 C 69.593 92.993 66.000 93.841 66.000 95.339 C 66.000 95.947 65.353 95.522 64.563 94.394 C 62.667 91.686 63.197 88.403 65.464 88.817 C 66.601 89.024 66.945 88.721 66.461 87.937 C 65.992 87.178 66.230 86.908 67.111 87.199 C 67.875 87.451 68.640 88.601 68.810 89.756 M 72.683 239.000 C 73.755 239.000 74.067 238.366 73.695 236.943 C 73.354 235.636 73.584 235.026 74.329 235.270 C 76.016 235.823 76.449 240.982 74.816 241.077 C 74.092 241.119 72.710 241.304 71.745 241.489 C 70.780 241.673 70.215 241.461 70.489 241.017 C 70.764 240.573 70.331 239.957 69.526 239.648 C 67.571 238.898 66.543 240.744 67.962 242.455 C 68.742 243.395 68.769 244.025 68.049 244.470 C 67.472 244.826 67.000 244.493 67.000 243.730 C 67.000 242.953 66.057 242.376 64.862 242.421 C 62.587 242.505 61.635 240.074 62.795 237.142 C 63.291 235.890 63.570 236.147 63.973 238.222 C 64.372 240.283 64.849 240.727 65.936 240.049 C 67.126 239.306 67.147 238.883 66.063 237.576 C 64.964 236.251 65.014 236.000 66.378 236.000 C 67.270 236.000 68.000 236.450 68.000 237.000 C 68.000 239.070 70.006 237.903 70.150 235.750 C 70.271 233.935 70.380 234.032 70.716 236.250 C 70.964 237.888 71.760 239.000 72.683 239.000 M 55.239 191.538 C 56.158 191.891 56.492 193.100 56.208 195.038 C 55.693 198.544 53.274 198.969 50.732 196.000 C 48.132 192.963 45.007 193.370 44.970 196.750 C 44.943 199.132 44.800 199.262 43.902 197.719 C 41.595 193.754 44.948 190.831 49.196 193.105 C 50.204 193.644 50.969 193.729 50.896 193.293 C 50.509 190.984 52.110 190.337 55.239 191.538 M 59.632 28.832 C 58.471 29.056 58.020 28.777 58.441 28.096 C 58.813 27.493 58.754 27.007 58.309 27.015 C 56.705 27.046 55.224 28.539 54.852 30.500 C 54.637 31.632 53.719 32.464 52.736 32.417 C 51.661 32.365 51.586 32.270 52.539 32.167 C 53.796 32.030 53.700 31.595 52.014 29.785 C 50.880 28.567 50.173 26.992 50.444 26.285 C 50.715 25.578 50.389 24.943 49.719 24.874 C 49.048 24.804 50.863 24.666 53.750 24.566 C 56.638 24.466 59.000 24.748 59.000 25.192 C 59.000 25.636 59.450 26.000 60.000 26.000 C 60.550 26.000 60.947 25.663 60.882 25.250 C 60.816 24.838 60.873 24.163 61.007 23.750 C 61.140 23.338 61.306 24.231 61.375 25.736 C 61.463 27.673 60.954 28.578 59.632 28.832 M 150.699 269.712 C 151.255 268.835 151.474 268.914 151.489 270.000 C 151.500 270.825 152.086 272.513 152.790 273.750 C 153.690 275.332 153.735 276.000 152.942 276.000 C 152.321 276.000 151.577 275.100 151.290 274.000 C 151.002 272.900 150.317 272.000 149.767 272.000 C 149.217 272.000 148.984 272.830 149.249 273.843 C 149.538 274.949 148.990 276.150 147.879 276.843 C 145.416 278.382 145.253 278.342 143.933 275.875 C 142.156 272.554 144.478 268.851 147.594 270.036 C 149.188 270.642 150.173 270.539 150.699 269.712 M 114.000 183.167 C 114.000 183.808 114.299 184.034 114.665 183.668 C 115.031 183.302 115.451 184.127 115.597 185.501 C 115.744 186.876 115.444 188.000 114.932 188.000 C 114.419 188.000 114.000 187.114 114.000 186.031 C 114.000 184.762 113.507 184.252 112.611 184.596 C 111.829 184.896 111.435 185.946 111.709 186.997 C 112.088 188.444 111.766 188.752 110.279 188.363 C 109.218 188.085 107.778 188.562 107.058 189.430 C 105.265 191.590 104.507 191.408 103.182 188.500 C 101.895 185.675 103.346 185.048 104.920 187.750 C 105.740 189.159 105.968 189.207 106.088 188.000 C 106.170 187.175 106.150 185.876 106.043 185.114 C 105.919 184.221 106.424 183.949 107.463 184.347 C 108.420 184.715 109.307 184.363 109.645 183.483 C 110.315 181.736 114.000 181.468 114.000 183.167 M 60.219 237.923 C 61.563 238.067 59.793 241.000 58.362 241.000 C 57.578 241.000 56.673 241.688 56.350 242.529 C 55.838 243.866 55.607 243.845 54.523 242.362 C 53.841 241.429 52.319 240.519 51.141 240.339 C 49.402 240.074 49.000 240.518 49.000 242.706 C 49.000 245.949 47.331 244.657 46.836 241.032 C 46.555 238.968 46.948 238.527 49.229 238.343 C 50.730 238.222 52.219 238.545 52.538 239.062 C 52.857 239.578 53.568 240.000 54.118 240.000 C 54.668 240.000 54.864 239.588 54.553 239.085 C 53.894 238.020 55.834 237.166 58.000 237.569 C 58.825 237.722 59.823 237.881 60.219 237.923 M 63.656 190.568 C 64.480 195.504 64.247 199.000 63.094 199.000 C 62.595 199.000 62.404 197.988 62.668 196.750 C 63.119 194.640 63.057 194.611 61.685 196.289 C 60.340 197.935 60.092 197.949 58.611 196.468 C 56.582 194.439 56.596 193.905 58.750 191.248 C 60.467 189.130 63.349 188.730 63.656 190.568 M 106.758 311.686 C 107.628 312.507 107.684 313.077 106.939 313.537 C 106.348 313.903 106.103 314.825 106.395 315.586 C 107.233 317.772 103.452 319.310 101.656 317.513 C 100.159 316.017 100.108 314.849 101.409 311.871 C 102.219 310.019 104.892 309.926 106.758 311.686 M 132.334 226.750 C 131.844 228.171 132.032 228.124 133.334 226.500 C 134.313 225.277 134.997 224.986 135.093 225.750 C 135.827 231.600 135.239 232.479 131.733 230.772 C 130.569 230.205 129.235 230.422 127.828 231.408 C 125.575 232.986 122.000 232.026 122.000 229.842 C 122.000 229.071 122.373 229.064 123.284 229.821 C 123.990 230.407 125.345 230.772 126.294 230.633 C 128.079 230.371 131.036 228.000 129.578 228.000 C 129.125 228.000 129.315 227.325 130.000 226.500 C 131.694 224.458 133.073 224.606 132.334 226.750 M 93.150 186.714 C 93.528 189.950 93.450 190.378 92.781 188.750 C 92.386 187.788 91.486 187.007 90.781 187.015 C 89.883 187.026 89.949 187.325 91.000 188.015 C 92.333 188.891 92.333 189.109 91.000 189.985 C 89.716 190.828 89.752 190.972 91.250 190.985 C 92.213 190.993 93.000 191.354 93.000 191.786 C 93.000 193.697 88.894 192.425 88.374 190.353 C 87.562 187.121 82.810 187.614 81.968 191.018 C 81.387 193.366 81.327 193.324 80.850 190.250 C 80.347 187.006 80.355 187.000 84.673 187.000 C 87.053 187.000 89.000 186.646 89.000 186.214 C 89.000 184.872 92.991 185.353 93.150 186.714 M 73.441 133.250 C 73.813 135.723 73.557 136.000 70.896 136.000 C 66.701 136.000 66.151 133.515 69.586 130.081 C 72.604 127.063 72.498 126.975 73.441 133.250 M 98.010 231.610 C 99.475 233.075 96.922 237.870 94.764 237.707 C 92.983 237.573 92.412 234.695 93.569 231.680 C 94.188 230.068 96.433 230.033 98.010 231.610 M 61.683 271.000 C 60.320 271.000 60.024 271.501 60.500 273.000 C 60.864 274.147 60.680 275.000 60.067 275.000 C 59.480 275.000 59.000 274.052 59.000 272.893 C 59.000 271.464 58.534 270.965 57.551 271.342 C 56.584 271.713 56.286 271.418 56.656 270.455 C 56.960 269.661 57.689 269.308 58.275 269.670 C 58.949 270.087 59.098 269.699 58.681 268.612 C 58.290 267.593 58.424 267.144 59.011 267.507 C 59.555 267.843 60.000 267.674 60.000 267.132 C 60.000 266.590 60.751 266.001 61.669 265.823 C 62.887 265.587 63.359 266.242 63.419 268.250 C 63.478 270.271 63.018 271.000 61.683 271.000 M 81.267 232.250 C 81.538 234.038 81.354 236.277 80.857 237.227 C 80.174 238.533 80.301 238.822 81.376 238.409 C 82.158 238.109 83.063 238.293 83.388 238.818 C 84.166 240.077 80.980 240.870 78.557 240.020 C 76.847 239.420 76.822 239.282 78.323 238.706 C 79.245 238.352 80.000 237.347 80.000 236.472 C 80.000 235.598 79.597 235.131 79.105 235.435 C 78.612 235.740 77.943 235.293 77.616 234.442 C 77.276 233.557 77.445 233.157 78.011 233.507 C 78.564 233.849 79.000 232.991 79.000 231.559 C 79.000 227.887 80.682 228.399 81.267 232.250 M 129.697 180.792 C 130.406 181.242 130.559 182.095 130.072 182.883 C 129.497 183.814 129.045 183.881 128.566 183.107 C 128.190 182.498 127.390 182.000 126.788 182.000 C 126.186 182.000 126.722 182.891 127.978 183.981 C 129.959 185.699 130.045 186.045 128.631 186.588 C 126.079 187.567 124.053 186.323 124.491 184.046 C 125.250 180.103 126.947 179.043 129.697 180.792 M 72.384 24.872 C 71.409 26.740 71.011 26.994 71.006 25.750 C 70.997 23.196 69.195 23.608 68.820 26.250 C 68.589 27.876 67.945 28.404 66.500 28.155 C 63.791 27.688 63.521 27.282 64.849 25.682 C 65.472 24.931 65.687 24.020 65.325 23.658 C 64.963 23.296 65.244 23.000 65.950 23.000 C 66.741 23.000 67.033 23.767 66.710 25.001 C 66.422 26.102 66.595 26.751 67.093 26.442 C 67.592 26.134 68.000 25.116 68.000 24.180 C 68.000 23.000 68.881 22.443 70.878 22.361 C 73.673 22.247 73.716 22.318 72.384 24.872 M 48.630 117.147 C 47.117 118.026 47.022 118.402 48.130 119.117 C 49.195 119.803 49.225 120.178 48.268 120.798 C 47.591 121.236 47.228 122.586 47.461 123.798 C 47.694 125.009 47.461 126.000 46.943 126.000 C 46.424 126.000 46.000 125.325 46.000 124.500 C 46.000 122.148 45.608 121.540 44.076 121.519 C 42.964 121.504 43.034 121.117 44.398 119.750 C 45.358 118.788 45.859 118.000 45.512 118.000 C 45.166 118.000 45.160 117.550 45.500 117.000 C 45.840 116.450 47.104 116.014 48.309 116.030 C 50.369 116.059 50.388 116.126 48.630 117.147 M 53.320 270.665 C 53.085 272.802 53.404 274.632 54.086 275.053 C 54.739 275.457 54.911 276.335 54.475 277.040 C 53.391 278.795 50.922 275.366 51.739 273.239 C 52.108 272.276 51.929 271.926 51.275 272.330 C 50.689 272.692 49.966 272.353 49.668 271.577 C 49.370 270.801 49.873 269.879 50.785 269.529 C 52.215 268.980 52.241 268.764 50.972 267.962 C 49.792 267.215 49.919 267.028 51.612 267.015 C 53.453 267.002 53.672 267.471 53.320 270.665 M 97.198 315.750 C 97.272 316.438 98.046 317.007 98.917 317.015 C 100.304 317.029 100.314 317.151 99.000 318.000 C 98.175 318.533 97.950 319.007 98.500 319.052 C 99.050 319.098 98.012 319.329 96.192 319.565 C 94.116 319.836 93.118 319.618 93.511 318.982 C 93.856 318.424 94.526 318.207 95.000 318.500 C 96.671 319.533 96.997 317.140 95.402 315.545 C 94.000 314.143 93.962 313.507 95.113 310.726 L 96.440 307.523 96.751 311.012 C 96.923 312.930 97.123 315.063 97.198 315.750 M 120.360 183.551 L 117.500 185.853 120.289 185.560 C 122.003 185.379 122.934 185.697 122.706 186.383 C 122.501 186.997 121.246 187.500 119.917 187.500 C 118.026 187.500 117.483 186.956 117.424 185.000 C 117.320 181.565 117.586 181.250 120.591 181.250 L 123.219 181.250 120.360 183.551 M 83.105 89.625 C 82.497 89.694 81.550 89.806 81.000 89.875 C 78.994 90.126 80.064 92.002 82.250 92.068 L 84.500 92.135 82.229 93.230 C 80.358 94.131 79.712 93.988 78.564 92.419 C 77.527 91.001 77.469 90.323 78.335 89.772 C 78.976 89.364 79.107 89.024 78.628 89.015 C 78.148 89.007 78.325 88.314 79.021 87.475 C 80.149 86.116 80.501 86.143 82.248 87.725 C 83.327 88.701 83.713 89.556 83.105 89.625 M 85.813 131.946 C 83.953 132.692 83.843 132.921 85.250 133.115 C 86.213 133.248 85.997 133.389 84.771 133.429 C 83.033 133.484 82.496 132.890 82.329 130.727 C 82.212 129.202 82.509 128.197 82.989 128.493 C 83.469 128.790 84.165 128.542 84.535 127.943 C 84.964 127.249 85.738 127.609 86.667 128.935 C 88.003 130.842 87.931 131.096 85.813 131.946 M 71.132 194.730 C 70.512 195.678 66.448 195.782 65.540 194.873 C 64.845 194.179 66.117 190.000 67.023 190.000 C 67.457 190.000 67.576 190.907 67.286 192.015 C 66.881 193.564 67.133 193.886 68.379 193.408 C 69.271 193.066 70.039 191.822 70.086 190.643 C 70.160 188.799 70.283 188.868 70.968 191.132 C 71.406 192.580 71.480 194.199 71.132 194.730 M 38.943 82.965 C 40.419 83.877 38.025 85.008 34.668 84.985 C 32.961 84.973 32.809 84.774 33.952 84.051 C 34.751 83.545 35.722 83.328 36.109 83.567 C 36.496 83.807 36.578 83.102 36.290 82.001 C 36.002 80.901 35.257 79.993 34.633 79.985 C 34.010 79.976 34.175 79.492 35.000 78.909 C 36.230 78.039 36.255 77.750 35.137 77.303 C 33.986 76.843 33.986 76.626 35.137 75.909 C 36.162 75.271 36.651 75.946 37.110 78.634 C 37.445 80.600 38.270 82.549 38.943 82.965 M 287.581 231.640 C 287.913 233.763 288.256 235.725 288.343 236.000 C 288.429 236.275 288.057 236.500 287.516 236.500 C 286.975 236.500 286.666 235.713 286.829 234.750 C 286.992 233.788 286.599 233.000 285.954 233.000 C 285.212 233.000 285.007 232.107 285.395 230.561 C 285.732 229.220 285.548 227.839 284.987 227.492 C 284.426 227.145 284.262 226.385 284.622 225.802 C 285.533 224.328 286.839 226.904 287.581 231.640 M 141.000 271.873 C 141.981 272.130 141.900 278.000 140.916 278.000 C 140.364 278.000 140.045 277.213 140.206 276.250 C 140.405 275.069 139.850 274.500 138.500 274.500 C 137.400 274.500 136.211 273.805 135.858 272.955 C 135.366 271.771 135.833 271.449 137.858 271.576 C 139.311 271.667 140.725 271.801 141.000 271.873 M 293.492 227.250 C 293.891 228.488 294.141 230.096 294.048 230.824 C 293.954 231.552 294.394 232.770 295.025 233.530 C 295.656 234.290 295.882 235.382 295.527 235.956 C 294.543 237.549 293.444 237.202 293.292 235.250 C 293.066 232.357 292.281 228.608 291.511 226.750 C 291.106 225.773 291.224 225.000 291.776 225.000 C 292.321 225.000 293.093 226.013 293.492 227.250 M 77.651 127.468 C 77.341 128.275 77.525 129.206 78.060 129.537 C 78.595 129.868 78.762 130.577 78.430 131.113 C 78.099 131.649 78.381 132.754 79.056 133.568 C 79.732 134.382 79.996 135.337 79.643 135.691 C 79.289 136.044 79.000 135.822 79.000 135.198 C 79.000 134.574 78.399 134.294 77.664 134.576 C 76.683 134.952 76.282 133.879 76.156 130.544 C 76.051 127.766 76.417 126.000 77.099 126.000 C 77.712 126.000 77.960 126.661 77.651 127.468 M 46.595 76.155 C 47.021 76.844 46.871 77.039 46.224 76.638 C 45.627 76.269 44.856 76.425 44.510 76.984 C 44.165 77.543 44.359 78.000 44.941 78.000 C 45.523 78.000 46.000 78.436 46.000 78.969 C 46.000 79.501 45.382 79.700 44.628 79.411 C 43.616 79.022 43.359 79.622 43.649 81.692 C 44.014 84.295 43.970 84.335 43.054 82.250 C 42.510 81.013 41.603 80.000 41.039 80.000 C 40.475 80.000 40.991 78.875 42.187 77.500 C 44.598 74.727 45.536 74.441 46.595 76.155 M 156.780 272.036 C 156.732 273.705 156.243 275.350 155.692 275.690 C 155.142 276.031 154.983 275.837 155.340 275.259 C 155.697 274.682 155.316 273.952 154.494 273.636 C 152.680 272.940 152.522 270.360 154.250 269.662 C 156.577 268.723 156.866 268.994 156.780 272.036 M 76.143 186.890 C 75.197 187.490 75.122 187.957 75.893 188.434 C 76.502 188.810 77.000 189.954 77.000 190.976 C 77.000 191.997 77.563 193.034 78.250 193.280 C 78.938 193.525 79.173 194.077 78.774 194.506 C 78.375 194.934 77.434 194.775 76.682 194.151 C 75.931 193.528 74.992 193.341 74.596 193.738 C 74.200 194.134 74.331 193.260 74.888 191.796 C 75.608 189.901 75.575 189.025 74.773 188.758 C 73.382 188.294 74.670 185.994 76.309 186.015 C 77.106 186.026 77.051 186.315 76.143 186.890 M 165.000 286.913 C 165.000 287.926 164.365 289.282 163.589 289.926 C 161.548 291.620 160.627 289.515 162.562 287.581 C 163.432 286.711 163.709 286.000 163.178 286.000 C 162.648 286.000 161.951 285.315 161.629 284.477 C 161.153 283.234 161.409 283.149 163.023 284.012 C 164.110 284.594 165.000 285.899 165.000 286.913 M 126.126 276.578 C 125.507 276.195 125.000 276.321 125.000 276.858 C 125.000 277.394 125.563 278.060 126.250 278.338 C 127.419 278.809 126.946 278.950 122.772 279.375 C 122.097 279.444 121.458 278.912 121.352 278.194 C 121.203 277.178 121.475 277.150 122.580 278.067 C 123.511 278.839 124.000 278.879 124.000 278.181 C 124.000 277.597 123.467 276.789 122.816 276.387 C 122.006 275.886 122.242 275.436 123.566 274.960 C 124.818 274.510 125.809 274.796 126.376 275.770 C 126.975 276.797 126.896 277.054 126.126 276.578 M 89.922 233.525 C 89.796 234.061 88.828 234.353 87.771 234.174 C 86.090 233.890 85.994 234.120 87.005 236.010 C 87.642 237.199 87.901 238.433 87.581 238.752 C 86.785 239.548 86.389 238.951 85.640 235.823 C 85.149 233.774 85.409 233.041 86.749 232.696 C 89.131 232.082 90.195 232.360 89.922 233.525 M 103.000 191.970 C 103.000 192.895 95.608 194.876 94.563 194.230 C 94.018 193.893 94.778 193.125 96.251 192.523 C 99.067 191.372 103.000 191.050 103.000 191.970 M 40.958 105.461 L 41.965 108.500 39.593 105.623 C 38.080 103.787 36.763 103.028 35.956 103.527 C 35.159 104.020 34.940 103.905 35.365 103.218 C 36.695 101.067 39.933 102.365 40.958 105.461 M 180.583 219.000 C 180.468 221.377 180.379 221.336 178.758 218.150 C 177.598 215.871 177.487 215.159 178.410 215.925 C 179.451 216.789 179.966 216.638 180.627 215.276 C 181.100 214.299 181.311 214.175 181.095 215.000 C 180.879 215.825 180.649 217.625 180.583 219.000 M 41.004 126.396 C 40.332 127.068 40.000 126.983 40.000 126.141 C 40.000 125.449 39.592 125.134 39.093 125.442 C 38.595 125.751 38.439 125.036 38.749 123.854 C 39.287 121.795 39.367 121.782 40.659 123.548 C 41.561 124.782 41.675 125.725 41.004 126.396 M 69.000 116.500 C 69.000 117.875 68.606 119.000 68.125 119.000 C 67.644 119.000 67.250 117.875 67.250 116.500 C 67.250 115.125 67.644 114.000 68.125 114.000 C 68.606 114.000 69.000 115.125 69.000 116.500 M 107.000 238.106 C 107.000 238.598 105.875 239.000 104.500 239.000 C 101.242 239.000 101.243 237.544 104.501 237.356 C 105.875 237.276 107.000 237.614 107.000 238.106 M 127.000 225.893 C 127.000 227.002 123.924 228.257 123.136 227.469 C 122.818 227.151 123.220 226.473 124.029 225.961 C 125.899 224.778 127.000 224.753 127.000 225.893 M 307.546 226.417 C 307.521 227.746 307.139 229.195 306.697 229.637 C 306.256 230.078 306.191 229.665 306.554 228.720 C 306.926 227.750 306.745 227.000 306.138 227.000 C 305.547 227.000 305.322 226.325 305.638 225.500 C 306.521 223.200 307.598 223.717 307.546 226.417 M 37.864 109.372 C 37.734 111.395 37.706 111.388 37.292 109.235 C 37.053 107.990 36.439 107.229 35.929 107.544 C 35.418 107.860 35.000 107.361 35.000 106.437 C 35.000 105.055 35.268 104.977 36.500 106.000 C 37.325 106.685 37.939 108.202 37.864 109.372 M 85.000 267.500 C 85.000 268.325 84.577 269.000 84.059 269.000 C 82.798 269.000 81.895 267.438 82.694 266.639 C 83.820 265.513 85.000 265.954 85.000 267.500 M 147.606 211.523 C 147.791 212.785 147.547 212.796 145.841 211.601 C 144.403 210.594 144.222 210.085 145.180 209.744 C 146.770 209.178 147.321 209.583 147.606 211.523 M 37.520 120.711 C 35.687 120.950 35.662 120.878 37.250 119.937 C 38.213 119.367 39.077 118.360 39.171 117.700 C 39.265 117.040 39.387 117.388 39.441 118.474 C 39.504 119.742 38.818 120.541 37.520 120.711 M 207.000 218.635 C 207.000 219.382 206.360 219.692 205.500 219.362 C 204.675 219.045 204.000 218.459 204.000 218.060 C 204.000 217.660 204.675 217.333 205.500 217.333 C 206.325 217.333 207.000 217.919 207.000 218.635 M 389.324 309.401 C 389.620 310.172 389.330 310.705 388.681 310.585 C 387.294 310.329 386.584 308.000 387.893 308.000 C 388.384 308.000 389.028 308.631 389.324 309.401 M 157.000 287.833 C 157.000 288.291 156.092 288.599 154.982 288.517 C 153.873 288.435 153.273 288.061 153.649 287.684 C 154.610 286.724 157.000 286.830 157.000 287.833 M 159.985 224.809 C 159.971 226.266 159.835 226.293 159.000 225.000 C 157.734 223.042 157.734 221.718 159.000 222.500 C 159.550 222.840 159.993 223.879 159.985 224.809 M 49.163 224.000 C 48.626 224.000 48.473 222.988 48.823 221.750 L 49.459 219.500 49.799 221.750 C 49.986 222.988 49.700 224.000 49.163 224.000 M 197.985 218.809 C 197.971 220.266 197.835 220.293 197.000 219.000 C 195.734 217.042 195.734 215.718 197.000 216.500 C 197.550 216.840 197.993 217.879 197.985 218.809 M 195.000 214.000 C 196.293 214.835 196.266 214.971 194.809 214.985 C 193.879 214.993 192.840 214.550 192.500 214.000 C 191.718 212.734 193.042 212.734 195.000 214.000 M 239.079 212.872 C 239.130 211.988 239.327 211.912 239.632 212.658 C 240.438 214.629 238.304 215.076 236.863 213.239 C 235.630 211.665 235.666 211.630 237.250 212.872 C 238.733 214.036 239.012 214.036 239.079 212.872 M 40.595 25.750 C 40.915 27.506 39.334 27.313 38.643 25.512 C 38.324 24.681 38.579 24.129 39.220 24.262 C 39.851 24.393 40.470 25.063 40.595 25.750 M 90.000 23.333 C 90.000 25.565 88.642 26.177 88.483 24.018 C 88.401 22.908 88.709 22.000 89.167 22.000 C 89.625 22.000 90.000 22.600 90.000 23.333 "/></g>
<g fill="#080303FB" stroke="#080303FB">
<path d="M 115.544 228.599 C 114.466 229.677 113.545 229.884 112.722 229.236 C 110.266 227.300 108.000 228.198 108.000 231.108 C 108.000 232.634 108.516 234.201 109.146 234.590 C 109.952 235.089 110.095 234.514 109.627 232.649 C 109.116 230.615 109.331 230.000 110.553 230.000 C 111.699 230.000 112.053 230.768 111.822 232.750 C 111.627 234.418 111.818 235.008 112.309 234.250 C 113.257 232.785 116.410 232.527 115.507 233.989 C 115.157 234.554 115.557 234.724 116.441 234.384 C 117.503 233.977 117.798 233.042 117.384 231.396 C 116.609 228.307 118.738 228.187 119.969 231.250 C 120.790 233.292 120.879 233.200 120.937 230.250 C 120.987 227.685 120.594 227.000 119.071 227.000 C 118.011 227.000 116.423 227.720 115.544 228.599 "/></g>
<g fill="#080303FB" stroke="#080303FB">
<path d="M 51.179 192.645 C 50.409 194.021 49.888 194.152 48.795 193.245 C 48.025 192.606 46.407 192.342 45.198 192.658 C 42.880 193.265 42.380 195.493 44.000 198.000 C 44.755 199.169 44.973 198.893 44.985 196.750 C 45.004 193.369 48.130 192.961 50.732 196.000 C 52.476 198.037 56.000 198.755 56.000 197.073 C 56.000 196.564 55.213 195.941 54.250 195.689 C 52.644 195.270 52.650 195.222 54.323 195.116 C 55.488 195.042 56.026 194.372 55.812 193.261 C 55.354 190.884 52.385 190.489 51.179 192.645 "/></g>
<g fill="#080303FB" stroke="#080303FB">
<path d="M 55.097 238.791 C 54.413 240.013 53.866 240.135 52.847 239.291 C 52.106 238.679 50.332 238.402 48.905 238.676 C 46.785 239.083 46.395 239.618 46.775 241.602 C 47.421 244.982 49.000 245.661 49.000 242.559 C 49.000 239.354 52.216 239.043 54.319 242.045 C 55.525 243.767 55.845 243.846 56.344 242.545 C 56.670 241.695 57.659 241.000 58.542 241.000 C 60.718 241.000 60.000 237.762 57.750 237.433 C 56.788 237.292 55.594 237.903 55.097 238.791 "/></g>
<g fill="#080303FB" stroke="#080303FB">
<path d="M 89.498 313.250 C 89.927 314.773 89.834 315.072 89.211 314.176 C 88.464 313.101 87.981 313.161 86.645 314.498 C 84.873 316.269 84.696 317.044 85.550 319.270 C 85.890 320.155 87.000 320.532 88.452 320.254 C 90.246 319.911 90.895 319.024 91.188 316.511 C 91.636 312.679 91.228 311.000 89.849 311.000 C 89.308 311.000 89.150 312.012 89.498 313.250 "/></g>
<g fill="#080303FB" stroke="#080303FB">
<path d="M 144.044 271.418 C 143.096 273.189 143.070 274.262 143.933 275.875 C 145.266 278.365 145.835 278.440 148.441 276.468 C 150.294 275.067 150.248 274.994 147.441 274.864 C 145.083 274.755 144.946 274.642 146.750 274.294 C 149.475 273.769 149.694 271.442 147.146 270.078 C 145.661 269.283 145.044 269.550 144.044 271.418 "/></g>
<g fill="#080303FB" stroke="#080303FB">
<path d="M 69.111 130.545 C 66.222 133.309 66.892 136.000 70.469 136.000 C 72.687 136.000 73.000 135.574 73.000 132.559 C 73.000 128.167 72.088 127.694 69.111 130.545 M 71.217 134.183 C 69.689 135.711 68.562 134.584 69.409 132.376 C 69.909 131.072 70.343 130.943 71.233 131.833 C 72.122 132.722 72.119 133.281 71.217 134.183 "/></g>
<g fill="#080303FB" stroke="#080303FB">
<path d="M 66.525 88.040 C 67.092 88.957 66.867 89.163 65.763 88.739 C 63.561 87.894 62.729 91.775 64.553 94.379 C 65.349 95.515 66.000 95.947 66.000 95.339 C 66.000 94.731 66.874 94.005 67.943 93.725 C 69.530 93.310 69.748 92.706 69.138 90.424 C 68.727 88.887 67.790 87.430 67.056 87.185 C 66.172 86.891 65.993 87.179 66.525 88.040 M 67.150 91.500 C 67.150 92.023 66.666 92.611 66.075 92.808 C 65.484 93.005 65.000 92.417 65.000 91.500 C 65.000 90.583 65.484 89.995 66.075 90.192 C 66.666 90.389 67.150 90.978 67.150 91.500 "/></g>
<g fill="#080303FB" stroke="#080303FB">
<path d="M 101.074 312.411 C 100.313 313.328 100.254 314.039 100.908 314.443 C 101.460 314.785 101.681 315.668 101.397 316.407 C 100.779 318.018 105.685 318.318 106.667 316.730 C 107.058 316.096 106.327 315.896 104.736 316.200 C 102.604 316.607 102.239 316.357 102.556 314.709 C 103.064 312.070 103.611 311.638 105.183 312.635 C 106.056 313.188 106.107 313.475 105.333 313.485 C 104.692 313.493 103.829 313.838 103.417 314.250 C 103.004 314.663 103.362 315.000 104.211 315.000 C 105.060 315.000 106.272 314.378 106.903 313.617 C 107.792 312.546 107.688 312.094 106.444 311.617 C 103.923 310.649 102.342 310.883 101.074 312.411 "/></g>
<g fill="#080303FB" stroke="#080303FB">
<path d="M 93.565 231.692 C 92.219 235.198 93.559 238.000 96.582 238.000 C 97.962 238.000 96.682 235.982 95.250 235.900 C 94.033 235.831 94.203 235.603 95.809 235.150 C 97.079 234.793 98.091 234.163 98.059 233.750 C 98.027 233.338 98.000 232.602 98.000 232.117 C 98.000 230.519 94.156 230.151 93.565 231.692 "/></g>
<g fill="#080303FB" stroke="#080303FB">
<path d="M 125.074 181.862 C 123.723 184.387 126.011 187.593 128.487 186.644 C 130.114 186.019 130.072 185.797 127.978 183.981 C 126.722 182.891 126.186 182.000 126.788 182.000 C 127.390 182.000 128.190 182.498 128.566 183.107 C 129.045 183.881 129.497 183.814 130.072 182.883 C 130.559 182.095 130.406 181.242 129.697 180.792 C 127.712 179.530 126.126 179.897 125.074 181.862 "/></g>
<g fill="#080303FB" stroke="#080303FB">
<path d="M 62.823 237.142 C 61.626 240.045 62.576 242.505 64.862 242.421 C 66.057 242.376 67.000 242.953 67.000 243.730 C 67.000 244.493 67.472 244.826 68.049 244.470 C 68.762 244.029 68.711 243.357 67.891 242.369 C 67.028 241.328 66.992 240.608 67.764 239.836 C 69.166 238.434 68.218 236.000 66.271 236.000 C 65.057 236.000 64.996 236.290 65.964 237.456 C 67.314 239.083 66.439 241.313 64.680 240.727 C 64.055 240.518 63.534 239.257 63.522 237.924 C 63.506 236.118 63.327 235.919 62.823 237.142 "/></g>
<g fill="#080303FB" stroke="#080303FB">
<path d="M 61.750 265.823 C 60.788 266.001 60.000 266.590 60.000 267.132 C 60.000 267.674 59.480 267.797 58.845 267.405 C 58.108 266.949 57.963 267.132 58.446 267.912 C 58.887 268.626 58.432 269.729 57.350 270.569 C 55.708 271.843 55.697 271.936 57.250 271.395 C 58.556 270.941 59.000 271.321 59.000 272.893 C 59.000 274.052 59.480 275.000 60.067 275.000 C 60.680 275.000 60.864 274.147 60.500 273.000 C 60.007 271.447 60.320 271.000 61.901 271.000 C 63.260 271.000 63.754 270.522 63.386 269.563 C 63.072 268.745 62.117 268.367 61.167 268.685 C 59.857 269.124 59.929 268.842 61.500 267.372 C 63.255 265.730 63.285 265.540 61.750 265.823 "/></g>
<g fill="#080303FB" stroke="#080303FB">
<path d="M 84.535 127.943 C 84.165 128.542 83.469 128.790 82.989 128.493 C 82.509 128.197 82.212 129.202 82.329 130.727 C 82.496 132.890 83.033 133.484 84.771 133.429 C 85.997 133.389 86.213 133.248 85.250 133.115 C 83.843 132.921 83.953 132.692 85.813 131.946 C 87.931 131.096 88.003 130.842 86.667 128.935 C 85.738 127.609 84.964 127.249 84.535 127.943 "/></g>
<g fill="#080303FB" stroke="#080303FB">
<path d="M 50.397 26.472 C 50.509 28.682 53.578 29.609 55.866 28.125 C 57.878 26.819 55.997 24.505 52.897 24.472 C 50.907 24.451 50.319 24.921 50.397 26.472 "/></g>
<g fill="#080303FB" stroke="#080303FB">
<path d="M 70.279 237.634 C 70.355 240.814 70.737 241.697 71.939 241.460 C 72.797 241.291 74.063 241.119 74.750 241.077 C 76.192 240.988 76.459 236.402 75.071 235.544 C 74.561 235.229 73.998 235.895 73.821 237.025 C 73.330 240.166 71.600 239.861 70.850 236.500 C 70.266 233.879 70.193 234.023 70.279 237.634 "/></g>
<g fill="#080303FB" stroke="#080303FB">
<path d="M 130.667 225.667 C 130.300 226.033 130.000 227.143 130.000 228.131 C 130.000 230.262 133.554 232.530 134.498 231.003 C 134.839 230.451 134.304 229.971 133.309 229.937 C 131.843 229.885 131.924 229.703 133.733 228.975 C 135.278 228.354 135.768 227.559 135.323 226.398 C 134.735 224.866 134.550 224.885 133.205 226.610 C 131.930 228.245 131.812 228.264 132.334 226.750 C 132.931 225.017 131.952 224.381 130.667 225.667 "/></g>
<g fill="#080303FB" stroke="#080303FB">
<path d="M 51.457 267.931 C 51.774 268.443 51.575 269.144 51.016 269.490 C 50.457 269.835 50.000 270.793 50.000 271.618 C 50.000 272.509 50.475 272.824 51.170 272.395 C 51.942 271.918 52.135 272.205 51.739 273.239 C 50.922 275.366 53.391 278.795 54.475 277.040 C 54.921 276.319 54.710 275.439 53.985 274.991 C 53.275 274.552 52.956 273.276 53.263 272.102 C 53.565 270.946 53.419 270.000 52.938 270.000 C 52.457 270.000 52.322 269.325 52.638 268.500 C 52.955 267.675 52.689 267.000 52.048 267.000 C 51.407 267.000 51.141 267.419 51.457 267.931 "/></g>
<g fill="#080303FB" stroke="#080303FB">
<path d="M 88.376 186.765 C 86.423 188.042 88.629 192.016 91.218 191.884 C 93.128 191.787 93.191 191.689 91.605 191.283 C 90.078 190.892 89.981 190.623 91.105 189.899 C 92.286 189.138 92.270 188.849 91.000 188.015 C 90.175 187.474 89.973 187.024 90.550 187.015 C 91.128 187.007 92.167 187.563 92.859 188.250 C 93.869 189.252 93.986 189.153 93.452 187.750 C 92.765 185.944 90.349 185.476 88.376 186.765 "/></g>
<g fill="#080303FB" stroke="#080303FB">
<path d="M 78.882 87.750 C 78.816 88.163 78.816 88.838 78.882 89.250 C 78.947 89.663 78.438 90.015 77.750 90.033 C 77.063 90.052 77.558 90.948 78.852 92.026 C 80.561 93.450 81.654 93.723 82.852 93.023 C 84.259 92.202 84.170 92.056 82.250 92.030 C 79.669 91.996 79.245 90.504 81.563 89.614 C 82.423 89.284 82.847 88.561 82.504 88.007 C 81.782 86.838 79.056 86.644 78.882 87.750 "/></g>
<g fill="#080303FB" stroke="#080303FB">
<path d="M 78.437 234.578 C 80.485 236.075 80.417 237.658 78.250 238.920 C 76.838 239.742 77.236 239.945 80.309 239.970 C 82.762 239.989 83.883 239.620 83.458 238.932 C 83.095 238.344 82.158 238.109 81.376 238.409 C 80.238 238.846 80.167 238.556 81.023 236.957 C 82.360 234.458 81.571 233.081 78.918 233.281 C 77.133 233.416 77.072 233.580 78.437 234.578 "/></g>
<g fill="#080303FB" stroke="#080303FB">
<path d="M 70.086 190.643 C 69.966 193.641 67.027 194.637 66.914 191.719 C 66.838 189.753 66.736 189.806 66.018 192.183 C 65.080 195.294 66.956 196.629 69.989 195.006 C 71.456 194.221 71.663 193.457 71.002 191.260 C 70.316 188.979 70.157 188.872 70.086 190.643 "/></g>
<g fill="#080303FB" stroke="#080303FB">
<path d="M 59.250 190.564 C 57.633 192.313 57.675 192.667 59.500 192.667 C 60.325 192.667 61.000 192.292 61.000 191.833 C 61.000 191.375 61.436 191.000 61.969 191.000 C 62.501 191.000 62.729 191.563 62.473 192.250 C 62.218 192.938 62.419 194.850 62.919 196.500 C 63.804 199.419 63.830 199.387 63.914 195.285 C 64.011 190.549 61.559 188.068 59.250 190.564 "/></g>
<g fill="#080303FB" stroke="#080303FB">
<path d="M 46.465 116.765 C 45.896 117.169 45.490 118.175 45.563 119.000 C 45.636 119.825 45.771 121.850 45.863 123.500 C 45.988 125.735 46.264 126.131 46.946 125.054 C 47.503 124.172 47.488 122.912 46.907 121.826 C 46.157 120.424 46.278 120.169 47.477 120.629 C 48.315 120.951 49.000 120.716 49.000 120.107 C 49.000 119.498 48.438 118.986 47.750 118.968 C 47.046 118.950 47.348 118.295 48.441 117.468 C 49.818 116.427 49.963 116.004 48.941 116.015 C 48.149 116.024 47.034 116.361 46.465 116.765 "/></g>
<g fill="#080303FB" stroke="#080303FB">
<path d="M 106.588 185.369 C 107.563 187.910 105.988 189.366 104.486 187.311 C 103.759 186.317 102.906 185.760 102.592 186.075 C 102.278 186.389 102.665 187.513 103.452 188.573 C 104.597 190.115 105.245 190.278 106.691 189.391 C 108.760 188.122 109.113 184.871 107.249 184.250 C 106.468 183.989 106.220 184.409 106.588 185.369 "/></g>
<g fill="#080303FB" stroke="#080303FB">
<path d="M 118.255 181.917 C 116.836 182.921 117.423 186.226 119.222 187.365 C 120.492 188.168 121.268 188.132 122.172 187.228 C 123.143 186.257 122.840 186.000 120.731 186.000 C 118.770 186.000 118.215 185.602 118.638 184.500 C 118.955 183.675 119.841 183.000 120.607 183.000 C 121.373 183.000 122.000 182.625 122.000 182.167 C 122.000 181.213 119.486 181.045 118.255 181.917 "/></g>
<g fill="#080303FB" stroke="#080303FB">
<path d="M 137.250 271.662 C 136.563 271.940 136.000 272.859 136.000 273.706 C 136.000 274.994 136.257 275.031 137.576 273.937 C 138.877 272.857 139.298 272.864 139.984 273.974 C 140.441 274.713 140.583 275.922 140.300 276.659 C 140.018 277.397 140.301 278.000 140.931 278.000 C 142.301 278.000 141.944 272.826 140.500 271.765 C 139.386 270.947 139.050 270.936 137.250 271.662 "/></g>
<g fill="#080303FB" stroke="#080303FB">
<path d="M 284.960 227.452 C 285.623 228.251 285.873 229.826 285.515 230.952 C 285.156 232.085 285.312 233.000 285.866 233.000 C 286.417 233.000 287.065 234.013 287.306 235.250 C 287.547 236.488 287.550 235.276 287.312 232.557 C 286.837 227.124 286.410 226.000 284.819 226.000 C 284.132 226.000 284.183 226.515 284.960 227.452 "/></g>
<g fill="#080303FB" stroke="#080303FB">
<path d="M 291.687 225.647 C 291.348 225.986 291.445 226.991 291.904 227.881 C 292.362 228.772 293.057 231.269 293.448 233.431 C 293.952 236.218 294.410 236.955 295.022 235.964 C 295.531 235.140 295.460 234.054 294.848 233.317 C 294.278 232.630 294.000 231.501 294.230 230.810 C 294.745 229.265 292.541 224.792 291.687 225.647 "/></g>
<g fill="#080303FB" stroke="#080303FB">
<path d="M 72.208 87.732 C 71.273 88.067 71.211 88.550 71.987 89.484 C 72.599 90.221 72.724 91.610 72.278 92.728 C 71.586 94.467 71.774 94.585 73.976 93.790 C 75.864 93.109 76.126 92.696 75.080 92.050 C 74.326 91.583 73.979 90.496 74.311 89.633 C 74.995 87.850 74.111 87.051 72.208 87.732 "/></g>
<g fill="#080303FB" stroke="#080303FB">
<path d="M 35.000 79.011 C 34.002 79.648 33.919 79.975 34.750 79.985 C 36.610 80.007 36.262 82.748 34.250 83.920 C 32.725 84.808 32.822 84.941 35.000 84.954 C 36.375 84.963 38.175 84.533 39.000 84.000 C 40.294 83.164 40.269 83.029 38.816 83.015 C 37.783 83.006 37.011 82.045 36.816 80.526 C 36.570 78.597 36.170 78.263 35.000 79.011 "/></g>
<g fill="#080303FB" stroke="#080303FB">
<path d="M 42.983 76.520 C 42.014 77.688 41.981 78.787 42.841 81.270 C 43.858 84.205 43.929 84.249 43.619 81.750 C 43.371 79.751 43.717 78.996 44.889 78.985 C 46.294 78.971 46.308 78.846 45.000 78.000 C 43.559 77.069 43.692 76.901 46.083 76.625 C 46.679 76.556 46.829 76.163 46.417 75.750 C 45.295 74.628 44.384 74.833 42.983 76.520 "/></g>
<g fill="#080303FB" stroke="#080303FB">
<path d="M 94.000 313.500 C 94.000 314.325 94.378 315.000 94.839 315.000 C 95.301 315.000 96.258 316.238 96.966 317.750 C 97.955 319.864 98.318 320.095 98.538 318.750 C 98.695 317.788 98.413 317.000 97.912 317.000 C 97.410 317.000 97.053 316.663 97.118 316.250 C 97.184 315.838 97.184 314.713 97.118 313.750 C 96.974 311.622 94.000 311.384 94.000 313.500 "/></g>
<g fill="#080303FB" stroke="#080303FB">
<path d="M 154.985 270.750 C 154.972 272.246 154.828 272.282 154.000 271.000 C 153.167 269.712 153.028 269.742 153.015 271.215 C 153.007 272.158 153.832 273.375 154.849 273.919 C 156.448 274.775 156.710 274.509 156.782 271.954 C 156.828 270.329 156.446 269.000 155.933 269.000 C 155.420 269.000 154.993 269.788 154.985 270.750 "/></g>
<g fill="#080303FB" stroke="#080303FB">
<path d="M 162.275 284.711 C 163.851 286.488 163.880 286.855 162.536 287.970 C 161.703 288.661 161.271 289.629 161.575 290.121 C 162.311 291.313 165.000 288.554 165.000 286.607 C 165.000 285.762 163.988 284.539 162.750 283.890 C 160.557 282.739 160.545 282.760 162.275 284.711 "/></g>
<g fill="#080303FB" stroke="#080303FB">
<path d="M 67.771 25.000 C 67.378 26.375 67.044 27.050 67.028 26.500 C 66.988 25.063 64.745 25.265 64.250 26.750 C 63.987 27.540 64.808 28.000 66.483 28.000 C 68.785 28.000 69.090 27.639 68.810 25.250 L 68.486 22.500 67.771 25.000 "/></g>
<g fill="#080303FB" stroke="#080303FB">
<path d="M 86.749 232.689 C 85.410 233.039 85.149 233.775 85.640 235.823 C 86.510 239.454 87.396 240.177 86.775 236.750 C 86.344 234.370 86.603 234.000 88.698 234.000 C 90.057 234.000 90.847 233.561 90.500 233.000 C 89.856 231.958 89.624 231.938 86.749 232.689 "/></g>
<g fill="#080303FB" stroke="#080303FB">
<path d="M 100.500 191.787 C 95.703 192.485 93.956 193.119 94.481 193.970 C 94.813 194.506 96.371 194.433 98.272 193.793 C 102.080 192.509 103.343 191.372 100.500 191.787 "/></g>
<g fill="#080303FB" stroke="#080303FB">
<path d="M 74.925 188.642 C 75.519 188.941 75.561 190.026 75.032 191.416 C 74.254 193.461 74.442 193.679 76.832 193.506 C 78.299 193.400 78.969 193.243 78.320 193.157 C 77.670 193.070 76.995 192.023 76.820 190.828 C 76.644 189.634 75.926 188.543 75.225 188.403 C 74.524 188.264 74.389 188.371 74.925 188.642 "/></g>
<g fill="#080303FB" stroke="#080303FB">
<path d="M 81.100 190.250 C 81.192 193.269 81.250 193.323 81.919 191.000 C 82.347 189.511 83.318 188.556 84.319 188.639 C 85.244 188.715 86.000 188.378 86.000 187.889 C 86.000 187.400 84.875 187.000 83.500 187.000 C 81.326 187.000 81.013 187.423 81.100 190.250 "/></g>
<g fill="#080303FB" stroke="#080303FB">
<path d="M 109.780 183.141 C 109.496 183.888 109.753 185.625 110.351 187.000 L 111.440 189.500 111.550 187.000 C 111.694 183.721 110.528 181.177 109.780 183.141 "/></g>
<g fill="#080303FB" stroke="#080303FB">
<path d="M 76.333 131.968 C 76.333 134.211 76.754 134.872 78.054 134.674 C 79.545 134.447 79.593 134.164 78.419 132.558 C 77.674 131.539 77.301 130.322 77.591 129.853 C 77.881 129.384 77.716 129.000 77.226 129.000 C 76.735 129.000 76.333 130.336 76.333 131.968 "/></g>
<g fill="#030803FB" stroke="#030803FB">
<path d="M 61.000 192.000 C 61.000 192.550 60.663 192.888 60.250 192.750 C 59.838 192.613 59.354 192.939 59.175 193.475 C 58.527 195.419 60.893 195.068 61.967 193.061 C 62.704 191.684 62.727 191.000 62.035 191.000 C 61.466 191.000 61.000 191.450 61.000 192.000 "/></g>
<g fill="#080303FB" stroke="#080303FB">
<path d="M 150.727 269.666 C 149.806 271.114 151.568 276.000 153.010 276.000 C 153.692 276.000 153.613 275.196 152.790 273.750 C 152.086 272.513 151.500 270.825 151.489 270.000 C 151.474 268.965 151.238 268.861 150.727 269.666 "/></g>
<g fill="#080303FB" stroke="#080303FB">
<path d="M 57.566 195.311 C 58.393 197.466 60.727 198.154 61.386 196.437 C 61.689 195.647 61.538 195.000 61.050 195.000 C 60.563 195.000 59.447 194.725 58.570 194.389 C 57.428 193.950 57.144 194.212 57.566 195.311 "/></g>
<g fill="#080303FB" stroke="#080303FB">
<path d="M 112.000 183.000 C 112.000 183.550 112.450 184.000 113.000 184.000 C 113.550 184.000 114.000 184.900 114.000 186.000 C 114.000 187.100 114.450 188.000 115.000 188.000 C 116.271 188.000 116.255 187.654 114.839 184.547 C 113.684 182.012 112.000 181.094 112.000 183.000 "/></g>
<g fill="#030803FB" stroke="#030803FB">
<path d="M 69.409 132.376 C 68.562 134.584 69.689 135.711 71.217 134.183 C 72.119 133.281 72.122 132.722 71.233 131.833 C 70.343 130.943 69.909 131.072 69.409 132.376 "/></g>
<g fill="#080303FB" stroke="#080303FB">
<path d="M 123.000 231.127 C 123.000 232.437 125.485 232.738 127.500 231.672 C 129.284 230.728 129.149 230.603 126.250 230.517 C 124.463 230.464 123.000 230.738 123.000 231.127 "/></g>
<g fill="#080303FB" stroke="#080303FB">
<path d="M 38.749 123.854 C 38.439 125.036 38.595 125.751 39.093 125.442 C 39.592 125.134 40.000 125.449 40.000 126.141 C 40.000 126.983 40.332 127.068 41.004 126.396 C 41.675 125.725 41.561 124.782 40.659 123.548 C 39.367 121.782 39.287 121.795 38.749 123.854 "/></g>
<g fill="#030803FB" stroke="#030803FB">
<path d="M 87.000 317.000 C 87.000 318.311 87.485 318.751 88.500 318.362 C 89.325 318.045 90.000 317.432 90.000 317.000 C 90.000 316.568 89.325 315.955 88.500 315.638 C 87.485 315.249 87.000 315.689 87.000 317.000 "/></g>
<g fill="#030803FB" stroke="#030803FB">
<path d="M 102.285 313.915 C 101.307 315.481 101.400 316.073 102.795 317.165 C 104.300 318.343 104.352 318.310 103.238 316.883 C 102.207 315.562 102.252 315.035 103.488 314.010 C 104.319 313.320 105.053 312.923 105.118 313.128 C 105.184 313.332 105.184 313.163 105.118 312.750 C 104.904 311.391 103.501 311.967 102.285 313.915 "/></g>
<g fill="#080303FB" stroke="#080303FB">
<path d="M 123.566 274.964 C 121.415 275.733 122.694 277.015 125.240 276.641 C 126.135 276.510 126.559 275.923 126.183 275.338 C 125.807 274.752 124.630 274.584 123.566 274.964 "/></g>
<g fill="#080303FB" stroke="#080303FB">
<path d="M 59.500 27.011 L 57.500 29.232 59.500 28.853 C 60.638 28.636 61.500 27.679 61.500 26.631 C 61.500 24.970 61.305 25.007 59.500 27.011 "/></g>
<g fill="#080303FB" stroke="#080303FB">
<path d="M 103.500 238.000 C 101.728 238.762 101.813 238.867 104.250 238.930 C 105.763 238.968 107.000 238.550 107.000 238.000 C 107.000 236.826 106.231 236.826 103.500 238.000 "/></g>
<g fill="#080303FB" stroke="#080303FB">
<path d="M 305.757 225.228 C 305.532 225.904 305.832 226.975 306.424 227.609 C 307.214 228.455 307.512 228.128 307.546 226.381 C 307.595 223.874 306.454 223.139 305.757 225.228 "/></g>
<g fill="#080303FB" stroke="#080303FB">
<path d="M 68.150 114.668 C 68.067 115.311 67.727 116.548 67.393 117.418 C 67.052 118.307 67.300 119.000 67.959 119.000 C 68.674 119.000 68.970 117.924 68.716 116.250 C 68.487 114.738 68.232 114.026 68.150 114.668 "/></g>
<g fill="#080303FB" stroke="#080303FB">
<path d="M 71.667 22.667 C 71.300 23.033 71.003 24.271 71.006 25.417 C 71.011 27.221 71.205 27.131 72.447 24.750 C 73.754 22.244 73.301 21.033 71.667 22.667 "/></g>
<g fill="#030803FB" stroke="#030803FB">
<path d="M 65.000 91.469 C 65.000 92.361 65.587 92.712 66.494 92.364 C 67.316 92.048 67.740 91.388 67.435 90.895 C 66.563 89.483 65.000 89.851 65.000 91.469 "/></g>
<g fill="#080303FB" stroke="#080303FB">
<path d="M 121.462 279.061 C 121.203 279.481 121.780 279.673 122.745 279.489 C 123.710 279.304 125.175 279.048 126.000 278.920 C 126.825 278.792 126.248 278.599 124.717 278.492 C 123.187 278.385 121.722 278.641 121.462 279.061 "/></g>
<g fill="#080303FB" stroke="#080303FB">
<path d="M 79.000 230.500 C 79.000 231.325 79.450 232.000 80.000 232.000 C 80.550 232.000 81.000 231.325 81.000 230.500 C 81.000 229.675 80.550 229.000 80.000 229.000 C 79.450 229.000 79.000 229.675 79.000 230.500 "/></g>
<g fill="#080303FB" stroke="#080303FB">
<path d="M 123.500 227.000 C 122.718 228.266 124.042 228.266 126.000 227.000 C 127.293 226.165 127.266 226.029 125.809 226.015 C 124.879 226.007 123.840 226.450 123.500 227.000 "/></g>
<g fill="#080303FB" stroke="#080303FB">
<path d="M 38.302 118.897 C 37.370 120.383 37.370 120.769 38.304 120.632 C 38.964 120.535 39.503 119.675 39.502 118.721 C 39.500 117.172 39.371 117.191 38.302 118.897 "/></g>
<g fill="#080303FB" stroke="#080303FB">
<path d="M 39.015 103.191 C 39.007 104.121 39.450 105.160 40.000 105.500 C 41.266 106.282 41.266 104.958 40.000 103.000 C 39.165 101.707 39.029 101.734 39.015 103.191 "/></g>
</svg>
