<?xml version="1.0" encoding="utf-8"?>
<!DOCTYPE svg PUBLIC "-//W3C//DTD SVG 20010904//EN" "http://www.w3.org/TR/2001/REC-SVG-20010904/DTD/svg10.dtd">
<svg version="1.0" xmlns="http://www.w3.org/2000/svg" width="601pt" height="402pt" viewBox="0 0 601 402" style="" preserveAspectRatio="xMidYMid meet">
<g fill="#0E1313FF" stroke="#0E1313FF">
<path d="M 1.000 201.000 L 1.000 401.000 88.927 401.000 C 171.825 401.000 176.880 400.900 177.311 399.250 C 177.746 397.583 177.774 397.583 177.884 399.250 C 177.991 400.870 179.971 401.000 204.469 401.000 C 225.195 401.000 230.849 400.729 230.529 399.750 C 230.304 399.063 229.882 396.475 229.589 394.000 C 229.102 389.878 229.181 389.663 230.529 391.441 C 231.338 392.509 232.000 395.093 232.000 397.185 C 232.000 400.378 232.310 400.940 233.932 400.693 C 235.350 400.476 235.620 400.012 234.947 398.949 C 233.697 396.972 233.740 391.721 235.000 392.500 C 235.550 392.840 236.000 392.191 236.000 391.059 C 236.000 389.927 235.550 389.000 235.000 389.000 C 234.450 389.000 233.993 389.563 233.985 390.250 C 233.974 391.083 233.646 391.000 233.000 390.000 C 232.467 389.175 231.960 388.950 231.875 389.500 C 231.789 390.050 231.402 388.025 231.016 385.000 C 230.504 380.997 230.712 378.700 231.780 376.562 C 232.943 374.231 232.999 373.228 232.049 371.707 C 231.322 370.543 231.274 370.051 231.926 370.454 C 232.876 371.042 233.445 367.991 233.269 363.250 C 233.243 362.563 233.622 362.000 234.111 362.000 C 234.600 362.000 235.000 362.388 235.000 362.861 C 235.000 363.335 236.066 363.519 237.369 363.270 C 239.261 362.908 239.868 363.338 240.388 365.409 C 240.745 366.834 241.705 368.000 242.519 368.000 C 243.334 368.000 244.000 368.900 244.000 370.000 C 244.000 371.100 244.450 372.000 245.000 372.000 C 245.550 372.000 246.000 371.100 246.000 370.000 C 246.000 368.381 246.667 368.000 249.500 368.000 C 252.333 368.000 253.000 368.381 253.000 370.000 C 253.000 371.100 253.450 372.000 254.000 372.000 C 254.550 372.000 255.000 371.550 255.000 371.000 C 255.000 370.450 255.450 370.000 256.000 370.000 C 256.550 370.000 257.000 371.088 257.000 372.417 C 257.000 373.746 257.563 375.060 258.250 375.338 C 259.250 375.741 259.250 375.858 258.250 375.921 C 256.061 376.059 256.785 380.000 259.000 380.000 C 260.704 380.000 261.000 380.667 261.000 384.500 C 261.000 388.633 261.204 389.000 263.500 389.000 C 265.333 389.000 266.000 389.533 266.000 391.000 C 266.000 392.667 266.667 393.000 270.000 393.000 C 273.333 393.000 274.000 392.667 274.000 391.000 C 274.000 389.205 274.667 389.000 280.500 389.000 C 286.767 389.000 287.000 389.090 287.000 391.500 C 287.000 392.875 287.450 394.000 288.000 394.000 C 288.550 394.000 289.000 393.550 289.000 393.000 C 289.000 392.450 289.450 392.000 290.000 392.000 C 290.550 392.000 291.000 393.627 291.000 395.617 C 291.000 398.879 290.780 399.174 288.750 398.630 C 287.513 398.299 286.163 398.021 285.750 398.014 C 285.338 398.006 285.000 396.875 285.000 395.500 C 285.000 393.500 284.500 393.000 282.500 393.000 C 280.250 393.000 280.000 393.400 280.000 397.000 L 280.000 401.000 289.000 401.000 C 296.333 401.000 298.000 400.722 298.000 399.500 C 298.000 398.500 299.000 398.000 301.000 398.000 C 303.000 398.000 304.000 398.500 304.000 399.500 C 304.000 400.325 304.450 401.000 305.000 401.000 C 305.550 401.000 306.000 400.325 306.000 399.500 C 306.000 398.500 307.000 398.000 309.000 398.000 C 311.000 398.000 312.000 398.500 312.000 399.500 C 312.000 400.826 328.667 401.000 456.000 401.000 L 600.000 401.000 600.000 201.000 L 600.000 1.000 300.500 1.000 L 1.000 1.000 1.000 201.000 M 82.500 233.471 C 87.264 235.187 96.989 235.408 102.341 233.922 C 105.570 233.026 106.487 233.131 108.091 234.583 C 110.127 236.425 110.657 239.000 109.000 239.000 C 108.450 239.000 108.098 239.338 108.218 239.750 C 108.337 240.163 107.899 241.996 107.244 243.825 C 106.096 247.028 105.969 247.092 103.803 245.575 C 102.423 244.608 99.445 244.000 96.090 244.000 L 90.626 244.000 93.131 246.750 C 94.508 248.263 96.338 250.638 97.196 252.029 C 98.234 253.710 100.641 255.152 104.378 256.330 C 107.805 257.410 110.000 258.668 110.000 259.551 C 110.000 260.534 111.101 261.000 113.423 261.000 C 115.606 261.000 117.912 261.896 119.784 263.472 C 121.400 264.832 123.034 265.633 123.414 265.253 C 123.794 264.872 123.836 265.263 123.507 266.120 C 122.543 268.633 124.971 269.764 133.976 270.997 C 143.439 272.292 145.801 273.158 141.462 273.739 C 138.091 274.190 136.000 275.667 136.000 277.597 C 136.000 279.694 141.716 282.147 145.810 281.807 C 149.001 281.541 149.543 281.128 149.816 278.750 C 149.991 277.234 151.055 275.506 152.187 274.900 C 153.681 274.101 154.056 274.101 153.562 274.900 C 153.188 275.505 153.446 276.000 154.136 276.000 C 155.688 276.000 161.001 280.984 160.998 282.437 C 160.997 283.022 158.926 284.808 156.396 286.407 C 149.179 290.966 143.764 290.916 124.574 286.114 C 121.264 285.285 120.266 285.432 118.207 287.052 C 116.864 288.108 115.480 288.845 115.132 288.689 C 110.908 286.795 108.390 285.986 102.000 284.468 C 89.766 281.561 89.733 281.531 95.726 278.844 C 98.601 277.555 100.963 276.215 100.976 275.867 C 101.004 275.123 98.697 274.295 90.500 272.104 C 85.272 270.706 84.461 270.164 84.197 267.890 C 83.915 265.460 83.461 265.239 77.646 264.696 C 67.980 263.793 61.841 261.147 59.753 256.984 C 58.793 255.068 58.343 253.513 58.753 253.530 C 59.521 253.560 64.447 248.092 63.839 247.885 C 63.653 247.821 63.950 247.681 64.500 247.574 C 65.050 247.466 67.173 246.618 69.218 245.689 C 71.263 244.760 73.940 244.000 75.168 244.000 C 77.918 244.000 76.451 242.313 73.284 241.835 C 71.079 241.502 71.082 241.479 74.036 236.750 C 75.668 234.138 77.340 232.007 77.752 232.015 C 78.163 232.023 80.300 232.679 82.500 233.471 M 211.550 208.919 C 212.073 209.425 215.187 210.328 218.471 210.926 C 221.755 211.524 224.962 212.573 225.597 213.257 C 227.219 215.003 228.273 220.000 227.019 220.000 C 226.440 220.000 226.000 222.602 226.000 226.032 C 226.000 232.957 224.379 237.530 220.575 241.334 C 218.055 243.855 213.000 245.037 213.000 243.107 C 213.000 241.093 208.131 240.698 179.000 240.352 C 142.929 239.923 143.500 239.965 143.500 237.725 C 143.500 235.925 141.514 235.730 141.482 237.527 C 141.461 238.720 130.045 238.502 128.996 237.289 C 127.903 236.025 125.015 225.645 125.298 224.000 C 125.440 223.175 125.926 221.908 126.378 221.183 C 126.830 220.459 126.955 219.621 126.654 219.321 C 126.354 219.021 127.322 217.492 128.804 215.924 C 132.293 212.234 139.943 210.675 140.100 213.622 C 140.172 214.982 140.390 214.810 140.889 213.000 C 141.357 211.304 142.395 210.404 144.116 210.200 C 146.281 209.945 146.824 210.459 147.811 213.700 C 149.327 218.675 152.791 224.247 153.930 223.543 C 154.425 223.238 154.980 223.392 155.165 223.887 C 155.349 224.381 157.776 226.121 160.558 227.754 C 165.975 230.932 174.854 232.630 180.070 231.485 C 182.680 230.911 182.918 230.605 181.798 229.249 C 180.643 227.852 180.731 227.823 182.598 228.985 C 184.407 230.111 185.357 229.962 189.477 227.904 C 195.368 224.962 200.532 219.086 202.774 212.774 C 204.298 208.482 204.779 208.000 207.535 208.000 C 209.221 208.000 211.028 208.414 211.550 208.919 M 230.429 348.571 C 232.479 350.621 232.526 358.617 230.500 360.643 C 229.392 361.751 229.000 364.462 229.000 371.012 C 229.000 375.891 228.550 380.160 228.000 380.500 C 227.450 380.840 227.000 380.454 227.000 379.643 C 227.000 378.390 223.734 378.154 205.399 378.080 C 193.518 378.032 183.337 377.708 182.774 377.360 C 181.508 376.578 182.328 363.272 183.729 361.871 C 187.764 357.836 213.943 356.056 222.713 359.221 C 225.030 360.057 227.168 360.499 227.463 360.204 C 227.758 359.908 228.000 356.817 228.000 353.333 C 228.000 349.850 228.193 347.000 228.429 347.000 C 228.664 347.000 229.564 347.707 230.429 348.571 M 161.082 151.373 C 162.113 153.643 162.966 157.131 162.978 159.125 C 162.997 162.334 163.339 162.818 165.957 163.341 C 167.583 163.667 171.781 163.665 175.286 163.338 C 180.932 162.810 181.791 162.444 182.816 160.121 C 185.192 154.741 189.713 148.457 192.222 147.049 C 194.271 145.899 195.343 145.835 197.341 146.746 L 199.868 147.897 197.864 152.045 C 196.762 154.327 196.075 156.408 196.338 156.672 C 196.601 156.935 197.376 155.601 198.061 153.708 C 198.999 151.115 199.760 150.386 201.153 150.750 C 202.169 151.016 203.000 151.651 203.000 152.162 C 203.000 152.673 204.022 154.113 205.271 155.362 C 206.521 156.612 207.533 158.710 207.521 160.026 C 207.506 161.744 208.063 162.429 209.500 162.459 C 211.225 162.494 211.541 163.283 211.798 168.189 C 212.051 173.015 211.795 174.039 210.114 174.939 C 208.389 175.862 208.079 175.644 207.716 173.250 C 207.487 171.737 207.232 174.738 207.150 179.917 C 207.067 185.096 206.776 189.109 206.501 188.834 C 205.367 187.700 204.328 179.072 205.218 178.182 C 205.734 177.666 206.009 175.951 205.828 174.372 L 205.500 171.500 196.722 171.211 C 191.894 171.052 186.386 171.352 184.480 171.878 C 182.388 172.455 180.791 172.471 180.449 171.917 C 180.137 171.413 176.507 171.000 172.382 171.000 C 167.472 171.000 165.103 170.643 165.521 169.966 C 165.922 169.317 165.204 169.105 163.596 169.397 C 162.186 169.652 160.774 169.443 160.457 168.931 C 160.127 168.396 162.434 168.000 165.882 168.000 C 169.182 168.000 172.179 167.519 172.542 166.932 C 172.905 166.344 173.832 166.105 174.601 166.400 C 175.371 166.696 176.000 166.449 176.000 165.852 C 176.000 165.251 175.087 165.005 173.956 165.301 C 172.832 165.595 169.177 165.449 165.833 164.976 C 158.219 163.900 155.579 161.586 154.241 154.819 C 153.360 150.366 153.470 149.530 155.157 147.843 C 157.547 145.453 158.708 146.145 161.082 151.373 M 110.000 209.964 C 110.849 210.953 115.939 214.034 116.666 214.000 C 117.044 213.982 117.520 215.756 117.724 217.943 C 118.065 221.606 117.778 222.148 114.088 224.822 C 102.489 233.224 77.181 230.211 77.032 220.411 C 76.999 218.241 84.312 210.645 85.392 211.726 C 85.727 212.060 86.000 211.733 86.000 211.000 C 86.000 210.267 86.253 209.920 86.563 210.230 C 86.873 210.540 88.336 210.411 89.813 209.943 C 92.757 209.012 109.196 209.029 110.000 209.964 M 158.500 355.265 C 162.252 355.883 168.503 359.524 168.201 360.916 C 168.036 361.674 167.735 363.916 167.530 365.897 C 166.802 372.961 166.396 373.306 159.450 372.748 C 152.513 372.191 149.508 371.049 152.354 370.051 C 154.870 369.169 142.986 363.312 133.980 360.995 C 123.808 358.378 122.443 356.646 129.199 354.929 C 132.146 354.180 153.394 354.423 158.500 355.265 M 184.736 137.532 C 187.065 137.883 189.101 138.020 189.260 137.835 C 189.419 137.651 190.836 138.513 192.409 139.750 C 194.396 141.312 194.775 142.000 193.651 142.000 C 191.466 142.000 186.534 146.705 184.217 151.000 L 182.328 154.500 173.961 154.500 L 165.595 154.500 163.819 149.500 C 162.842 146.750 161.124 143.745 160.000 142.822 C 157.985 141.168 158.006 141.127 161.479 139.872 C 163.415 139.171 165.000 138.212 165.000 137.740 C 165.000 137.268 165.338 137.077 165.750 137.314 C 166.163 137.552 168.525 137.406 171.000 136.989 C 175.447 136.241 176.438 136.280 184.736 137.532 M 259.993 219.250 C 259.997 219.663 260.612 220.000 261.359 220.000 C 262.107 220.000 264.807 221.838 267.359 224.085 C 269.912 226.332 272.038 227.794 272.083 227.335 C 272.129 226.876 272.317 227.400 272.501 228.500 C 272.686 229.600 273.131 231.625 273.492 233.000 C 274.062 235.172 273.975 235.292 272.824 233.913 C 272.096 233.041 268.370 231.077 264.545 229.550 C 258.864 227.281 256.654 226.883 252.473 227.374 C 247.281 227.984 241.875 230.109 238.813 232.744 C 236.002 235.163 234.828 233.348 236.546 229.237 C 237.956 225.860 242.000 220.979 242.000 222.652 C 242.000 223.054 242.607 222.553 243.348 221.538 C 244.090 220.524 245.215 220.015 245.848 220.406 C 246.482 220.798 247.000 220.656 247.000 220.090 C 247.000 219.525 247.629 219.304 248.399 219.600 C 249.168 219.895 250.081 219.678 250.428 219.117 C 251.139 217.966 259.982 218.089 259.993 219.250 M 283.000 367.000 C 283.000 367.583 286.333 368.000 291.000 368.000 L 299.000 368.000 299.000 372.500 C 299.000 376.633 299.204 377.000 301.500 377.000 C 303.333 377.000 304.000 377.533 304.000 379.000 C 304.000 380.333 304.667 381.000 306.000 381.000 C 307.333 381.000 308.000 381.667 308.000 383.000 C 308.000 384.556 307.333 385.000 305.000 385.000 C 302.622 385.000 302.000 384.566 302.000 382.906 C 302.000 381.688 301.203 380.604 300.092 380.314 C 299.043 380.040 297.960 378.957 297.686 377.908 C 297.264 376.294 296.248 376.000 291.094 376.000 C 287.222 376.000 285.000 375.587 285.000 374.867 C 285.000 374.244 284.164 373.007 283.143 372.117 C 280.481 369.799 279.419 366.000 281.433 366.000 C 282.295 366.000 283.000 366.450 283.000 367.000 M 271.720 363.250 C 272.425 361.276 274.000 361.794 274.000 364.000 C 274.000 365.100 274.450 366.000 275.000 366.000 C 275.550 366.000 276.000 366.450 276.000 367.000 C 276.000 367.550 274.875 368.000 273.500 368.000 C 271.247 368.000 271.000 368.398 271.000 372.031 C 271.000 374.692 271.510 376.258 272.500 376.638 C 273.478 377.014 274.000 378.569 274.000 381.107 L 274.000 385.000 269.500 385.000 L 265.000 385.000 265.000 376.500 C 265.000 369.444 265.267 368.000 266.570 368.000 C 269.140 368.000 267.925 363.560 265.250 363.180 C 263.084 362.873 261.955 360.000 264.000 360.000 C 264.550 360.000 265.000 360.450 265.000 361.000 C 265.000 362.949 267.196 361.966 267.774 359.758 C 268.313 357.695 268.476 357.795 269.816 361.008 C 270.618 362.929 271.474 363.938 271.720 363.250 M 272.289 324.111 C 275.176 326.930 275.557 327.545 273.500 326.068 C 271.850 324.883 270.610 324.374 270.743 324.937 C 270.877 325.500 268.197 328.164 264.788 330.856 C 259.278 335.208 258.284 335.646 255.852 334.799 C 251.905 333.423 250.129 331.067 252.176 329.921 C 253.046 329.434 256.175 327.012 259.129 324.539 C 262.083 322.066 265.305 320.033 266.289 320.022 C 267.273 320.010 269.973 321.850 272.289 324.111 M 303.000 266.781 C 306.455 268.187 311.455 273.601 310.082 274.449 C 309.487 274.817 309.000 274.632 309.000 274.038 C 309.000 273.443 307.889 272.451 306.531 271.832 C 305.174 271.214 304.271 270.370 304.526 269.959 C 304.780 269.547 304.293 268.943 303.442 268.616 C 302.557 268.276 302.157 268.445 302.507 269.011 C 302.864 269.589 301.696 270.000 299.694 270.000 C 297.811 270.000 295.168 270.866 293.822 271.925 C 292.325 273.103 290.867 273.536 290.066 273.041 C 288.546 272.101 280.803 275.872 281.601 277.163 C 281.885 277.623 281.641 278.000 281.059 278.000 C 280.477 278.000 280.000 277.753 280.000 277.450 C 280.000 276.224 282.970 271.269 284.434 270.055 C 285.295 269.340 285.993 268.248 285.985 267.628 C 285.975 266.948 285.634 267.030 285.124 267.834 C 284.440 268.912 284.164 268.870 283.683 267.616 C 282.867 265.489 284.496 264.688 285.986 266.484 C 287.044 267.758 287.657 267.710 290.766 266.116 C 294.381 264.261 297.181 264.414 303.000 266.781 M 186.687 342.746 C 187.340 342.977 187.615 343.841 187.298 344.667 C 186.829 345.888 186.564 345.919 185.876 344.834 C 185.272 343.881 185.026 343.848 185.015 344.719 C 185.007 345.393 184.325 345.678 183.489 345.357 C 182.430 344.951 182.154 345.237 182.566 346.311 C 182.889 347.154 182.603 348.872 181.930 350.130 C 180.793 352.256 180.453 353.784 180.128 358.250 C 180.051 359.294 179.189 360.000 177.988 360.000 C 176.200 360.000 176.048 359.554 176.618 355.985 C 177.179 352.481 176.919 351.654 174.579 349.485 C 173.104 348.118 172.370 347.000 172.948 347.000 C 173.527 347.000 174.000 345.842 174.000 344.427 C 174.000 341.935 174.179 341.862 179.750 342.090 C 182.913 342.220 186.034 342.515 186.687 342.746 M 246.457 356.069 C 245.667 357.348 247.354 357.246 248.664 355.936 C 249.417 355.183 250.170 355.312 251.233 356.376 C 252.101 357.244 253.746 357.674 255.119 357.392 C 257.036 356.999 256.915 357.188 254.500 358.361 L 251.500 359.819 254.688 359.490 C 257.112 359.240 257.745 359.501 257.331 360.581 C 257.008 361.421 255.401 362.000 253.393 362.000 C 251.527 362.000 250.000 362.450 250.000 363.000 C 250.000 363.550 247.975 364.000 245.500 364.000 C 240.668 364.000 240.501 363.744 241.636 358.070 C 242.061 355.944 242.724 355.064 243.636 355.414 C 244.386 355.702 245.000 355.475 245.000 354.910 C 245.000 354.344 245.457 354.165 246.016 354.510 C 246.575 354.856 246.774 355.557 246.457 356.069 M 276.553 238.341 C 277.423 238.007 280.714 240.433 284.983 244.553 C 290.556 249.934 291.752 251.594 290.842 252.690 C 289.311 254.535 289.056 254.388 282.041 247.634 C 276.854 242.641 276.137 241.538 277.224 240.221 C 278.280 238.941 278.246 238.759 277.028 239.162 C 276.218 239.429 275.250 240.740 274.877 242.074 C 274.384 243.839 274.204 243.274 274.216 240.000 C 274.225 237.525 274.433 236.263 274.679 237.195 C 274.937 238.173 275.729 238.658 276.553 238.341 M 199.750 244.573 C 201.538 245.302 203.000 246.627 203.000 247.517 C 203.000 248.866 202.457 248.749 199.750 246.818 C 196.661 244.615 195.563 244.488 177.594 244.257 C 163.708 244.079 158.280 244.344 157.152 245.257 C 155.892 246.277 155.769 246.247 156.464 245.092 C 157.133 243.983 156.804 243.821 154.906 244.329 C 153.583 244.683 151.797 244.979 150.939 244.986 C 150.080 244.994 148.392 245.918 147.189 247.039 C 145.985 248.160 145.000 248.643 145.000 248.110 C 145.000 246.818 147.845 244.031 149.321 243.877 C 166.373 242.105 194.650 242.495 199.750 244.573 M 153.762 158.500 C 154.366 161.250 155.191 164.357 155.596 165.405 C 156.311 167.254 156.246 167.258 153.334 165.538 C 149.938 163.532 147.395 160.040 148.658 159.116 C 149.121 158.777 149.472 157.600 149.438 156.500 C 149.363 154.096 151.045 151.598 151.990 152.708 C 152.361 153.143 153.159 155.750 153.762 158.500 M 300.366 387.326 C 301.197 387.931 301.166 388.288 300.250 388.659 C 299.563 388.938 299.000 390.029 299.000 391.083 C 299.000 392.546 298.290 393.000 296.000 393.000 C 293.167 393.000 293.000 392.778 293.000 389.000 C 293.000 385.400 293.250 385.000 295.500 385.000 C 296.875 385.000 298.052 384.438 298.116 383.750 C 298.180 383.063 298.457 383.400 298.732 384.500 C 299.007 385.600 299.742 386.872 300.366 387.326 M 208.025 301.492 C 205.542 302.280 205.344 303.828 207.750 303.643 C 208.713 303.570 208.159 304.098 206.520 304.817 C 204.882 305.537 203.307 306.434 203.020 306.813 C 202.734 307.191 201.488 308.066 200.250 308.758 C 198.380 309.804 198.000 309.776 198.000 308.590 C 198.000 305.554 199.389 303.874 203.368 302.101 C 208.752 299.701 210.551 299.179 210.275 300.100 C 210.151 300.512 209.139 301.139 208.025 301.492 M 144.000 166.953 C 144.000 171.014 142.288 176.000 140.894 176.000 C 139.697 176.000 139.365 166.738 140.491 164.750 C 142.254 161.635 144.000 162.731 144.000 166.953 M 256.800 347.250 C 258.441 349.152 262.507 349.607 263.500 348.000 C 263.840 347.450 264.627 347.000 265.250 347.000 C 265.873 347.000 265.509 347.661 264.441 348.468 C 260.784 351.234 257.269 350.387 254.554 346.086 C 253.195 343.933 251.064 341.458 249.819 340.586 C 248.574 339.714 247.970 339.000 248.477 339.000 C 248.985 339.000 248.912 338.512 248.316 337.916 C 247.719 337.319 247.465 335.937 247.751 334.843 C 248.162 333.272 249.008 334.181 251.781 339.177 C 253.711 342.655 255.970 346.288 256.800 347.250 M 166.801 389.218 C 165.572 389.014 165.211 389.498 165.494 390.968 C 165.709 392.086 165.461 393.000 164.943 393.000 C 164.424 393.000 164.000 392.498 164.000 391.883 C 164.000 391.269 163.191 390.978 162.202 391.237 C 160.981 391.556 160.359 391.119 160.265 389.873 C 160.076 387.358 161.171 386.902 164.858 387.959 C 167.743 388.787 168.015 388.662 168.188 386.430 C 168.331 384.573 168.390 384.648 168.438 386.750 C 168.484 388.800 168.068 389.428 166.801 389.218 M 274.250 296.708 C 273.563 296.960 273.000 298.029 273.000 299.083 C 273.000 300.138 272.088 301.912 270.974 303.026 L 268.947 305.053 269.355 301.776 C 269.901 297.395 271.011 294.889 272.105 295.565 C 272.597 295.869 273.000 295.551 273.000 294.859 C 273.000 293.882 273.280 293.897 274.250 294.925 C 275.250 295.985 275.250 296.342 274.250 296.708 M 234.800 347.200 C 235.460 347.860 235.993 348.873 235.985 349.450 C 235.976 350.028 235.533 349.825 235.000 349.000 C 234.220 347.793 234.028 347.951 234.015 349.809 C 234.007 351.097 234.442 351.845 235.000 351.500 C 235.603 351.127 236.000 352.470 236.000 354.882 C 236.000 357.082 235.484 359.201 234.854 359.590 C 234.047 360.089 233.906 359.510 234.378 357.629 C 234.747 356.160 234.650 354.181 234.163 353.229 C 232.741 350.454 231.890 346.000 232.781 346.000 C 233.231 346.000 234.140 346.540 234.800 347.200 M 193.493 296.000 C 194.193 296.000 192.954 297.811 190.740 300.025 C 188.527 302.238 186.569 303.902 186.389 303.722 C 186.209 303.542 187.511 301.068 189.281 298.224 C 191.051 295.380 192.438 293.716 192.361 294.526 C 192.285 295.337 192.794 296.000 193.493 296.000 M 199.085 181.447 C 200.312 180.689 200.245 182.673 198.965 185.066 C 197.742 187.351 195.000 187.652 195.000 185.500 C 195.000 184.675 195.730 184.000 196.622 184.000 C 197.866 184.000 197.985 183.687 197.131 182.658 C 196.519 181.920 196.342 180.992 196.738 180.595 C 197.134 180.199 197.619 180.356 197.815 180.944 C 198.011 181.532 198.582 181.758 199.085 181.447 M 188.391 336.421 C 189.062 339.094 188.282 342.000 186.893 342.000 C 186.402 342.000 186.000 340.200 186.000 338.000 C 186.000 333.582 187.440 332.631 188.391 336.421 M 252.905 323.750 C 252.991 324.163 253.497 323.752 254.031 322.839 C 254.564 321.925 255.677 321.276 256.504 321.398 C 257.518 321.547 257.021 322.347 254.976 323.860 C 253.294 325.103 252.248 326.593 252.627 327.205 C 253.042 327.876 252.850 328.026 252.138 327.585 C 251.494 327.187 251.226 326.443 251.543 325.931 C 251.859 325.419 251.641 325.000 251.059 325.000 C 250.477 325.000 250.113 324.438 250.250 323.750 C 250.572 322.138 252.461 320.775 252.625 322.036 C 252.694 322.566 252.820 323.338 252.905 323.750 M 261.500 340.280 L 259.500 341.500 261.500 341.587 C 263.239 341.663 263.279 341.772 261.808 342.422 C 259.506 343.439 256.478 342.750 256.600 341.236 C 256.677 340.284 256.741 340.288 256.880 341.250 C 256.992 342.026 257.448 341.836 258.080 340.750 C 258.641 339.788 260.090 339.014 261.300 339.030 C 263.458 339.060 263.462 339.084 261.500 340.280 M 231.000 332.000 C 231.000 333.333 230.333 334.000 229.000 334.000 C 227.667 334.000 227.000 333.333 227.000 332.000 C 227.000 330.667 227.667 330.000 229.000 330.000 C 230.333 330.000 231.000 330.667 231.000 332.000 M 156.540 179.935 C 156.269 180.374 156.926 181.528 158.000 182.500 C 160.158 184.453 159.798 186.008 157.191 185.985 C 155.762 185.972 155.728 185.825 156.968 185.041 C 158.196 184.264 158.049 183.777 156.065 182.056 C 154.761 180.925 154.239 180.000 154.906 180.000 C 155.573 180.000 155.797 179.480 155.405 178.845 C 154.959 178.124 155.131 177.963 155.862 178.415 C 156.506 178.813 156.811 179.497 156.540 179.935 M 182.182 307.500 C 180.548 308.875 178.826 309.993 178.356 309.985 C 177.885 309.976 178.175 309.533 179.000 309.000 C 180.333 308.138 180.333 308.027 179.000 308.001 C 178.121 307.983 178.535 307.396 180.000 306.583 C 184.114 304.300 185.362 304.825 182.182 307.500 M 275.320 358.985 C 274.319 358.976 272.825 358.513 272.000 357.954 C 270.887 357.201 271.210 357.104 273.250 357.578 C 275.468 358.093 276.026 357.858 276.136 356.358 C 276.239 354.952 276.378 355.047 276.706 356.750 C 277.028 358.421 276.671 358.996 275.320 358.985 M 191.979 182.487 C 191.433 182.150 190.716 182.577 190.386 183.437 C 190.056 184.296 189.314 185.000 188.738 185.000 C 188.162 185.000 188.505 184.100 189.500 183.000 C 190.495 181.900 190.989 181.000 190.596 181.000 C 190.203 181.000 190.208 180.473 190.606 179.829 C 191.083 179.056 191.609 179.414 192.151 180.880 C 192.674 182.294 192.612 182.878 191.979 182.487 M 151.563 179.338 C 152.353 179.034 153.000 179.236 153.000 179.786 C 153.000 180.336 152.362 181.031 151.583 181.330 C 150.185 181.866 148.890 179.944 149.116 177.668 C 149.180 177.026 149.433 177.263 149.679 178.195 C 149.938 179.179 150.728 179.658 151.563 179.338 M 245.985 334.750 C 245.993 335.438 245.469 335.888 244.820 335.750 C 244.172 335.613 243.763 334.416 243.913 333.091 C 244.121 331.250 244.396 331.014 245.077 332.091 C 245.568 332.866 245.976 334.063 245.985 334.750 M 269.457 306.931 C 270.197 308.128 268.316 309.313 266.984 308.490 C 265.865 307.799 266.600 306.000 268.000 306.000 C 268.485 306.000 269.141 306.419 269.457 306.931 M 195.493 341.989 C 195.843 342.555 195.442 342.723 194.552 342.382 C 193.698 342.054 193.000 342.284 193.000 342.893 C 193.000 343.502 192.239 344.000 191.309 344.000 C 189.834 344.000 189.866 343.812 191.559 342.532 C 193.874 340.781 194.678 340.670 195.493 341.989 M 167.750 308.085 C 165.800 308.611 165.000 308.456 165.000 307.552 C 165.000 306.699 165.910 306.453 167.750 306.810 L 170.500 307.342 167.750 308.085 M 121.946 234.533 C 120.422 235.476 119.837 234.590 120.625 232.534 C 121.215 230.997 121.404 230.971 122.161 232.324 C 122.689 233.268 122.606 234.126 121.946 234.533 "/></g>
<g fill="#D9DBDFFF" stroke="#D9DBDFFF">
<path d="M 74.036 236.750 C 71.082 241.479 71.079 241.502 73.284 241.835 C 77.243 242.433 77.217 243.710 73.234 244.347 C 68.664 245.077 61.398 250.032 59.822 253.492 C 57.371 258.870 64.653 263.429 77.697 264.683 C 83.453 265.237 83.916 265.465 84.197 267.890 C 84.461 270.164 85.272 270.706 90.500 272.104 C 98.697 274.295 101.004 275.123 100.976 275.867 C 100.963 276.215 98.601 277.555 95.726 278.844 C 89.733 281.531 89.766 281.561 102.000 284.468 C 108.390 285.986 110.908 286.795 115.132 288.689 C 115.480 288.845 116.864 288.108 118.207 287.052 C 120.266 285.432 121.264 285.285 124.574 286.114 C 143.764 290.916 149.179 290.966 156.396 286.407 C 158.926 284.808 160.997 283.022 160.998 282.437 C 161.001 280.604 155.562 276.069 153.012 275.778 C 151.003 275.549 150.479 276.028 150.033 278.500 C 149.560 281.116 149.020 281.539 145.806 281.807 C 141.715 282.147 136.000 279.694 136.000 277.597 C 136.000 275.667 138.091 274.190 141.462 273.739 C 145.795 273.158 143.441 272.293 134.023 271.003 C 125.924 269.894 125.444 269.681 121.481 265.425 C 118.049 261.740 116.745 261.000 113.680 261.000 C 111.133 261.000 110.000 260.554 110.000 259.551 C 110.000 258.668 107.805 257.410 104.378 256.330 C 100.641 255.152 98.234 253.710 97.196 252.029 C 96.338 250.638 94.508 248.263 93.131 246.750 L 90.626 244.000 96.090 244.000 C 99.445 244.000 102.423 244.608 103.803 245.575 C 105.969 247.092 106.096 247.028 107.244 243.825 C 107.899 241.996 108.337 240.163 108.218 239.750 C 108.098 239.338 108.450 239.000 109.000 239.000 C 110.657 239.000 110.127 236.425 108.091 234.583 C 106.487 233.131 105.570 233.026 102.341 233.922 C 96.989 235.408 87.264 235.187 82.500 233.471 C 80.300 232.679 78.163 232.023 77.752 232.015 C 77.340 232.007 75.668 234.138 74.036 236.750 M 102.500 270.083 C 102.500 270.863 101.488 271.644 100.250 271.820 C 97.773 272.171 97.336 271.064 99.213 269.188 C 100.709 267.691 102.500 268.179 102.500 270.083 M 81.000 239.941 C 81.000 240.459 80.528 241.173 79.952 241.530 C 78.484 242.437 75.741 241.228 76.496 240.007 C 77.282 238.734 81.000 238.680 81.000 239.941 M 99.000 241.500 C 99.000 242.333 98.111 243.000 97.000 243.000 C 95.008 243.000 94.399 241.934 95.667 240.667 C 96.885 239.449 99.000 239.978 99.000 241.500 "/></g>
<g fill="#D9DBDFFF" stroke="#D9DBDFFF">
<path d="M 202.774 212.774 C 200.532 219.086 195.368 224.962 189.477 227.904 C 185.357 229.962 184.407 230.111 182.598 228.985 C 180.731 227.823 180.643 227.852 181.798 229.249 C 182.918 230.605 182.680 230.911 180.070 231.485 C 174.854 232.630 165.975 230.932 160.558 227.754 C 157.776 226.121 155.349 224.381 155.165 223.887 C 154.980 223.392 154.425 223.238 153.930 223.543 C 152.791 224.247 149.327 218.675 147.811 213.700 C 146.824 210.459 146.281 209.945 144.116 210.200 C 142.395 210.404 141.357 211.304 140.889 213.000 C 140.390 214.810 140.172 214.982 140.100 213.622 C 139.943 210.675 132.293 212.234 128.804 215.924 C 127.322 217.492 126.354 219.021 126.654 219.321 C 126.955 219.621 126.830 220.459 126.378 221.183 C 125.926 221.908 125.440 223.175 125.298 224.000 C 125.015 225.645 127.903 236.025 128.996 237.289 C 130.045 238.502 141.461 238.720 141.482 237.527 C 141.514 235.730 143.500 235.925 143.500 237.725 C 143.500 239.965 142.929 239.923 179.000 240.352 C 208.131 240.698 213.000 241.093 213.000 243.107 C 213.000 245.037 218.055 243.855 220.575 241.334 C 224.379 237.530 226.000 232.957 226.000 226.032 C 226.000 222.602 226.440 220.000 227.019 220.000 C 228.273 220.000 227.219 215.003 225.597 213.257 C 224.962 212.573 221.755 211.524 218.471 210.926 C 215.187 210.328 212.073 209.425 211.550 208.919 C 211.028 208.414 209.221 208.000 207.535 208.000 C 204.779 208.000 204.298 208.482 202.774 212.774 M 147.000 224.914 L 150.500 228.942 147.214 226.352 C 143.897 223.737 140.962 219.193 141.045 216.800 C 141.070 216.085 141.632 216.712 142.295 218.193 C 142.958 219.674 145.075 222.698 147.000 224.914 M 203.321 224.052 L 199.639 227.500 203.569 222.871 C 205.731 220.324 207.388 218.773 207.252 219.423 C 207.115 220.073 205.346 222.156 203.321 224.052 M 205.410 237.746 C 203.010 238.067 202.826 237.915 203.963 236.545 C 204.994 235.303 205.567 235.226 206.713 236.176 C 207.920 237.178 207.704 237.439 205.410 237.746 "/></g>
<g fill="#D9DBDFFF" stroke="#D9DBDFFF">
<path d="M 228.000 353.333 C 228.000 356.817 227.758 359.908 227.463 360.204 C 227.168 360.499 225.030 360.057 222.713 359.221 C 213.943 356.056 187.764 357.836 183.729 361.871 C 182.328 363.272 181.508 376.578 182.774 377.360 C 183.337 377.708 193.518 378.032 205.399 378.080 C 223.734 378.154 227.000 378.390 227.000 379.643 C 227.000 380.454 227.450 380.840 228.000 380.500 C 228.550 380.160 229.000 375.891 229.000 371.012 C 229.000 364.462 229.392 361.751 230.500 360.643 C 233.380 357.763 231.746 347.000 228.429 347.000 C 228.193 347.000 228.000 349.850 228.000 353.333 "/></g>
<g fill="#121617FF" stroke="#121617FF">
<path d="M 233.231 365.931 C 233.083 368.091 233.421 370.142 233.981 370.488 C 234.541 370.835 235.068 370.641 235.150 370.059 C 235.233 369.477 235.300 369.450 235.300 370.000 C 235.300 372.713 234.881 373.037 233.250 371.584 C 232.288 370.726 231.834 370.582 232.242 371.262 C 233.294 373.018 233.181 378.230 232.105 377.565 C 230.647 376.664 230.286 379.146 231.024 385.000 C 231.406 388.025 231.789 390.050 231.875 389.500 C 231.960 388.950 232.467 389.175 233.000 390.000 C 233.646 391.000 233.974 391.083 233.985 390.250 C 233.993 389.563 234.450 389.000 235.000 389.000 C 236.312 389.000 236.295 392.700 234.979 393.513 C 234.418 393.860 234.110 395.616 234.294 397.415 L 234.630 400.686 254.315 400.913 L 274.000 401.139 274.000 397.570 C 274.000 394.006 273.993 394.000 269.500 394.000 C 265.367 394.000 265.000 393.796 265.000 391.500 C 265.000 389.667 264.467 389.000 263.000 389.000 C 261.333 389.000 261.000 388.333 261.000 385.000 C 261.000 381.667 260.667 381.000 259.000 381.000 C 257.667 381.000 257.000 380.333 257.000 379.000 C 257.000 377.296 256.333 377.000 252.500 377.000 C 248.367 377.000 248.000 376.796 248.000 374.500 C 248.000 372.667 247.467 372.000 246.000 372.000 C 244.667 372.000 244.000 371.333 244.000 370.000 C 244.000 368.900 243.355 368.000 242.567 368.000 C 241.779 368.000 240.849 367.100 240.500 366.000 C 240.094 364.722 238.987 364.000 237.433 364.000 C 236.095 364.000 235.000 363.550 235.000 363.000 C 235.000 362.450 234.663 362.001 234.250 362.001 C 233.838 362.002 233.379 363.770 233.231 365.931 M 238.000 394.893 C 238.000 395.934 237.325 397.045 236.500 397.362 C 234.969 397.949 234.309 395.024 235.667 393.667 C 236.912 392.421 238.000 392.993 238.000 394.893 M 244.000 382.040 C 244.000 382.494 242.650 382.828 241.000 382.781 C 237.738 382.688 236.932 381.384 239.750 380.758 C 241.886 380.283 244.000 380.921 244.000 382.040 "/></g>
<g fill="#D9DBDFFF" stroke="#D9DBDFFF">
<path d="M 155.157 147.843 C 153.470 149.530 153.360 150.366 154.241 154.819 C 154.862 157.959 156.174 160.754 157.701 162.189 C 160.035 164.382 160.894 164.500 174.497 164.500 C 187.851 164.500 189.044 164.344 191.916 162.220 C 195.176 159.810 195.621 159.971 194.011 162.979 C 192.454 165.889 185.204 168.152 178.456 167.833 C 168.785 167.375 159.833 167.921 160.457 168.931 C 160.774 169.443 162.186 169.652 163.596 169.397 C 165.204 169.105 165.922 169.317 165.521 169.966 C 165.103 170.643 167.472 171.000 172.382 171.000 C 176.507 171.000 180.137 171.413 180.449 171.917 C 180.791 172.471 182.388 172.455 184.480 171.878 C 186.386 171.352 191.894 171.052 196.722 171.211 L 205.500 171.500 205.828 174.372 C 206.009 175.951 205.734 177.666 205.218 178.182 C 204.328 179.072 205.367 187.700 206.501 188.834 C 206.776 189.109 207.067 185.096 207.150 179.917 C 207.232 174.738 207.487 171.737 207.716 173.250 C 208.079 175.644 208.389 175.862 210.114 174.939 C 211.795 174.039 212.051 173.015 211.798 168.189 C 211.537 163.210 211.241 162.496 209.428 162.465 C 208.210 162.445 207.530 161.909 207.779 161.164 C 208.281 159.657 203.345 152.255 201.002 151.001 C 199.692 150.300 199.100 150.836 198.087 153.635 C 197.388 155.568 196.601 156.935 196.338 156.672 C 196.075 156.408 196.762 154.327 197.864 152.045 L 199.868 147.897 197.341 146.746 C 195.343 145.835 194.271 145.899 192.222 147.049 C 189.713 148.457 185.192 154.741 182.816 160.121 C 181.791 162.444 180.932 162.810 175.286 163.338 C 171.781 163.665 167.583 163.667 165.957 163.341 C 163.339 162.818 162.997 162.334 162.978 159.125 C 162.955 155.372 160.012 147.744 158.141 146.587 C 157.553 146.224 156.211 146.789 155.157 147.843 "/></g>
<g fill="#D9DBDFFF" stroke="#D9DBDFFF">
<path d="M 89.942 209.948 C 83.348 211.949 76.981 217.122 77.032 220.437 C 77.182 230.187 102.506 233.211 114.041 224.856 C 120.241 220.364 118.838 214.647 110.617 210.914 C 106.298 208.952 94.968 208.423 89.942 209.948 "/></g>
<g fill="#D9DBDFFF" stroke="#D9DBDFFF">
<path d="M 129.199 354.986 C 122.403 356.596 123.824 358.382 133.980 360.995 C 142.986 363.312 154.870 369.169 152.354 370.051 C 149.502 371.051 152.518 372.192 159.496 372.752 C 165.433 373.228 165.829 373.124 166.590 370.878 C 167.033 369.570 167.296 368.128 167.172 367.673 C 167.049 367.218 167.377 365.294 167.901 363.398 C 168.734 360.381 168.580 359.771 166.671 358.520 C 160.980 354.791 138.840 352.703 129.199 354.986 "/></g>
<g fill="#D9DBDFFF" stroke="#D9DBDFFF">
<path d="M 171.000 137.027 C 168.525 137.445 164.595 138.557 162.266 139.496 C 158.135 141.163 158.080 141.245 160.037 142.852 C 161.140 143.759 162.842 146.750 163.819 149.500 L 165.595 154.500 173.961 154.500 L 182.328 154.500 184.217 151.000 C 186.571 146.637 191.477 142.000 193.738 142.000 C 195.207 142.000 195.166 141.805 193.443 140.598 C 189.255 137.664 177.909 135.859 171.000 137.027 "/></g>
<g fill="#D9DBDFFF" stroke="#D9DBDFFF">
<path d="M 250.458 219.068 C 250.095 219.656 249.168 219.895 248.399 219.600 C 247.629 219.304 247.000 219.525 247.000 220.090 C 247.000 220.656 246.482 220.798 245.848 220.406 C 245.215 220.015 244.090 220.524 243.348 221.538 C 242.607 222.553 242.000 223.054 242.000 222.652 C 242.000 220.979 237.956 225.860 236.546 229.237 C 234.828 233.348 236.002 235.163 238.813 232.744 C 241.875 230.109 247.281 227.984 252.473 227.374 C 256.654 226.883 258.864 227.281 264.545 229.550 C 268.370 231.077 272.048 233.041 272.718 233.913 C 274.487 236.217 274.357 233.590 272.526 230.051 C 270.073 225.306 263.286 220.227 257.840 219.059 C 251.715 217.746 251.275 217.746 250.458 219.068 "/></g>
<g fill="#0F1415FF" stroke="#0F1415FF">
<path d="M 267.774 359.758 C 267.196 361.966 265.000 362.949 265.000 361.000 C 265.000 360.450 264.550 360.000 264.000 360.000 C 261.955 360.000 263.084 362.873 265.250 363.180 C 267.925 363.560 269.140 368.000 266.570 368.000 C 265.267 368.000 265.000 369.444 265.000 376.500 L 265.000 385.000 269.500 385.000 L 274.000 385.000 274.000 381.107 C 274.000 378.569 273.478 377.014 272.500 376.638 C 271.510 376.258 271.000 374.692 271.000 372.031 C 271.000 368.398 271.247 368.000 273.500 368.000 C 274.875 368.000 276.000 367.550 276.000 367.000 C 276.000 366.450 275.550 366.000 275.000 366.000 C 274.450 366.000 274.000 365.100 274.000 364.000 C 274.000 361.794 272.425 361.276 271.720 363.250 C 271.474 363.938 270.618 362.929 269.816 361.008 C 268.476 357.795 268.313 357.695 267.774 359.758 "/></g>
<g fill="#0F1415FF" stroke="#0F1415FF">
<path d="M 280.576 368.250 C 280.966 369.488 282.122 371.228 283.143 372.117 C 284.164 373.007 285.000 374.244 285.000 374.867 C 285.000 375.587 287.222 376.000 291.094 376.000 C 296.419 376.000 297.256 376.262 297.730 378.074 C 298.148 379.672 298.810 380.014 300.614 379.561 C 302.766 379.021 302.907 379.217 302.353 381.987 C 301.785 384.824 301.933 385.000 304.875 385.000 C 307.333 385.000 308.000 384.573 308.000 383.000 C 308.000 381.667 307.333 381.000 306.000 381.000 C 304.667 381.000 304.000 380.333 304.000 379.000 C 304.000 377.533 303.333 377.000 301.500 377.000 C 299.204 377.000 299.000 376.633 299.000 372.500 L 299.000 368.000 291.000 368.000 C 286.333 368.000 283.000 367.583 283.000 367.000 C 283.000 366.450 282.295 366.000 281.433 366.000 C 280.263 366.000 280.046 366.571 280.576 368.250 "/></g>
<g fill="#D9DBDFFF" stroke="#D9DBDFFF">
<path d="M 259.129 324.539 C 256.175 327.012 253.046 329.434 252.176 329.921 C 250.129 331.067 251.905 333.423 255.852 334.799 C 258.284 335.646 259.278 335.208 264.788 330.856 C 268.197 328.164 270.877 325.500 270.743 324.937 C 270.610 324.374 271.850 324.883 273.500 326.068 C 275.557 327.545 275.176 326.930 272.289 324.111 C 269.973 321.850 267.273 320.010 266.289 320.022 C 265.305 320.033 262.083 322.066 259.129 324.539 "/></g>
<g fill="#0F1415FF" stroke="#0F1415FF">
<path d="M 265.136 391.250 C 265.007 393.863 265.225 394.000 269.500 394.000 C 273.976 394.000 274.000 394.019 274.000 397.500 C 274.000 400.722 274.238 401.000 277.000 401.000 C 279.833 401.000 280.000 400.778 280.000 397.000 C 280.000 393.400 280.250 393.000 282.500 393.000 C 284.467 393.000 285.000 393.508 285.000 395.383 C 285.000 397.761 287.223 399.104 289.750 398.254 C 291.227 397.757 291.457 392.000 290.000 392.000 C 289.450 392.000 289.000 392.450 289.000 393.000 C 289.000 393.550 288.550 394.000 288.000 394.000 C 287.450 394.000 287.000 392.875 287.000 391.500 C 287.000 389.090 286.767 389.000 280.500 389.000 C 274.667 389.000 274.000 389.205 274.000 391.000 C 274.000 392.661 273.333 393.000 270.070 393.000 C 266.789 393.000 266.067 392.628 265.706 390.750 C 265.334 388.821 265.253 388.892 265.136 391.250 "/></g>
<g fill="#D9DBDFFF" stroke="#D9DBDFFF">
<path d="M 283.665 265.733 C 283.372 266.207 283.545 267.249 284.051 268.048 C 284.827 269.275 284.972 269.280 284.985 268.083 C 284.993 267.304 285.302 266.968 285.671 267.337 C 286.039 267.706 285.421 269.019 284.296 270.254 C 282.305 272.439 280.000 276.293 280.000 277.434 C 280.000 277.745 280.477 278.000 281.059 278.000 C 281.641 278.000 281.885 277.623 281.601 277.163 C 280.803 275.872 288.546 272.101 290.066 273.041 C 290.867 273.536 292.325 273.103 293.822 271.925 C 295.168 270.866 297.811 270.000 299.694 270.000 C 301.696 270.000 302.864 269.589 302.507 269.011 C 302.157 268.445 302.557 268.276 303.442 268.616 C 304.293 268.943 304.780 269.547 304.526 269.959 C 304.271 270.370 305.174 271.214 306.531 271.832 C 307.889 272.451 309.000 273.443 309.000 274.038 C 309.000 274.632 309.487 274.817 310.082 274.449 C 311.598 273.512 306.317 268.180 302.128 266.418 C 297.904 264.642 293.245 264.657 290.000 266.458 C 287.845 267.654 287.272 267.640 285.849 266.358 C 284.941 265.539 283.959 265.258 283.665 265.733 "/></g>
<g fill="#D9DBDFFF" stroke="#D9DBDFFF">
<path d="M 274.216 240.000 C 274.204 243.274 274.384 243.839 274.877 242.074 C 275.250 240.740 276.218 239.429 277.028 239.162 C 278.246 238.759 278.280 238.941 277.224 240.221 C 276.137 241.538 276.854 242.641 282.041 247.634 C 289.056 254.388 289.311 254.535 290.842 252.690 C 291.752 251.594 290.556 249.934 284.983 244.553 C 280.714 240.433 277.423 238.007 276.553 238.341 C 275.729 238.658 274.937 238.173 274.679 237.195 C 274.433 236.263 274.225 237.525 274.216 240.000 "/></g>
<g fill="#D9DBDFFF" stroke="#D9DBDFFF">
<path d="M 161.000 243.089 C 155.225 243.455 149.970 243.810 149.321 243.877 C 147.845 244.031 145.000 246.818 145.000 248.110 C 145.000 248.643 145.985 248.160 147.189 247.039 C 148.392 245.918 150.080 244.994 150.939 244.986 C 151.797 244.979 153.583 244.683 154.906 244.329 C 156.804 243.821 157.133 243.983 156.464 245.092 C 155.769 246.247 155.892 246.277 157.152 245.257 C 158.280 244.344 163.708 244.079 177.594 244.257 C 195.563 244.488 196.661 244.615 199.750 246.818 C 202.457 248.749 203.000 248.866 203.000 247.517 C 203.000 246.627 201.538 245.302 199.750 244.573 C 195.784 242.957 175.403 242.177 161.000 243.089 "/></g>
<g fill="#0F1415FF" stroke="#0F1415FF">
<path d="M 246.000 370.000 C 246.000 371.100 246.450 372.000 247.000 372.000 C 247.550 372.000 248.000 373.125 248.000 374.500 C 248.000 376.777 248.379 376.999 252.250 376.985 C 254.588 376.976 257.175 376.533 258.000 376.000 C 259.000 375.354 259.083 375.026 258.250 375.015 C 257.563 375.007 257.000 373.875 257.000 372.500 C 257.000 371.125 256.550 370.000 256.000 370.000 C 255.450 370.000 255.000 370.450 255.000 371.000 C 255.000 371.550 254.550 372.000 254.000 372.000 C 253.450 372.000 253.000 371.100 253.000 370.000 C 253.000 368.381 252.333 368.000 249.500 368.000 C 246.667 368.000 246.000 368.381 246.000 370.000 M 251.000 374.559 C 251.000 375.352 250.550 376.000 250.000 376.000 C 249.450 376.000 249.000 375.073 249.000 373.941 C 249.000 372.809 249.450 372.160 250.000 372.500 C 250.550 372.840 251.000 373.766 251.000 374.559 "/></g>
<g fill="#0F1415FF" stroke="#0F1415FF">
<path d="M 241.611 358.196 C 240.504 363.729 240.686 364.000 245.500 364.000 C 247.975 364.000 250.000 363.550 250.000 363.000 C 250.000 362.450 251.527 362.000 253.393 362.000 C 255.537 362.000 257.005 361.429 257.382 360.448 C 257.712 359.587 257.552 359.159 257.021 359.487 C 255.840 360.217 246.053 358.991 246.160 358.127 C 246.393 356.232 245.801 355.411 244.111 355.283 C 242.756 355.181 242.049 356.004 241.611 358.196 "/></g>
<g fill="#0F1415FF" stroke="#0F1415FF">
<path d="M 174.000 345.500 C 174.000 347.425 174.477 349.000 175.059 349.000 C 175.641 349.000 175.840 349.450 175.500 350.000 C 175.160 350.550 175.359 351.000 175.941 351.000 C 176.523 351.000 177.000 352.425 177.000 354.167 C 177.000 355.908 177.250 357.083 177.556 356.777 C 177.862 356.471 178.131 353.921 178.152 351.110 C 178.181 347.409 178.579 346.000 179.596 346.000 C 180.368 346.000 181.000 346.675 181.000 347.500 C 181.000 348.325 181.480 349.000 182.067 349.000 C 182.665 349.000 182.867 348.155 182.526 347.081 C 182.082 345.684 182.509 344.973 184.090 344.471 C 187.432 343.411 184.438 342.034 178.750 342.015 L 174.000 342.000 174.000 345.500 "/></g>
<g fill="#D9DBDFFF" stroke="#D9DBDFFF">
<path d="M 150.345 153.208 C 149.812 153.918 149.404 155.400 149.438 156.500 C 149.472 157.600 149.121 158.777 148.658 159.116 C 147.395 160.040 149.938 163.532 153.334 165.538 C 156.246 167.258 156.311 167.254 155.596 165.405 C 155.191 164.357 154.366 161.250 153.762 158.500 C 152.481 152.662 151.683 151.426 150.345 153.208 "/></g>
<g fill="#0F1415FF" stroke="#0F1415FF">
<path d="M 298.116 383.750 C 298.052 384.438 296.875 385.000 295.500 385.000 C 293.250 385.000 293.000 385.400 293.000 389.000 C 293.000 392.778 293.167 393.000 296.000 393.000 C 298.290 393.000 299.000 392.546 299.000 391.083 C 299.000 390.029 299.563 388.938 300.250 388.659 C 301.166 388.288 301.197 387.931 300.366 387.326 C 299.742 386.872 299.007 385.600 298.732 384.500 C 298.457 383.400 298.180 383.063 298.116 383.750 "/></g>
<g fill="#0E1313FF" stroke="#0E1313FF">
<path d="M 191.763 162.302 C 189.934 163.685 187.019 164.516 182.971 164.808 C 179.088 165.089 177.048 165.651 177.285 166.373 C 178.377 169.705 191.944 166.842 194.092 162.827 C 195.585 160.039 194.947 159.895 191.763 162.302 "/></g>
<g fill="#D9DBDFFF" stroke="#D9DBDFFF">
<path d="M 140.607 164.582 C 139.694 166.962 139.878 176.000 140.839 176.000 C 142.282 176.000 144.000 171.082 144.000 166.953 C 144.000 162.867 141.843 161.360 140.607 164.582 "/></g>
<g fill="#D9DBDFFF" stroke="#D9DBDFFF">
<path d="M 247.751 334.843 C 247.465 335.937 247.719 337.319 248.316 337.916 C 248.912 338.512 248.985 339.000 248.477 339.000 C 247.970 339.000 248.574 339.714 249.819 340.586 C 251.064 341.458 253.195 343.933 254.554 346.086 C 257.269 350.387 260.784 351.234 264.441 348.468 C 265.509 347.661 265.873 347.000 265.250 347.000 C 264.627 347.000 263.840 347.450 263.500 348.000 C 262.507 349.607 258.441 349.152 256.800 347.250 C 255.970 346.288 253.711 342.655 251.781 339.177 C 249.008 334.181 248.162 333.272 247.751 334.843 "/></g>
<g fill="#121617FF" stroke="#121617FF">
<path d="M 209.000 299.804 C 201.512 302.073 198.000 304.878 198.000 308.590 C 198.000 309.776 198.380 309.804 200.250 308.758 C 201.488 308.066 202.734 307.191 203.020 306.813 C 203.307 306.434 204.882 305.536 206.520 304.817 C 209.634 303.449 209.083 303.289 205.256 304.450 C 203.514 304.979 203.141 304.795 203.590 303.626 C 203.907 302.799 205.492 301.831 207.112 301.475 C 208.732 301.120 210.157 300.496 210.279 300.089 C 210.400 299.683 209.825 299.554 209.000 299.804 "/></g>
<g fill="#D9DBDFFF" stroke="#D9DBDFFF">
<path d="M 273.000 294.859 C 273.000 295.551 272.597 295.869 272.105 295.565 C 271.011 294.889 269.901 297.395 269.355 301.776 L 268.947 305.053 270.974 303.026 C 272.088 301.912 273.000 300.138 273.000 299.083 C 273.000 298.029 273.563 296.960 274.250 296.708 C 275.250 296.342 275.250 295.985 274.250 294.925 C 273.280 293.897 273.000 293.882 273.000 294.859 "/></g>
<g fill="#121617FF" stroke="#121617FF">
<path d="M 188.546 299.306 C 187.195 301.570 186.231 303.564 186.403 303.736 C 186.575 303.908 188.496 302.269 190.672 300.093 C 194.032 296.733 194.355 296.065 192.815 295.662 C 191.505 295.319 190.319 296.331 188.546 299.306 "/></g>
<g fill="#D9DBDFFF" stroke="#D9DBDFFF">
<path d="M 229.652 394.500 C 230.361 400.821 232.000 402.839 232.000 397.391 C 232.000 395.186 231.346 392.509 230.546 391.441 C 229.227 389.680 229.144 389.964 229.652 394.500 "/></g>
<g fill="#D9DBDFFF" stroke="#D9DBDFFF">
<path d="M 196.738 180.595 C 196.342 180.992 196.519 181.920 197.131 182.658 C 197.985 183.687 197.866 184.000 196.622 184.000 C 195.730 184.000 195.000 184.675 195.000 185.500 C 195.000 187.652 197.742 187.351 198.965 185.066 C 200.245 182.673 200.312 180.689 199.085 181.447 C 198.582 181.758 198.011 181.532 197.815 180.944 C 197.619 180.356 197.134 180.199 196.738 180.595 "/></g>
<g fill="#121617FF" stroke="#121617FF">
<path d="M 178.000 354.000 C 178.000 355.650 177.550 357.000 177.000 357.000 C 176.450 357.000 176.000 357.450 176.000 358.000 C 176.000 358.550 176.900 359.000 178.000 359.000 C 179.667 359.000 180.000 358.333 180.000 355.000 C 180.000 352.800 179.550 351.000 179.000 351.000 C 178.450 351.000 178.000 352.350 178.000 354.000 "/></g>
<g fill="#0E1313FF" stroke="#0E1313FF">
<path d="M 141.045 216.800 C 140.962 219.193 143.897 223.737 147.214 226.352 L 150.500 228.942 147.000 224.914 C 145.075 222.698 142.958 219.674 142.295 218.193 C 141.632 216.712 141.070 216.085 141.045 216.800 "/></g>
<g fill="#0F1415FF" stroke="#0F1415FF">
<path d="M 186.000 338.000 C 186.000 340.200 186.450 342.000 187.000 342.000 C 188.001 342.000 188.250 341.304 188.250 338.500 C 188.250 335.088 187.948 334.000 187.000 334.000 C 186.450 334.000 186.000 335.800 186.000 338.000 "/></g>
<g fill="#121617FF" stroke="#121617FF">
<path d="M 161.393 388.582 C 161.727 389.452 162.000 390.352 162.000 390.582 C 162.000 390.812 162.675 391.000 163.500 391.000 C 164.325 391.000 165.000 390.530 165.000 389.956 C 165.000 389.382 165.788 389.045 166.750 389.206 C 167.713 389.368 168.455 388.938 168.400 388.250 C 168.345 387.563 168.233 387.419 168.150 387.930 C 168.058 388.504 166.757 388.504 164.757 387.930 C 160.600 386.738 160.680 386.723 161.393 388.582 "/></g>
<g fill="#0F1415FF" stroke="#0F1415FF">
<path d="M 306.000 399.516 C 306.000 400.584 306.885 400.964 309.000 400.803 C 310.661 400.677 312.000 400.000 312.000 399.287 C 312.000 398.524 310.780 398.000 309.000 398.000 C 306.986 398.000 306.000 398.498 306.000 399.516 "/></g>
<g fill="#121617FF" stroke="#121617FF">
<path d="M 246.526 357.957 C 245.972 358.854 248.784 359.300 255.000 359.300 C 255.550 359.300 255.475 359.233 254.833 359.150 C 254.192 359.068 253.971 358.695 254.344 358.323 C 254.716 357.951 253.255 357.481 251.096 357.280 C 248.937 357.079 246.881 357.384 246.526 357.957 "/></g>
<g fill="#0F1415FF" stroke="#0F1415FF">
<path d="M 298.000 399.460 C 298.000 400.461 298.941 400.854 300.998 400.710 C 304.938 400.434 304.940 398.000 301.000 398.000 C 299.037 398.000 298.000 398.504 298.000 399.460 "/></g>
<g fill="#0F1415FF" stroke="#0F1415FF">
<path d="M 227.000 332.000 C 227.000 333.333 227.667 334.000 229.000 334.000 C 230.333 334.000 231.000 333.333 231.000 332.000 C 231.000 330.667 230.333 330.000 229.000 330.000 C 227.667 330.000 227.000 330.667 227.000 332.000 "/></g>
<g fill="#0E1313FF" stroke="#0E1313FF">
<path d="M 99.213 269.188 C 97.336 271.064 97.773 272.171 100.250 271.820 C 101.488 271.644 102.500 270.863 102.500 270.083 C 102.500 268.179 100.709 267.691 99.213 269.188 "/></g>
<g fill="#0E1313FF" stroke="#0E1313FF">
<path d="M 178.180 348.172 C 178.652 351.373 181.000 351.716 181.000 348.583 C 181.000 346.903 180.451 346.000 179.430 346.000 C 178.388 346.000 177.968 346.729 178.180 348.172 "/></g>
<g fill="#0E1313FF" stroke="#0E1313FF">
<path d="M 76.496 240.007 C 75.741 241.228 78.484 242.437 79.952 241.530 C 80.528 241.173 81.000 240.459 81.000 239.941 C 81.000 238.680 77.282 238.734 76.496 240.007 "/></g>
<g fill="#0E1313FF" stroke="#0E1313FF">
<path d="M 95.667 240.667 C 94.399 241.934 95.008 243.000 97.000 243.000 C 98.111 243.000 99.000 242.333 99.000 241.500 C 99.000 239.978 96.885 239.449 95.667 240.667 "/></g>
<g fill="#121617FF" stroke="#121617FF">
<path d="M 180.000 306.583 C 178.625 307.346 178.089 307.977 178.809 307.985 C 179.596 307.994 179.813 308.498 179.354 309.250 C 178.933 309.938 180.066 309.263 181.871 307.750 C 185.313 304.867 184.268 304.215 180.000 306.583 "/></g>
<g fill="#0F1415FF" stroke="#0F1415FF">
<path d="M 234.450 393.225 C 234.615 393.926 235.256 394.388 235.875 394.250 C 236.494 394.113 237.000 394.450 237.000 395.000 C 237.000 395.550 236.550 396.000 236.000 396.000 C 235.450 396.000 235.000 396.436 235.000 396.969 C 235.000 397.501 235.675 397.678 236.500 397.362 C 237.325 397.045 238.000 395.886 238.000 394.786 C 238.000 393.459 237.517 392.971 236.565 393.337 C 235.775 393.640 234.909 393.452 234.640 392.919 C 234.370 392.386 234.285 392.524 234.450 393.225 "/></g>
<g fill="#0F1415FF" stroke="#0F1415FF">
<path d="M 239.750 380.758 C 238.788 380.972 238.000 381.564 238.000 382.073 C 238.000 383.364 239.370 383.230 240.800 381.800 C 241.733 380.867 242.000 380.867 242.000 381.800 C 242.000 382.460 242.450 383.000 243.000 383.000 C 244.431 383.000 244.237 381.294 242.750 380.792 C 242.063 380.559 240.713 380.544 239.750 380.758 "/></g>
<g fill="#0E1313FF" stroke="#0E1313FF">
<path d="M 203.569 222.871 L 199.639 227.500 203.321 224.052 C 205.346 222.156 207.115 220.073 207.252 219.423 C 207.388 218.773 205.731 220.324 203.569 222.871 "/></g>
<g fill="#0F1415FF" stroke="#0F1415FF">
<path d="M 250.333 323.472 C 250.333 324.313 250.735 325.000 251.226 325.000 C 251.716 325.000 251.859 325.419 251.543 325.931 C 251.226 326.443 251.354 327.101 251.827 327.393 C 252.300 327.686 252.624 326.734 252.546 325.280 C 252.398 322.508 250.333 320.821 250.333 323.472 "/></g>
<g fill="#D9DBDFFF" stroke="#D9DBDFFF">
<path d="M 266.543 306.931 C 265.803 308.128 267.684 309.313 269.016 308.490 C 270.135 307.799 269.400 306.000 268.000 306.000 C 267.515 306.000 266.859 306.419 266.543 306.931 "/></g>
<g fill="#0E1313FF" stroke="#0E1313FF">
<path d="M 249.000 373.941 C 249.000 375.073 249.450 376.000 250.000 376.000 C 250.550 376.000 251.000 375.352 251.000 374.559 C 251.000 373.766 250.550 372.840 250.000 372.500 C 249.450 372.160 249.000 372.809 249.000 373.941 "/></g>
<g fill="#0E1313FF" stroke="#0E1313FF">
<path d="M 204.139 236.333 C 203.236 237.421 203.528 237.663 205.607 237.552 C 207.791 237.435 207.970 237.220 206.734 236.194 C 205.571 235.229 205.031 235.258 204.139 236.333 "/></g>
<g fill="#121617FF" stroke="#121617FF">
<path d="M 165.000 307.552 C 165.000 308.456 165.800 308.611 167.750 308.085 L 170.500 307.342 167.750 306.810 C 165.910 306.453 165.000 306.699 165.000 307.552 "/></g>
</svg>
